<svg width="1435" height="694" viewBox="0 0 1435 694" fill="none" xmlns="http://www.w3.org/2000/svg">
<path fill-rule="evenodd" clip-rule="evenodd" d="M0 694H716.708L1433.42 694V267.486C1434.46 259.897 1435 252.207 1435 244.432C1435 109.436 1273.5 0 1074.27 0C891.317 0 740.173 92.2928 716.708 211.918V206.208C716.708 208.32 716.669 210.426 716.591 212.525C714.971 220.941 713.984 229.492 713.662 238.156C690.67 357.759 540.357 450.103 358.354 450.103C160.441 450.103 0.000351377 340.908 0 206.208V694Z" fill="white" fill-opacity="0.24"/>
<path fill-rule="evenodd" clip-rule="evenodd" d="M0 694H716.708L1433.42 694V411.909C1434.46 406.89 1435 401.805 1435 396.663C1435 307.379 1273.5 235 1074.27 235C891.317 235 740.174 296.04 716.708 375.158V371.383C716.708 372.779 716.669 374.171 716.591 375.559C714.971 381.127 713.983 386.783 713.661 392.514C690.668 471.617 540.356 532.691 358.354 532.691C160.441 532.691 0.000128239 460.471 0 371.383V694Z" fill="white" fill-opacity="0.24"/>
</svg>
