<svg width="1440" height="570" viewBox="0 0 1440 570" fill="none" xmlns="http://www.w3.org/2000/svg">
<path fill-rule="evenodd" clip-rule="evenodd" d="M1440 569.476H1030.53L1030.53 569.608H409.466H409.013H0V257.381C0.000302811 343.6 91.6624 413.494 204.733 413.494C305.361 413.494 389.033 358.137 406.23 285.18C406.184 284.072 406.16 282.961 406.16 281.848C406.16 274.107 407.284 266.498 409.455 259.059C409.463 258.5 409.466 257.941 409.466 257.381V259.019C431.561 183.431 561.721 125.391 718.986 125.391C882.155 125.391 1016.15 187.871 1030.53 267.604V257.248H1031.17C1031.17 343.467 1122.84 413.362 1235.91 413.362C1343.49 413.362 1431.69 350.088 1440 269.681V569.476Z" fill="white" fill-opacity="0.24"/>
<path fill-rule="evenodd" clip-rule="evenodd" d="M1440 569.829H1030.53V570H409.466H409.013H0V169.363C0.0003287 279.996 91.6624 369.681 204.733 369.681C305.361 369.681 389.032 298.649 406.23 205.035C406.183 203.613 406.16 202.188 406.16 200.758C406.16 190.826 407.284 181.062 409.455 171.516C409.463 170.799 409.466 170.082 409.466 169.363V171.465C431.562 74.474 561.722 0 718.986 0C882.155 0 1016.15 80.1707 1030.53 182.481V169.193H1031.17C1031.17 279.826 1122.84 369.511 1235.91 369.511C1343.49 369.511 1431.69 288.32 1440 185.145V569.829Z" fill="white" fill-opacity="0.24"/>
</svg>
