<svg width="528" height="563" viewBox="0 0 528 563" fill="none" xmlns="http://www.w3.org/2000/svg">
<path d="M494.146 153.782C518.551 194.979 516.375 246.977 492.606 297.98C468.843 348.969 423.588 398.702 362.391 434.955C301.194 471.207 235.834 487.002 179.698 483.343C123.548 479.684 76.8998 456.609 52.4953 415.412C28.0908 374.215 30.2667 322.217 54.0355 271.215C77.7982 220.226 123.054 170.492 184.251 134.24C245.447 97.9876 310.808 82.1929 366.943 85.8513C423.093 89.5106 469.742 112.586 494.146 153.782Z" stroke="#FFF7B1" stroke-width="5"/>
<path d="M457.95 175.471C478.318 209.853 476.525 253.289 456.641 295.957C436.762 338.612 398.89 380.24 347.658 410.589C296.425 440.939 241.721 454.153 194.761 451.092C147.786 448.031 108.831 428.733 88.4636 394.351C68.0962 359.969 69.8883 316.533 89.7732 273.865C109.652 231.21 147.524 189.583 198.756 159.233C249.989 128.883 304.693 115.67 351.653 118.73C398.628 121.791 437.583 141.089 457.95 175.471Z" stroke="#FFF7B1" stroke-width="5"/>
<path d="M413.928 201.444C429.39 227.545 428.064 260.577 412.899 293.118C397.739 325.647 368.84 357.425 329.715 380.602C290.589 403.78 248.834 413.857 213.023 411.523C177.197 409.188 147.59 394.48 132.128 368.379C116.666 342.278 117.992 309.246 133.158 276.704C148.317 244.176 177.216 212.398 216.342 189.22C255.467 166.043 297.222 155.966 333.033 158.3C368.859 160.634 398.466 175.343 413.928 201.444Z" stroke="#FFF7B1" stroke-width="5"/>
</svg>
