<svg width="207" height="126" viewBox="0 0 207 126" fill="none" xmlns="http://www.w3.org/2000/svg">
<circle cx="107.968" cy="63.4967" r="52.8139" transform="rotate(6.12678 107.968 63.4967)" fill="#F89809"/>
<path d="M71.4234 48.6783L10.8254 55.8834C9.71477 56.0154 9.62556 57.5934 10.7143 57.8498L83.9307 75.0924C95.1658 77.7382 106.685 78.9846 118.226 78.8029L195.225 77.5911C196.327 77.5738 196.595 76.0479 195.565 75.6565L145.479 56.6276" stroke="#7594E3" stroke-width="3"/>
<path fill-rule="evenodd" clip-rule="evenodd" d="M160.481 69.1337C163.594 40.132 142.607 14.0978 113.605 10.9847C84.6033 7.87157 58.5691 28.8584 55.456 57.8601L160.481 69.1337Z" fill="#F89809"/>
<path d="M94.5212 21.2391C93.6709 20.1723 92.2513 19.7191 90.9358 20.0803C79.7088 23.1632 70.0492 30.8616 64.539 41.1176C63.8933 42.3194 64.0184 43.8044 64.8686 44.8712L65.8237 46.0697C67.0301 47.5834 69.4216 47.2291 70.1374 45.4307C74.1453 35.3601 83.1799 28.1598 93.891 26.4999C95.8037 26.2035 96.6827 23.9513 95.4763 22.4376L94.5212 21.2391Z" fill="#FFD89D"/>
</svg>
