<svg width="100" height="100" viewBox="0 0 100 100" fill="none" xmlns="http://www.w3.org/2000/svg">
<circle cx="50" cy="50" r="50" fill="#72D6D6"/>
<mask id="mask0_368_164" style="mask-type:alpha" maskUnits="userSpaceOnUse" x="0" y="0" width="100" height="100">
<circle cx="50" cy="50" r="50" fill="#58B4B4"/>
</mask>
<g mask="url(#mask0_368_164)">
<path fill-rule="evenodd" clip-rule="evenodd" d="M36.9406 22.8988L18.9125 16.2809C15.5759 15.056 13.864 11.3583 15.0888 8.02167C16.3137 4.68507 20.0114 2.97315 23.348 4.19797L41.3761 10.8159C45.7862 12.4348 50.3426 13.7173 55.1833 15.0799C55.5177 15.174 55.8534 15.2685 56.1905 15.3635C61.3125 16.8072 66.7327 18.3646 72.0268 20.4575C80.4504 23.7877 88.0287 28.5503 93.6383 33.9857C99.0827 39.2609 103.469 45.9729 103.644 53.2274C103.847 61.6065 100.369 68.0236 95.0747 72.8678C90.0423 77.4725 83.3578 80.6828 76.8041 83.3066C73.4714 84.6409 70.0004 85.8873 66.6157 87.0956C66.3992 87.1729 66.1832 87.25 65.9675 87.327C62.7722 88.4672 60.6337 89.7048 58.6535 92.6751C57.0308 95.1092 55.7698 97.3467 54.5622 99.3642C51.4453 104.571 45.4528 106.642 39.3844 106.642H34.9347C32.341 106.642 29.8087 105.852 27.6749 104.378L23.518 101.506C18.5698 98.0865 18.3045 90.8688 22.9884 87.0956C28.6743 82.618 41.9461 80.9663 48.7525 78.3186C51.9553 77.0728 58.4454 76.3448 61.6022 75.2185C61.8316 75.1366 62.0603 75.055 62.2883 74.9736C65.6922 73.7585 68.9452 72.5885 72.0202 71.3574C78.282 68.8505 87.5386 66.9253 90.7769 63.9622C93.7534 61.2388 90.8763 57.6561 90.7769 53.538C90.7202 51.1862 89.0802 47.4913 84.6817 43.2296C80.4485 39.1279 74.3677 35.2236 67.2946 32.4273C62.6862 30.6054 57.8532 29.205 52.6987 27.7521C52.3329 27.649 51.9653 27.5456 51.5959 27.4417C46.8572 26.1087 41.8401 24.6973 36.9406 22.8988Z" fill="#94FEFE" fill-opacity="0.5"/>
</g>
<path fill-rule="evenodd" clip-rule="evenodd" d="M61 98.7861C38.6777 93.7747 22 73.835 22 50C22 26.165 38.6777 6.22531 61 1.2139C57.4606 0.419301 53.7793 4.70153e-06 50 4.37114e-06C22.3858 1.95703e-06 6.78525e-06 22.3858 4.37114e-06 50C1.95703e-06 77.6142 22.3858 100 50 100C53.7793 100 57.4606 99.5807 61 98.7861Z" fill="#6AC4C4" fill-opacity="0.53"/>
</svg>
