<svg width="1440" height="4608" viewBox="0 0 1440 4608" fill="none" xmlns="http://www.w3.org/2000/svg">
<mask id="mask0_408_3" style="mask-type:alpha" maskUnits="userSpaceOnUse" x="-3" y="0" width="1440" height="4612">
<path d="M-3 0H1437V4612H-3V0Z" fill="#272057"/>
</mask>
<g mask="url(#mask0_408_3)">
<path d="M1351.97 3978.5C1365.8 3945.67 1399.51 3908.09 1406.2 3875.64C1408.43 3864.83 1403.33 3854.61 1394.13 3848.53C1375.06 3835.94 1341.45 3817.72 1334.66 3806.53C1306.06 3759.38 1321.05 3710.28 1357.55 3692.93L1476.61 3654.25C1488.79 3650.3 1501.86 3650.03 1514.19 3653.49C1539.2 3660.5 1557.62 3681.73 1561.03 3707.48L1568.88 3766.84C1573.2 3799.42 1567.09 3832.53 1551.44 3861.43L1515.13 3928.48C1508.7 3940.35 1505.75 3953.8 1506.62 3967.28C1508.93 4002.98 1484.63 4035.92 1448.95 4038.62C1407.58 4041.75 1379.6 4036.57 1363.22 4026.66C1347.33 4017.06 1344.76 3995.61 1351.97 3978.5Z" fill="#4B7FE2" fill-opacity="0.29"/>
<path d="M1394.04 3659.97C1383.27 3634.5 1399.46 3614.96 1411.87 3607.01L1413 3606.67C1433.59 3600.44 1455.95 3605.67 1471.65 3620.38L1477.51 3625.88C1488.19 3635.89 1503.08 3640.06 1517.4 3637.04C1524.63 3635.52 1532.12 3635.81 1539.21 3637.89L1544.94 3639.56C1551.36 3641.44 1556 3647.04 1556.64 3653.7L1558.21 3669.91C1558.8 3676.03 1557.86 3682.19 1555.47 3687.85L1552.32 3695.34C1548.65 3704.04 1550.36 3714.08 1556.7 3721.08C1572.31 3738.29 1557.15 3765.48 1534.31 3761.26L1503.04 3755.49C1492.66 3753.58 1482 3756.77 1474.39 3764.08C1464.95 3773.14 1451.03 3775.71 1438.97 3770.63L1433.34 3768.26C1419.5 3762.43 1412.22 3753.08 1408.71 3744.57C1404.79 3735.08 1410.8 3721.61 1412.83 3711.56C1416.84 3691.78 1401.89 3678.55 1394.04 3659.97Z" fill="#B995F4" fill-opacity="0.27"/>
<path d="M1453.95 3886.9C1471.15 3849 1492.08 3808.36 1509.3 3784.3C1522.68 3765.61 1540.5 3774.51 1537.7 3797.32C1535.61 3814.3 1530.08 3839.37 1517.72 3876.13C1515.45 3882.9 1513.57 3890.43 1516.65 3896.88C1524.03 3912.36 1544.44 3901.91 1536.89 3920.32C1524.92 3949.52 1502.91 3985.47 1487.04 4009.81C1475.17 4028 1456.91 4040.89 1436.05 4046.95L1429.47 4048.87C1420.95 4051.34 1413.05 4055.56 1406.25 4061.26L1397.93 4068.24C1386.9 4077.5 1372 4080.67 1358.15 4076.72L1356.77 4076.33C1333.31 4069.63 1320.46 4044.44 1328.81 4021.51L1331.88 4013.09C1337.62 3997.33 1340.42 3978.53 1355.74 3971.68C1368.5 3965.98 1385.15 3968.25 1396.85 3960.6C1407.22 3953.82 1418.51 3942.16 1428.07 3930.73C1439.01 3917.65 1446.9 3902.42 1453.95 3886.9Z" fill="#B995F4" fill-opacity="0.27"/>
<circle cx="1414.24" cy="3741" r="5.17084" transform="rotate(-160.616 1414.24 3741)" fill="#FFF7B1"/>
<circle cx="1310.7" cy="3994.41" r="3.23178" transform="rotate(-160.616 1310.7 3994.41)" fill="#FFF7B1"/>
<circle cx="1355.24" cy="4045.03" r="2.58542" transform="rotate(-160.616 1355.24 4045.03)" fill="#FFF7B1"/>
<circle cx="1331.9" cy="3738.41" r="10.0185" transform="rotate(-160.616 1331.9 3738.41)" fill="#FFF7B1"/>
<line x1="1275.93" y1="4004.79" x2="1279.58" y2="3994.43" stroke="#FFF7B1" stroke-width="3"/>
<path d="M1283.49 4001.62L1273.13 3997.98" stroke="#FFF7B1" stroke-width="3"/>
<line x1="1317.75" y1="3763.24" x2="1321.4" y2="3752.88" stroke="#FFF7B1" stroke-width="3"/>
<path d="M1325.31 3760.08L1314.94 3756.43" stroke="#FFF7B1" stroke-width="3"/>
<line x1="1396.87" y1="4062.41" x2="1399.44" y2="4055.1" stroke="#FFF7B1" stroke-width="3"/>
<path d="M1402.62 4060.32L1395.3 4057.75" stroke="#FFF7B1" stroke-width="3"/>
<path d="M1390.67 3997.88L1390.88 3991.95L1386.13 3988.4L1392.05 3988.61L1395.6 3983.86L1395.4 3989.79L1400.15 3993.34L1394.22 3993.13L1390.67 3997.88Z" fill="#FFF7B1"/>
<path d="M1325.51 3871.49L1325.86 3861.44L1317.8 3855.42L1327.86 3855.77L1333.87 3847.71L1333.52 3857.76L1341.58 3863.78L1331.53 3863.43L1325.51 3871.49Z" fill="#FFF7B1"/>
<path d="M94.611 4385.35C108.941 4333.41 146.061 4339.12 162.829 4348.46L163.659 4349.29C178.869 4364.49 184.823 4386.64 179.281 4407.41L177.212 4415.17C173.443 4429.3 176.806 4444.38 186.223 4455.57C190.975 4461.22 194.259 4467.95 195.782 4475.17L197.013 4481C198.394 4487.55 195.652 4494.27 190.089 4497.99L176.553 4507.02C171.449 4510.43 165.578 4512.51 159.468 4513.09L151.388 4513.84C141.992 4514.73 133.96 4520.97 130.795 4529.86C123.01 4551.73 91.9089 4551.23 84.831 4529.12L75.1443 4498.87C71.9308 4488.83 64.0829 4480.95 54.0576 4477.7C41.621 4473.67 32.775 4462.62 31.5545 4449.61L30.9849 4443.53C30.7092 4440.59 30.6733 4437.81 30.838 4435.18C32.5796 4407.44 70.0056 4405.53 91.6156 4388.04C92.814 4387.07 93.8188 4386.15 94.611 4385.35Z" fill="#7D59B8" fill-opacity="0.27"/>
<path d="M-24.4261 4545.83C-26.9925 4506.64 -14.3072 4437.73 16.3648 4432.25L99.095 4429.15C108.66 4428.79 118.101 4431.4 126.124 4436.62C140.862 4446.21 148.91 4463.31 146.907 4480.78L141.868 4524.71C139.101 4548.83 128.95 4571.52 112.802 4589.65L79.2668 4627.32C73.124 4634.21 69.0101 4642.68 67.3805 4651.77C62.8338 4677.14 39.5253 4695.71 14.4383 4689.81C-12.9377 4683.36 -29.7528 4673.74 -37.9274 4663.25C-45.1206 4654.02 -43.0258 4641.23 -39.908 4629.95C-34.9366 4611.96 -28.4744 4595.47 -24.6352 4576.53C-22.5937 4566.46 -23.7547 4556.09 -24.4261 4545.83Z" fill="#3974E4" fill-opacity="0.29"/>
<path d="M141.891 4438.02L147.94 4433.83L147.945 4426.47L152.135 4432.52L159.493 4432.53L153.444 4436.72L153.439 4444.08L149.249 4438.03L141.891 4438.02Z" fill="#FFF7B1"/>
<path d="M39.6903 4386.45L45.7396 4382.26L45.7446 4374.9L49.9342 4380.95L57.2926 4380.95L51.2433 4385.14L51.2384 4392.5L47.0488 4386.45L39.6903 4386.45Z" fill="#FFF7B1"/>
<path d="M104.156 4594.58L110.205 4590.39L110.21 4583.03L114.4 4589.08L121.758 4589.08L115.709 4593.27L115.704 4600.63L111.515 4594.58L104.156 4594.58Z" fill="#FFF7B1"/>
<line x1="170.665" y1="4349.45" x2="183.675" y2="4345.39" stroke="#FFF7B1" stroke-width="3"/>
<path d="M179.309 4354.27L175.248 4341.26" stroke="#FFF7B1" stroke-width="3"/>
<circle cx="191.212" cy="4457.32" r="5.16656" transform="rotate(-107.334 191.212 4457.32)" fill="#FFF7B1"/>
<circle cx="178.663" cy="4483.22" r="2.90619" transform="rotate(-107.334 178.663 4483.22)" fill="#FFF7B1"/>
<circle cx="28.2345" cy="4412.03" r="2.90619" transform="rotate(-107.334 28.2345 4412.03)" fill="#FFF7B1"/>
<path d="M1205.88 3145.33C1171.47 3152.13 1147.69 3130.28 1136.74 3111.67C1134.96 3108.66 1133.92 3105.31 1133.29 3101.87C1127.69 3071.22 1138.85 3039.91 1162.58 3019.72L1174.67 3009.43C1191.92 2994.76 1200.92 2972.59 1198.78 2950.05L1198.04 2942.33C1197.45 2936.02 1198.42 2929.66 1200.87 2923.81C1208.84 2904.8 1227.58 2892.56 1248.2 2892.9L1255.44 2893.02C1265.58 2893.18 1275.51 2895.87 1284.36 2900.84L1294.47 2906.51C1307.21 2913.66 1322.94 2912.78 1334.8 2904.25C1363.98 2883.25 1403.14 2911.28 1392.69 2945.67L1378.37 2992.74C1373.62 3008.35 1376.68 3025.3 1386.58 3038.27C1398.87 3054.36 1400.41 3076.21 1390.5 3093.87L1385.87 3102.1C1372.59 3125.77 1353.49 3134.84 1338.45 3137.38C1327.26 3139.26 1313.1 3131.02 1302.66 3126.57C1269.79 3112.58 1240.94 3138.4 1205.88 3145.33Z" fill="#7D59B8" fill-opacity="0.27"/>
<path d="M1550.76 3013.22C1522.82 3065.15 1440.58 3150.35 1394.55 3129.35L1286.47 3060.43C1273.97 3052.46 1264.24 3040.83 1258.62 3027.11C1248.3 3001.92 1253.11 2973.05 1271.05 2952.57L1316.16 2901.06C1340.93 2872.77 1373.84 2852.83 1410.37 2843.95L1486.25 2825.52C1500.15 2822.15 1512.85 2814.99 1522.93 2804.85C1551.07 2776.54 1597.11 2773.42 1623.85 2803.04C1653.04 2835.36 1665.99 2862.41 1667.15 2882.98C1668.18 2901.07 1654.25 2915.51 1640.35 2927.13C1616.09 2947.4 1591.14 2963.82 1567.8 2987.71C1560.62 2995.06 1555.63 3004.17 1550.76 3013.22Z" fill="#3974E4" fill-opacity="0.29"/>
<path d="M1239.78 3011.44L1228.38 3011.45L1221.9 3020.81L1221.89 3009.42L1212.52 3002.93L1223.92 3002.92L1230.4 2993.56L1230.41 3004.95L1239.78 3011.44Z" fill="#FFF7B1"/>
<path d="M1324.51 3167.13L1313.11 3167.14L1306.63 3176.51L1306.62 3165.12L1297.25 3158.63L1308.65 3158.62L1315.13 3149.25L1315.14 3160.65L1324.51 3167.13Z" fill="#FFF7B1"/>
<path d="M1425.72 2845.29L1414.33 2845.3L1407.84 2854.67L1407.84 2843.27L1398.47 2836.79L1409.86 2836.78L1416.35 2827.41L1416.36 2838.81L1425.72 2845.29Z" fill="#FFF7B1"/>
<line x1="1423.14" y1="2793.17" x2="1402.99" y2="2786.88" stroke="#FFF7B1" stroke-width="3"/>
<path d="M1416.13 2780.2L1409.84 2800.35" stroke="#FFF7B1" stroke-width="3"/>
<line x1="1125.37" y1="3098.11" x2="1105.22" y2="3091.83" stroke="#FFF7B1" stroke-width="3"/>
<path d="M1118.36 3085.14L1112.07 3105.29" stroke="#FFF7B1" stroke-width="3"/>
<circle cx="1193.96" cy="2943.42" r="8" transform="rotate(107.334 1193.96 2943.42)" fill="#FFF7B1"/>
<circle cx="1232.76" cy="2921.49" r="4.5" transform="rotate(107.334 1232.76 2921.49)" fill="#FFF7B1"/>
<circle cx="1361.64" cy="3144.64" r="4.5" transform="rotate(107.334 1361.64 3144.64)" fill="#FFF7B1"/>
<path d="M-45.0149 1982.31C-115.174 1937.17 -89.612 1884.94 -68.0609 1864.46L-66.4513 1863.62C-36.9745 1848.15 -1.48513 1849.57 26.6629 1867.34L37.1733 1873.98C56.319 1886.07 80.1602 1888.05 101.042 1879.3C111.58 1874.88 123.047 1873.13 134.423 1874.21L143.615 1875.08C153.925 1876.06 162.601 1883.21 165.524 1893.15L172.636 1917.33C175.317 1926.44 175.689 1936.08 173.717 1945.38L171.109 1957.67C168.077 1971.96 173.607 1986.72 185.287 1995.5C214.02 2017.09 198.933 2062.83 162.989 2063.1L113.796 2063.46C97.4774 2063.57 82.213 2071.54 72.7821 2084.86C61.0831 2101.38 40.6781 2109.36 20.8744 2105.16L11.632 2103.2C-2.26309 2100.25 -12.8167 2094.59 -20.7094 2087.92C-41.9406 2069.97 -33.3779 2038.03 -36.8044 2010.44C-38.3538 1997.96 -42.0714 1987.82 -45.0149 1982.31Z" fill="#7D59B8" fill-opacity="0.27"/>
<path d="M152.911 2768.66C55.0857 2827.44 -172.511 2699.04 -45.4994 2458L0.431512 1982.94C3.92309 1946.83 38.2233 1921.91 73.6473 1929.75C77.5626 1930.62 81.3819 1931.87 85.0487 1933.49L178.574 1974.89C215.692 1991.32 246.828 2018.82 267.725 2053.61L305.559 2116.62C312.923 2128.88 323.536 2138.87 336.224 2145.47C371.625 2163.89 387.502 2206.38 368.803 2241.64C360.594 2257.11 351.914 2272.24 342.952 2287.01C284.225 2383.78 334.849 2503.78 332.532 2616.95C331.88 2648.76 314.713 2674.25 279.356 2687.44C234.567 2704.15 193.885 2744.03 152.911 2768.66Z" fill="#3974E4" fill-opacity="0.29"/>
<path d="M-22.932 2424.75C-60.7476 2337.37 -27.6194 2232.95 8.98652 2188.52C24.3973 2169.82 50.3032 2172.41 72.4043 2182.35L142.467 2213.86C182.132 2231.69 205.14 2273.69 198.821 2316.72L193.205 2354.96C188.805 2384.93 208.713 2413.07 238.433 2418.89C253.348 2421.81 266.466 2430.6 274.85 2443.27L316.47 2506.2C320.336 2512.05 321.361 2519.33 319.259 2526.01L309.499 2557.07C302.54 2579.21 282.014 2594.28 258.802 2594.28C242.56 2594.28 227.211 2601.7 217.132 2614.44L180.171 2661.14C144.079 2706.74 87.8131 2731.6 29.7963 2727.57L-44.3816 2722.43C-57.6153 2721.51 -69.986 2715.53 -78.9218 2705.73L-92.907 2690.38C-121.456 2659.06 -94.1526 2609.35 -52.4026 2616.63C-73.3057 2595.13 -81.0721 2572.42 -82.4208 2553.1C-84.3568 2525.36 -61.4549 2504.71 -45.5976 2481.87C-30.3562 2459.92 -24.1379 2436.8 -22.932 2424.75Z" fill="#7D59B8" fill-opacity="0.27"/>
<path d="M54.654 1936.72L51.252 1925.85L40.3778 1922.45L51.252 1919.04L54.654 1908.17L58.0559 1919.04L68.9302 1922.45L58.0559 1925.85L54.654 1936.72Z" fill="#FFF7B1"/>
<path d="M332 2476L326.043 2456.95L307 2451L326.043 2445.04L332 2426L337.957 2445.04L357 2451L337.957 2456.95L332 2476Z" fill="#FFF7B1"/>
<path d="M268.654 2064.72L265.252 2053.85L254.378 2050.45L265.252 2047.04L268.654 2036.17L272.056 2047.04L282.93 2050.45L272.056 2053.85L268.654 2064.72Z" fill="#FFF7B1"/>
<path d="M90.276 2739.55L86.8741 2728.68L75.9999 2725.27L86.8741 2721.87L90.276 2711L93.678 2721.87L104.552 2725.27L93.678 2728.68L90.276 2739.55Z" fill="#FFF7B1"/>
<line x1="317.637" y1="2046.72" x2="317.637" y2="2025.62" stroke="#FFF7B1" stroke-width="3"/>
<path d="M327.93 2036.17L306.826 2036.17" stroke="#FFF7B1" stroke-width="3"/>
<line x1="296.811" y1="2265.1" x2="296.811" y2="2244" stroke="#FFF7B1" stroke-width="3"/>
<path d="M307.104 2254.55L286 2254.55" stroke="#FFF7B1" stroke-width="3"/>
<circle cx="105.93" cy="1872.72" r="8" transform="rotate(180 105.93 1872.72)" fill="#FFF7B1"/>
<circle cx="138.43" cy="1903.22" r="4.5" transform="rotate(180 138.43 1903.22)" fill="#FFF7B1"/>
<path d="M102.31 477.008C106.298 548.995 55.1419 656.166 73.5761 722.691C76.5224 733.324 84.2295 741.657 94.7718 744.912C131.417 756.225 216.652 768.132 237.613 785.336C316.266 849.895 320.243 944.527 267.345 997.074L83.7959 1137.29C65.0274 1151.63 42.4391 1160.1 18.8708 1161.63C-28.9459 1164.75 -74.0179 1139.07 -95.7147 1096.34L-159.013 971.699C-177.838 934.628 -184.452 892.553 -177.909 851.495L-151.151 683.6C-147.231 658.998 -150.333 633.788 -160.103 610.871C-185.986 550.153 -163.859 477.932 -103.424 451.394C-19.3545 414.478 38.4797 410.164 71.7425 425.77C90.9164 434.765 101.139 455.861 102.31 477.008Z" fill="#4B7FE2" fill-opacity="0.29"/>
<path d="M177.434 1044.95C268.145 1085.81 247.212 1151.93 225.406 1179.88L223.657 1181.16C191.621 1204.6 149.514 1209.19 113.18 1193.2L99.6134 1187.22C74.8997 1176.34 46.431 1178.21 23.3482 1192.22C11.699 1199.29 -1.51691 1203.37 -15.1249 1204.11L-26.1191 1204.7C-38.4515 1205.37 -49.9469 1198.46 -55.1468 1187.26L-67.7999 1160C-72.5708 1149.72 -74.7098 1138.42 -74.0241 1127.11L-73.1172 1112.15C-72.0629 1094.75 -81.1885 1078.33 -96.5129 1070.03C-134.212 1049.63 -124.487 993.024 -82.1407 986.372L-24.186 977.27C-4.9602 974.25 11.6373 962.162 20.4104 944.79C31.2935 923.24 53.9513 910.228 78.0492 911.689L89.2957 912.371C110.038 913.628 125.569 920.584 136.818 929.325C158.773 946.385 155.331 978.066 160.879 1005.31C164.586 1023.52 172.207 1037.92 177.434 1044.95Z" fill="#B995F4" fill-opacity="0.27"/>
<path d="M-18.9976 716.053C-27.0415 808.703 -42.185 912.382 -62.4638 958.74C-71.6739 979.794 -94.6046 975.639 -102.273 953.975C-112.224 925.86 -122.854 871.528 -123.719 767.267C-123.779 760.125 -124.941 752.698 -128.79 746.682C-151.463 711.245 -186.061 750.986 -184.034 711.122C-180.993 651.314 -163.845 572.581 -150.988 520.456C-142.085 484.367 -119.947 453.232 -89.7195 431.598L-75.7833 421.624C-62.4808 412.103 -51.3076 399.915 -42.9756 385.838L-32.7695 368.593C-19.239 345.732 4.75404 331.075 31.2708 329.472L64.8017 327.445C93.0493 325.737 116.812 348.358 116.497 376.655L116.155 407.367C115.687 449.373 119.549 498.268 85.3107 522.609C73.2567 531.178 57.5155 533.266 46.3407 542.954C27.5331 559.259 10.3729 595.468 -1.87424 628.684C-12.1913 656.665 -16.4181 686.343 -18.9976 716.053Z" fill="#B995F4" fill-opacity="0.27"/>
<circle cx="139.229" cy="948.117" r="9.54026" fill="#FFF7B1"/>
<circle cx="164.272" cy="443.675" r="5.96266" fill="#FFF7B1"/>
<circle cx="9.2426" cy="830.056" r="7.1552" fill="#FFF7B1"/>
<circle cx="55.7516" cy="382.856" r="4.77013" fill="#FFF7B1"/>
<circle cx="195.263" cy="842.925" r="18.4843" fill="#FFF7B1"/>
<line x1="217.15" y1="404.322" x2="217.15" y2="424.595" stroke="#FFF7B1" stroke-width="3"/>
<path d="M207.203 414.458L227.476 414.458" stroke="#FFF7B1" stroke-width="3"/>
<line x1="292.28" y1="850.329" x2="292.28" y2="870.602" stroke="#FFF7B1" stroke-width="3"/>
<path d="M282.333 860.466L302.606 860.466" stroke="#FFF7B1" stroke-width="3"/>
<path d="M7.45387 957.657L14.4161 979.912L36.6709 986.874L14.4161 993.836L7.45387 1016.09L0.491592 993.836L-21.7632 986.874L0.491592 979.912L7.45387 957.657Z" fill="#FFF7B1"/>
<path d="M22.9566 486.606L26.2246 497.053L36.6707 500.321L26.2246 503.589L22.9566 514.035L19.6886 503.589L9.24243 500.321L19.6886 497.053L22.9566 486.606Z" fill="#FFF7B1"/>
<path d="M213.762 666.679L219.304 684.392L237.017 689.933L219.304 695.475L213.762 713.188L208.221 695.475L190.508 689.933L208.221 684.392L213.762 666.679Z" fill="#FFF7B1"/>
<circle cx="139.229" cy="948.117" r="9.54026" fill="#FFF7B1"/>
<circle cx="164.272" cy="443.675" r="5.96266" fill="#FFF7B1"/>
<circle cx="9.2426" cy="830.056" r="7.1552" fill="#FFF7B1"/>
<circle cx="55.7516" cy="382.856" r="4.77013" fill="#FFF7B1"/>
<circle cx="195.263" cy="842.925" r="18.4843" fill="#FFF7B1"/>
<line x1="217.15" y1="404.322" x2="217.15" y2="424.595" stroke="#FFF7B1" stroke-width="3"/>
<path d="M207.203 414.458L227.476 414.458" stroke="#FFF7B1" stroke-width="3"/>
<line x1="292.28" y1="850.329" x2="292.28" y2="870.602" stroke="#FFF7B1" stroke-width="3"/>
<path d="M282.333 860.466L302.606 860.466" stroke="#FFF7B1" stroke-width="3"/>
<path d="M7.45387 957.657L14.4161 979.912L36.6709 986.874L14.4161 993.836L7.45387 1016.09L0.491592 993.836L-21.7632 986.874L0.491592 979.912L7.45387 957.657Z" fill="#FFF7B1"/>
<path d="M22.9566 486.606L26.2246 497.053L36.6707 500.321L26.2246 503.589L22.9566 514.035L19.6886 503.589L9.24243 500.321L19.6886 497.053L22.9566 486.606Z" fill="#FFF7B1"/>
<path d="M213.762 666.679L219.304 684.392L237.017 689.933L219.304 695.475L213.762 713.188L208.221 695.475L190.508 689.933L208.221 684.392L213.762 666.679Z" fill="#FFF7B1"/>
<path d="M1504.94 99.4147C1575.1 144.557 1549.54 196.789 1527.99 217.263L1526.38 218.107C1496.9 233.579 1461.41 232.16 1433.27 214.386L1422.76 207.749C1403.61 195.659 1379.77 193.674 1358.89 202.431C1348.35 206.851 1336.88 208.598 1325.51 207.519L1316.31 206.647C1306 205.669 1297.33 198.513 1294.41 188.578L1287.29 164.401C1284.61 155.286 1284.24 145.646 1286.21 136.351L1288.82 124.057C1291.85 109.764 1286.32 95.0087 1274.64 86.2296C1245.91 64.6325 1261 18.8935 1296.94 18.631L1346.13 18.2717C1362.45 18.1526 1377.72 10.1868 1387.15 -3.13179C1398.85 -19.6535 1419.25 -27.6339 1439.06 -23.4328L1448.3 -21.4721C1462.19 -18.5245 1472.75 -12.866 1480.64 -6.19229C1501.87 11.76 1493.31 43.6973 1496.73 71.2891C1498.28 83.7657 1502 93.9076 1504.94 99.4147Z" fill="#7D59B8" fill-opacity="0.27"/>
<path d="M1314.32 -152.389C1372.22 -141.189 1478.06 -88.0646 1471.72 -37.8757L1438.14 85.8372C1434.25 100.14 1426.04 112.892 1414.62 122.342C1393.65 139.703 1364.66 143.709 1339.77 132.689L1277.15 104.975C1242.77 89.7558 1213.93 64.2876 1194.57 32.0531L1154.37 -34.8912C1147.01 -47.1535 1136.39 -57.139 1123.71 -63.7424C1088.31 -82.1665 1071.6 -125.188 1091.91 -159.542C1114.07 -197.032 1136.04 -217.452 1155.32 -224.694C1172.29 -231.066 1190.22 -222.072 1205.45 -212.259C1232.03 -195.142 1255.14 -176.214 1284.9 -161.053C1294.06 -156.388 1304.23 -154.34 1314.32 -152.389Z" fill="#3974E4" fill-opacity="0.29"/>
<path d="M1405.28 145L1408.68 155.874L1419.55 159.276L1408.68 162.678L1405.28 173.552L1401.87 162.678L1391 159.276L1401.87 155.874L1405.28 145Z" fill="#FFF7B1"/>
<path d="M1191.28 17L1194.68 27.8743L1205.55 31.2762L1194.68 34.6781L1191.28 45.5524L1187.87 34.6781L1177 31.2762L1187.87 27.8743L1191.28 17Z" fill="#FFF7B1"/>
<line x1="1142.29" y1="35.0001" x2="1142.29" y2="56.1041" stroke="#FFF7B1" stroke-width="3"/>
<path d="M1132 45.5521L1153.1 45.5521" stroke="#FFF7B1" stroke-width="3"/>
<circle cx="1354" cy="209" r="8" fill="#FFF7B1"/>
<circle cx="1321.5" cy="178.5" r="4.5" fill="#FFF7B1"/>
</g>
<g clip-path="url(#clip0_408_3)">
<path d="M1333.71 1748.51C1330.6 1750.3 1329.53 1754.28 1331.33 1757.39C1333.12 1760.5 1337.1 1761.56 1340.21 1759.77L1333.71 1748.51ZM1340.21 1759.77L1390.68 1730.63L1384.18 1719.37L1333.71 1748.51L1340.21 1759.77Z" fill="url(#paint0_linear_408_3)"/>
<path d="M1318.75 1804.29C1315.64 1806.09 1314.58 1810.06 1316.37 1813.17C1318.17 1816.28 1322.14 1817.34 1325.25 1815.55L1318.75 1804.29ZM1325.25 1815.55L1375.72 1786.41L1369.22 1775.15L1318.75 1804.29L1325.25 1815.55Z" fill="url(#paint1_linear_408_3)"/>
<path d="M1397.28 1783.72C1394.17 1785.52 1393.11 1789.49 1394.9 1792.6C1396.7 1795.71 1400.67 1796.78 1403.78 1794.98L1397.28 1783.72ZM1403.78 1794.98L1454.25 1765.84L1447.75 1754.59L1397.28 1783.72L1403.78 1794.98Z" fill="url(#paint2_linear_408_3)"/>
<path d="M1340.48 1848.06C1337.37 1849.85 1336.3 1853.83 1338.1 1856.94C1339.89 1860.05 1343.87 1861.11 1346.98 1859.32L1340.48 1848.06ZM1346.98 1859.32L1396.66 1830.63L1390.16 1819.37L1340.48 1848.06L1346.98 1859.32Z" fill="url(#paint3_linear_408_3)"/>
<path d="M1325.75 1902.98C1322.64 1904.77 1321.58 1908.75 1323.37 1911.85C1325.17 1914.96 1329.14 1916.03 1332.25 1914.23L1325.75 1902.98ZM1332.25 1914.23L1381.94 1885.55L1375.44 1874.29L1325.75 1902.98L1332.25 1914.23Z" fill="url(#paint4_linear_408_3)"/>
<path d="M1403.06 1882.73C1399.96 1884.52 1398.89 1888.5 1400.68 1891.61C1402.48 1894.71 1406.46 1895.78 1409.56 1893.98L1403.06 1882.73ZM1409.56 1893.98L1459.25 1865.3L1452.75 1854.04L1403.06 1882.73L1409.56 1893.98Z" fill="url(#paint5_linear_408_3)"/>
</g>
<g clip-path="url(#clip1_408_3)">
<path d="M157.32 4100.12C155.107 4101.4 154.348 4104.25 155.626 4106.48C156.904 4108.7 159.735 4109.46 161.948 4108.18L157.32 4100.12ZM161.948 4108.18L197.882 4087.32L193.254 4079.27L157.32 4100.12L161.948 4108.18Z" fill="url(#paint6_linear_408_3)"/>
<path d="M146.67 4140.05C144.457 4141.33 143.698 4144.18 144.976 4146.4C146.254 4148.63 149.085 4149.39 151.298 4148.1L146.67 4140.05ZM151.298 4148.1L187.232 4127.25L182.604 4119.19L146.67 4140.05L151.298 4148.1Z" fill="url(#paint7_linear_408_3)"/>
<path d="M202.585 4125.32C200.371 4126.61 199.613 4129.45 200.891 4131.68C202.169 4133.9 204.999 4134.67 207.213 4133.38L202.585 4125.32ZM207.213 4133.38L243.146 4112.53L238.518 4104.47L202.585 4125.32L207.213 4133.38Z" fill="url(#paint8_linear_408_3)"/>
<path d="M162.139 4171.37C159.925 4172.66 159.167 4175.5 160.445 4177.73C161.723 4179.95 164.553 4180.71 166.767 4179.43L162.139 4171.37ZM166.767 4179.43L202.143 4158.9L197.515 4150.84L162.139 4171.37L166.767 4179.43Z" fill="url(#paint9_linear_408_3)"/>
<path d="M151.654 4210.68C149.441 4211.96 148.682 4214.81 149.96 4217.03C151.238 4219.26 154.069 4220.02 156.282 4218.74L151.654 4210.68ZM156.282 4218.74L191.658 4198.2L187.03 4190.15L151.654 4210.68L156.282 4218.74Z" fill="url(#paint10_linear_408_3)"/>
<path d="M206.702 4196.18C204.488 4197.47 203.73 4200.31 205.008 4202.54C206.285 4204.76 209.116 4205.53 211.33 4204.24L206.702 4196.18ZM211.33 4204.24L246.706 4183.71L242.078 4175.65L206.702 4196.18L211.33 4204.24Z" fill="url(#paint11_linear_408_3)"/>
</g>
<path d="M1258.69 1569.97C1268.54 1575.23 1280.8 1571.5 1286.06 1561.64C1291.31 1551.79 1287.59 1539.53 1277.73 1534.28C1267.88 1529.02 1255.62 1532.74 1250.36 1542.6C1245.1 1552.45 1248.83 1564.71 1258.69 1569.97Z" fill="#FF9E67"/>
<mask id="mask1_408_3" style="mask-type:alpha" maskUnits="userSpaceOnUse" x="1247" y="1531" width="42" height="42">
<path d="M1258.69 1569.97C1268.54 1575.23 1280.8 1571.5 1286.06 1561.64C1291.31 1551.79 1287.59 1539.53 1277.73 1534.28C1267.88 1529.02 1255.62 1532.74 1250.36 1542.6C1245.1 1552.45 1248.83 1564.71 1258.69 1569.97Z" fill="#FF9E67"/>
</mask>
<g mask="url(#mask1_408_3)">
<path d="M1291.71 1551.87C1295.73 1539.34 1277.95 1529.53 1269.51 1527.65C1268.85 1527.5 1268.29 1528.09 1268.41 1528.76L1270.41 1539.73C1270.6 1540.77 1269.24 1541.35 1268.61 1540.49L1265.88 1536.72C1265.24 1535.83 1263.83 1536.49 1264.1 1537.56L1264.73 1540.03C1265.03 1541.21 1263.37 1541.8 1262.86 1540.7L1259.9 1534.34C1259.47 1533.42 1258.09 1533.66 1258 1534.68L1256.8 1547.94C1256.7 1549.03 1258.16 1549.46 1258.68 1548.5L1260.59 1544.92C1260.92 1544.29 1261.8 1544.21 1262.25 1544.77L1276.3 1562.33C1277.04 1563.26 1278.49 1562.35 1277.98 1561.28L1270.46 1545.42C1272.51 1549.46 1283.32 1559.02 1284.43 1560.26C1284.5 1560.34 1284.56 1560.44 1284.62 1560.52C1288.97 1566.48 1290.15 1556.44 1291.71 1551.87Z" fill="url(#paint12_radial_408_3)"/>
</g>
<mask id="mask2_408_3" style="mask-type:alpha" maskUnits="userSpaceOnUse" x="1248" y="1531" width="41" height="42">
<path d="M1268.06 1531.76C1256.9 1532.14 1248.15 1541.49 1248.52 1552.66C1248.9 1563.82 1258.25 1572.57 1269.42 1572.2C1280.58 1571.82 1289.33 1562.47 1288.96 1551.3C1288.58 1540.14 1279.23 1531.39 1268.06 1531.76Z" fill="#FF9E67"/>
</mask>
<g mask="url(#mask2_408_3)">
<path d="M1248.88 1563.26C1251.55 1575.6 1270.35 1575.74 1279.15 1573.44C1280.02 1573.21 1280.04 1572.1 1279.2 1571.77L1272.66 1569.18C1271.62 1568.77 1272.06 1567.21 1273.16 1567.4C1274.09 1567.57 1274.64 1566.41 1273.93 1565.79L1272.56 1564.61C1271.84 1563.99 1272.62 1562.85 1273.46 1563.3C1274.29 1563.74 1275.07 1562.65 1274.39 1562.01L1271.39 1559.21C1271.24 1559.06 1271.05 1558.97 1270.84 1558.94L1267.86 1558.55L1262.47 1557.63C1261.42 1557.46 1260.86 1558.82 1261.72 1559.43L1268.07 1563.95C1264.3 1561.5 1253.71 1560.31 1252.31 1559.93C1252.21 1559.9 1252.11 1559.85 1252.01 1559.81C1245.25 1556.71 1247.95 1558.52 1248.88 1563.26Z" fill="url(#paint13_radial_408_3)"/>
</g>
<path d="M1250.67 1542.76C1250.67 1542.76 1218.41 1525.55 1236.12 1540.29C1253.83 1555.03 1275.45 1566.57 1295.84 1572.15C1316.22 1577.74 1286.06 1561.64 1286.06 1561.64" stroke="#7FBCF5" stroke-width="2"/>
<path d="M1373.48 1511.6C1384.18 1511.05 1392.41 1501.92 1391.86 1491.22C1391.3 1480.52 1382.18 1472.29 1371.47 1472.84C1360.77 1473.4 1352.54 1482.52 1353.1 1493.23C1353.65 1503.93 1362.77 1512.16 1373.48 1511.6Z" fill="#75E3B5"/>
<mask id="mask3_408_3" style="mask-type:alpha" maskUnits="userSpaceOnUse" x="1353" y="1472" width="39" height="40">
<path d="M1373.48 1511.6C1384.18 1511.05 1392.41 1501.92 1391.86 1491.22C1391.3 1480.52 1382.18 1472.29 1371.47 1472.84C1360.77 1473.4 1352.54 1482.52 1353.1 1493.23C1353.65 1503.93 1362.77 1512.16 1373.48 1511.6Z" fill="#FF9E67"/>
</mask>
<g mask="url(#mask3_408_3)">
<path d="M1391.67 1480.39C1388.78 1468.12 1369.39 1468.83 1361.49 1471.45C1360.85 1471.66 1360.67 1472.45 1361.12 1472.96L1368.03 1480.81C1368.73 1481.61 1367.87 1482.81 1366.89 1482.39L1363.14 1480.8C1362.12 1480.37 1361.26 1481.66 1362.05 1482.43L1363.33 1483.7C1364.19 1484.55 1363.07 1485.92 1362.07 1485.24L1356.97 1481.81C1356.13 1481.24 1355.07 1482.15 1355.51 1483.07L1360.94 1494.25C1361.42 1495.23 1362.9 1494.85 1362.84 1493.76L1362.65 1490.14C1362.61 1489.42 1363.32 1488.9 1364 1489.15L1383.85 1496.49C1384.96 1496.9 1385.74 1495.38 1384.75 1494.72L1371.01 1485.6C1374.69 1487.9 1388.27 1490.41 1389.83 1490.89C1389.93 1490.92 1390.03 1490.97 1390.13 1491.01C1396.64 1493.74 1392.64 1484.92 1391.67 1480.39Z" fill="url(#paint14_radial_408_3)"/>
</g>
<mask id="mask4_408_3" style="mask-type:alpha" maskUnits="userSpaceOnUse" x="1353" y="1472" width="40" height="40">
<path d="M1362.28 1475.56C1353.29 1481.39 1350.73 1493.41 1356.56 1502.4C1362.39 1511.39 1374.41 1513.96 1383.4 1508.13C1392.39 1502.29 1394.96 1490.28 1389.12 1481.28C1383.29 1472.29 1371.28 1469.73 1362.28 1475.56Z" fill="#FF9E67"/>
</mask>
<g mask="url(#mask4_408_3)">
<path d="M1362.1 1510.94C1370.37 1519.73 1385.8 1510.65 1391.95 1504.4C1392.58 1503.76 1392.02 1502.8 1391.13 1502.95L1384.57 1504.04C1383.51 1504.22 1383.1 1502.72 1384.11 1502.34C1384.95 1502.01 1384.83 1500.78 1383.94 1500.63L1382.24 1500.34C1381.33 1500.18 1381.41 1498.86 1382.33 1498.81C1383.22 1498.77 1383.32 1497.48 1382.45 1497.3L1378.61 1496.47C1378.41 1496.43 1378.19 1496.45 1378 1496.53L1375.37 1497.68L1370.65 1499.53C1369.66 1499.92 1369.88 1501.38 1370.94 1501.46L1378.21 1502.02C1373.91 1501.86 1364.64 1506.11 1363.28 1506.51C1363.18 1506.54 1363.07 1506.54 1362.96 1506.55C1355.88 1507.35 1358.99 1507.51 1362.1 1510.94Z" fill="url(#paint15_radial_408_3)"/>
</g>
<path d="M1353 1492C1353 1492 1323.71 1493.38 1343.64 1496.44C1363.57 1499.5 1384.99 1498.39 1402.8 1493.38C1420.61 1488.37 1391.5 1490 1391.5 1490" stroke="#7FBCF5" stroke-width="2"/>
<path d="M1367.06 1610.92C1367.06 1610.92 1323.85 1637.2 1346.79 1631.33C1369.73 1625.46 1391.78 1613.71 1407.7 1598.88C1423.61 1584.06 1380.79 1603.35 1380.79 1603.35" stroke="#7FBCF5"/>
<path d="M1378.97 1615.66C1383.32 1613.34 1384.97 1607.93 1382.65 1603.58C1380.33 1599.22 1374.92 1597.57 1370.57 1599.89C1366.21 1602.21 1364.56 1607.62 1366.88 1611.98C1369.2 1616.33 1374.61 1617.98 1378.97 1615.66Z" fill="#F782C8"/>
<mask id="mask5_408_3" style="mask-type:alpha" maskUnits="userSpaceOnUse" x="1365" y="1598" width="19" height="19">
<path d="M1378.97 1615.66C1383.32 1613.34 1384.97 1607.93 1382.65 1603.58C1380.34 1599.22 1374.92 1597.57 1370.57 1599.89C1366.22 1602.21 1364.57 1607.62 1366.89 1611.98C1369.21 1616.33 1374.62 1617.98 1378.97 1615.66Z" fill="#FF9E67"/>
</mask>
<g mask="url(#mask5_408_3)">
<path d="M1380.46 1599.1C1377.08 1594.82 1369.86 1598.17 1366.69 1600.77C1366.17 1601.2 1366.33 1601.99 1366.96 1602.26L1369.91 1603.55C1370.54 1603.82 1370.36 1604.78 1369.67 1604.8L1368.92 1604.83C1368.36 1604.85 1368.24 1605.63 1368.77 1605.82C1369.35 1606.03 1369.13 1606.91 1368.52 1606.81L1367 1606.57C1366.33 1606.47 1365.96 1607.31 1366.48 1607.73L1369.37 1610.07C1369.97 1610.57 1370.82 1609.87 1370.45 1609.17C1370.21 1608.72 1370.51 1608.16 1371.03 1608.12L1375.73 1607.73C1376.91 1607.63 1376.96 1605.92 1375.79 1605.74L1372.87 1605.3C1374.79 1605.54 1380.62 1604.04 1381.66 1603.85C1381.77 1603.83 1381.88 1603.83 1381.98 1603.82C1385.08 1603.64 1381.74 1600.78 1380.46 1599.1Z" fill="url(#paint16_radial_408_3)"/>
</g>
<mask id="mask6_408_3" style="mask-type:alpha" maskUnits="userSpaceOnUse" x="1365" y="1598" width="19" height="19">
<path d="M1367.27 1602.82C1364.66 1607.01 1365.93 1612.52 1370.12 1615.13C1374.3 1617.74 1379.82 1616.46 1382.43 1612.28C1385.04 1608.09 1383.76 1602.58 1379.58 1599.97C1375.39 1597.36 1369.88 1598.63 1367.27 1602.82Z" fill="#FF9E67"/>
</mask>
<g mask="url(#mask6_408_3)">
<path d="M1374.09 1617.61C1379.05 1619.58 1383.54 1613.39 1385.09 1609.53C1385.31 1608.97 1384.72 1608.56 1384.22 1608.89L1382.12 1610.35C1381.71 1610.63 1381.25 1610.08 1381.59 1609.73C1381.88 1609.43 1381.59 1608.94 1381.19 1609.05L1380.42 1609.26C1380.01 1609.37 1379.79 1608.8 1380.16 1608.6C1380.53 1608.41 1380.32 1607.86 1379.92 1607.95L1378.2 1608.34C1378.08 1608.37 1377.97 1608.44 1377.89 1608.53L1377.04 1609.49C1376.31 1610.25 1377.12 1611.48 1378.11 1611.1L1379.07 1610.74C1377.32 1611.49 1374.43 1614.84 1373.79 1615.47C1373.71 1615.54 1373.61 1615.6 1373.52 1615.66C1370.82 1617.32 1372.15 1616.79 1374.09 1617.61Z" fill="url(#paint17_radial_408_3)"/>
</g>
<path d="M27.6826 3814.12C41.5113 3821.5 58.7036 3816.27 66.0828 3802.44C73.4619 3788.61 68.2335 3771.41 54.4048 3764.03C40.5761 3756.65 23.3838 3761.88 16.0047 3775.71C8.62554 3789.54 13.8539 3806.74 27.6826 3814.12Z" fill="#FF9E67"/>
<mask id="mask7_408_3" style="mask-type:alpha" maskUnits="userSpaceOnUse" x="12" y="3760" width="58" height="58">
<path d="M27.6829 3814.12C41.5116 3821.5 58.7039 3816.27 66.083 3802.44C73.4621 3788.61 68.2337 3771.41 54.405 3764.03C40.5763 3756.65 23.384 3761.88 16.0049 3775.71C8.62578 3789.54 13.8542 3806.74 27.6829 3814.12Z" fill="#FF9E67"/>
</mask>
<g mask="url(#mask7_408_3)">
<path d="M74.0158 3788.73C79.6578 3771.13 54.7098 3757.37 42.8713 3754.73C41.9427 3754.53 41.1613 3755.35 41.3315 3756.29L44.1281 3771.68C44.3951 3773.15 42.4876 3773.96 41.6115 3772.75L37.7795 3767.46C36.8716 3766.21 34.902 3767.13 35.2837 3768.63L36.1682 3772.11C36.5886 3773.76 34.2561 3774.59 33.5368 3773.05L29.3822 3764.12C28.7768 3762.82 26.8417 3763.16 26.7129 3764.59L25.0347 3783.21C24.8973 3784.73 26.95 3785.34 27.6699 3783.99L30.3482 3778.97C30.8227 3778.08 32.0519 3777.97 32.6816 3778.76L52.3965 3803.4C53.4371 3804.7 55.4736 3803.43 54.7596 3801.92L44.2031 3779.67C47.0795 3785.34 62.2443 3798.75 63.8042 3800.5C63.9046 3800.61 63.9829 3800.74 64.0719 3800.87C70.1711 3809.22 71.8265 3795.13 74.0158 3788.73Z" fill="url(#paint18_radial_408_3)"/>
</g>
<mask id="mask8_408_3" style="mask-type:alpha" maskUnits="userSpaceOnUse" x="13" y="3760" width="58" height="58">
<path d="M40.8417 3760.5C25.1762 3761.03 12.9014 3774.15 13.4251 3789.82C13.9489 3805.49 27.073 3817.77 42.7385 3817.25C58.4041 3816.72 70.6789 3803.59 70.1551 3787.93C69.6313 3772.26 56.5073 3759.98 40.8417 3760.5Z" fill="#FF9E67"/>
</mask>
<g mask="url(#mask8_408_3)">
<path d="M13.9221 3804.7C17.6742 3822.03 44.0436 3822.22 56.3969 3818.99C57.6173 3818.67 57.6377 3817.11 56.4649 3816.64L47.2827 3813.01C45.8252 3812.43 46.4479 3810.24 47.9904 3810.52C49.2908 3810.76 50.0692 3809.12 49.0691 3808.26L47.1535 3806.61C46.1399 3805.73 47.2342 3804.13 48.4157 3804.76C49.5731 3805.38 50.6692 3803.85 49.7121 3802.96L45.5124 3799.02C45.2985 3798.82 45.0273 3798.69 44.7366 3798.65L40.5605 3798.1L32.991 3796.81C31.5212 3796.56 30.7276 3798.47 31.9424 3799.34L40.8479 3805.68C35.5637 3802.23 20.6961 3800.56 18.74 3800.03C18.5943 3799.99 18.4591 3799.92 18.3219 3799.86C8.8317 3795.51 12.616 3798.06 13.9221 3804.7Z" fill="url(#paint19_radial_408_3)"/>
</g>
<path d="M16.438 3775.94C16.438 3775.94 -28.8243 3751.78 -3.98009 3772.47C20.8642 3793.15 51.201 3809.35 79.8043 3817.19C108.407 3825.03 66.0826 3802.44 66.0826 3802.44" stroke="#7FBCF5" stroke-width="2"/>
<path d="M188.743 3732.21C203.76 3731.43 215.304 3718.63 214.528 3703.6C213.751 3688.58 200.947 3677.04 185.93 3677.81C170.912 3678.59 159.368 3691.4 160.145 3706.42C160.922 3721.44 173.725 3732.99 188.743 3732.21Z" fill="#75E3B5"/>
<mask id="mask9_408_3" style="mask-type:alpha" maskUnits="userSpaceOnUse" x="160" y="3677" width="55" height="56">
<path d="M188.743 3732.21C203.76 3731.43 215.304 3718.63 214.528 3703.6C213.751 3688.58 200.947 3677.04 185.93 3677.81C170.912 3678.59 159.368 3691.4 160.145 3706.42C160.922 3721.44 173.725 3732.99 188.743 3732.21Z" fill="#FF9E67"/>
</mask>
<g mask="url(#mask9_408_3)">
<path d="M214.267 3688.41C210.208 3671.19 183.011 3672.19 171.926 3675.86C171.024 3676.15 170.777 3677.26 171.406 3677.98L181.1 3689C182.086 3690.12 180.872 3691.8 179.497 3691.22L174.237 3688.98C172.813 3688.38 171.602 3690.18 172.702 3691.27L174.502 3693.05C175.715 3694.25 174.145 3696.17 172.732 3695.21L165.586 3690.39C164.396 3689.59 162.913 3690.88 163.539 3692.17L171.152 3707.86C171.82 3709.24 173.895 3708.7 173.816 3707.17L173.553 3702.09C173.501 3701.08 174.495 3700.35 175.441 3700.7L203.296 3711C204.858 3711.58 205.946 3709.44 204.557 3708.52L185.282 3695.72C190.443 3698.95 209.498 3702.47 211.688 3703.14C211.832 3703.18 211.967 3703.25 212.106 3703.31C221.238 3707.15 215.635 3694.76 214.267 3688.41Z" fill="url(#paint20_radial_408_3)"/>
</g>
<mask id="mask10_408_3" style="mask-type:alpha" maskUnits="userSpaceOnUse" x="160" y="3677" width="56" height="55">
<path d="M173.036 3681.63C160.419 3689.81 156.823 3706.68 165.005 3719.3C173.186 3731.92 190.046 3735.51 202.664 3727.33C215.281 3719.15 218.876 3702.28 210.695 3689.66C202.514 3677.04 185.653 3673.44 173.036 3681.63Z" fill="#FF9E67"/>
</mask>
<g mask="url(#mask10_408_3)">
<path d="M172.772 3731.28C184.384 3743.62 206.031 3730.87 214.657 3722.11C215.541 3721.21 214.753 3719.86 213.509 3720.06L204.303 3721.6C202.82 3721.84 202.249 3719.74 203.655 3719.2C204.839 3718.75 204.672 3717.03 203.424 3716.81L201.03 3716.4C199.765 3716.18 199.874 3714.33 201.158 3714.26C202.414 3714.2 202.558 3712.4 201.328 3712.13L195.945 3710.98C195.659 3710.92 195.36 3710.95 195.091 3711.06L191.402 3712.67L184.776 3715.27C183.388 3715.81 183.694 3717.86 185.18 3717.97L195.387 3718.76C189.352 3718.54 176.339 3724.5 174.435 3725.06C174.289 3725.1 174.135 3725.1 173.985 3725.12C164.047 3726.25 168.415 3726.47 172.772 3731.28Z" fill="url(#paint21_radial_408_3)"/>
</g>
<path d="M160.01 3704.7C160.01 3704.7 118.907 3706.63 146.873 3710.93C174.84 3715.22 204.898 3713.67 229.887 3706.63C254.877 3699.6 214.028 3701.89 214.028 3701.89" stroke="#7FBCF5" stroke-width="2"/>
<path d="M179.743 3871.59C179.743 3871.59 119.111 3908.47 151.293 3900.23C183.476 3892 214.418 3875.51 236.752 3854.7C259.086 3833.89 198.994 3860.96 198.994 3860.96" stroke="#7FBCF5"/>
<path d="M196.446 3878.25C202.556 3874.99 204.871 3867.4 201.616 3861.29C198.362 3855.18 190.77 3852.86 184.661 3856.12C178.551 3859.37 176.236 3866.97 179.491 3873.08C182.746 3879.19 190.337 3881.5 196.446 3878.25Z" fill="#F782C8"/>
<mask id="mask11_408_3" style="mask-type:alpha" maskUnits="userSpaceOnUse" x="178" y="3854" width="26" height="26">
<path d="M196.448 3878.25C202.558 3874.99 204.872 3867.4 201.618 3861.29C198.363 3855.18 190.772 3852.86 184.662 3856.12C178.552 3859.37 176.238 3866.97 179.493 3873.08C182.747 3879.19 190.338 3881.5 196.448 3878.25Z" fill="#FF9E67"/>
</mask>
<g mask="url(#mask11_408_3)">
<path d="M198.544 3855C193.796 3849 183.665 3853.7 179.222 3857.35C178.487 3857.95 178.719 3859.06 179.591 3859.44L183.729 3861.24C184.626 3861.63 184.372 3862.97 183.395 3863L182.348 3863.04C181.556 3863.07 181.386 3864.17 182.134 3864.44C182.956 3864.73 182.645 3865.96 181.782 3865.83L179.646 3865.49C178.716 3865.35 178.191 3866.53 178.924 3867.12L182.971 3870.4C183.826 3871.09 185.014 3870.11 184.498 3869.14C184.157 3868.5 184.582 3867.72 185.303 3867.66L191.895 3867.11C193.555 3866.97 193.632 3864.57 191.985 3864.32L187.886 3863.71C190.579 3864.04 198.757 3861.94 200.221 3861.67C200.369 3861.64 200.524 3861.64 200.675 3861.63C205.019 3861.38 200.336 3857.36 198.544 3855Z" fill="url(#paint22_radial_408_3)"/>
</g>
<mask id="mask12_408_3" style="mask-type:alpha" maskUnits="userSpaceOnUse" x="178" y="3854" width="26" height="26">
<path d="M180.028 3860.22C176.364 3866.1 178.155 3873.83 184.029 3877.5C189.902 3881.16 197.633 3879.37 201.297 3873.5C204.961 3867.62 203.17 3859.89 197.296 3856.22C191.423 3852.56 183.692 3854.35 180.028 3860.22Z" fill="#FF9E67"/>
</mask>
<g mask="url(#mask12_408_3)">
<path d="M189.605 3880.98C196.564 3883.74 202.867 3875.06 205.03 3869.64C205.34 3868.86 204.51 3868.27 203.819 3868.75L200.862 3870.79C200.292 3871.18 199.644 3870.41 200.125 3869.92C200.531 3869.5 200.124 3868.81 199.561 3868.96L198.484 3869.26C197.913 3869.41 197.597 3868.62 198.119 3868.34C198.631 3868.07 198.339 3867.29 197.775 3867.42L195.362 3867.98C195.193 3868.02 195.042 3868.11 194.928 3868.24L193.741 3869.58C192.72 3870.66 193.859 3872.37 195.247 3871.85L196.591 3871.34C194.127 3872.39 190.083 3877.09 189.174 3877.97C189.066 3878.08 188.932 3878.16 188.804 3878.24C185.02 3880.57 186.875 3879.83 189.605 3880.98Z" fill="url(#paint23_radial_408_3)"/>
</g>
<g clip-path="url(#clip2_408_3)">
<path d="M1256 4319C1283.61 4319 1306 4296.61 1306 4269C1306 4241.39 1283.61 4219 1256 4219C1228.39 4219 1206 4241.39 1206 4269C1206 4296.61 1228.39 4319 1256 4319Z" fill="#72D6D6"/>
<mask id="mask13_408_3" style="mask-type:alpha" maskUnits="userSpaceOnUse" x="1206" y="4219" width="100" height="100">
<path d="M1256 4319C1283.61 4319 1306 4296.61 1306 4269C1306 4241.39 1283.61 4219 1256 4219C1228.39 4219 1206 4241.39 1206 4269C1206 4296.61 1228.39 4319 1256 4319Z" fill="#58B4B4"/>
</mask>
<g mask="url(#mask13_408_3)">
<path fill-rule="evenodd" clip-rule="evenodd" d="M1242.94 4241.9L1224.91 4235.28C1221.58 4234.06 1219.86 4230.36 1221.09 4227.02C1222.31 4223.69 1226.01 4221.97 1229.35 4223.2L1247.38 4229.82C1251.79 4231.44 1256.34 4232.72 1261.18 4234.08C1261.52 4234.17 1261.85 4234.27 1262.19 4234.36C1267.31 4235.81 1272.73 4237.36 1278.03 4239.46C1286.45 4242.79 1294.03 4247.55 1299.64 4252.99C1305.08 4258.26 1309.47 4264.97 1309.64 4272.23C1309.85 4280.61 1306.37 4287.02 1301.07 4291.87C1296.04 4296.47 1289.36 4299.68 1282.8 4302.31C1279.47 4303.64 1276 4304.89 1272.62 4306.1C1272.4 4306.17 1272.18 4306.25 1271.97 4306.33C1268.77 4307.47 1266.63 4308.71 1264.65 4311.68C1263.03 4314.11 1261.77 4316.35 1260.56 4318.36C1257.45 4323.57 1251.45 4325.64 1245.38 4325.64H1240.93C1238.34 4325.64 1235.81 4324.85 1233.67 4323.38L1229.52 4320.51C1224.57 4317.09 1224.3 4309.87 1228.99 4306.1C1234.67 4301.62 1247.95 4299.97 1254.75 4297.32C1257.96 4296.07 1264.45 4295.35 1267.6 4294.22C1267.83 4294.14 1268.06 4294.06 1268.29 4293.97C1271.69 4292.76 1274.95 4291.59 1278.02 4290.36C1284.28 4287.85 1293.54 4285.93 1296.78 4282.96C1299.75 4280.24 1296.88 4276.66 1296.78 4272.54C1296.72 4270.19 1295.08 4266.49 1290.68 4262.23C1286.45 4258.13 1280.37 4254.22 1273.29 4251.43C1268.69 4249.61 1263.85 4248.21 1258.7 4246.75C1258.33 4246.65 1257.97 4246.55 1257.6 4246.44C1252.86 4245.11 1247.84 4243.7 1242.94 4241.9Z" fill="#94FEFE" fill-opacity="0.5"/>
</g>
<path fill-rule="evenodd" clip-rule="evenodd" d="M1267 4317.79C1244.68 4312.77 1228 4292.83 1228 4269C1228 4245.16 1244.68 4225.23 1267 4220.21C1263.46 4219.42 1259.78 4219 1256 4219C1228.39 4219 1206 4241.39 1206 4269C1206 4296.61 1228.39 4319 1256 4319C1259.78 4319 1263.46 4318.58 1267 4317.79Z" fill="#6AC4C4" fill-opacity="0.53"/>
</g>
<defs>
<linearGradient id="paint0_linear_408_3" x1="1333.18" y1="1756.32" x2="1386.67" y2="1725.27" gradientUnits="userSpaceOnUse">
<stop stop-color="#B8E5FF"/>
<stop offset="0.119792" stop-color="#69C2F4"/>
<stop offset="1" stop-color="#69C2F4" stop-opacity="0"/>
</linearGradient>
<linearGradient id="paint1_linear_408_3" x1="1318.22" y1="1812.1" x2="1371.71" y2="1781.05" gradientUnits="userSpaceOnUse">
<stop stop-color="#B8E5FF"/>
<stop offset="0.119792" stop-color="#69C2F4"/>
<stop offset="1" stop-color="#69C2F4" stop-opacity="0"/>
</linearGradient>
<linearGradient id="paint2_linear_408_3" x1="1396.75" y1="1791.53" x2="1450.24" y2="1760.49" gradientUnits="userSpaceOnUse">
<stop stop-color="#B8E5FF"/>
<stop offset="0.119792" stop-color="#69C2F4"/>
<stop offset="1" stop-color="#69C2F4" stop-opacity="0"/>
</linearGradient>
<linearGradient id="paint3_linear_408_3" x1="1340.01" y1="1855.83" x2="1392.67" y2="1825.27" gradientUnits="userSpaceOnUse">
<stop stop-color="#B8E5FF"/>
<stop offset="0.119792" stop-color="#69C2F4"/>
<stop offset="1" stop-color="#69C2F4" stop-opacity="0"/>
</linearGradient>
<linearGradient id="paint4_linear_408_3" x1="1325.28" y1="1910.75" x2="1377.94" y2="1880.19" gradientUnits="userSpaceOnUse">
<stop stop-color="#B8E5FF"/>
<stop offset="0.119792" stop-color="#69C2F4"/>
<stop offset="1" stop-color="#69C2F4" stop-opacity="0"/>
</linearGradient>
<linearGradient id="paint5_linear_408_3" x1="1402.59" y1="1890.5" x2="1455.26" y2="1859.94" gradientUnits="userSpaceOnUse">
<stop stop-color="#B8E5FF"/>
<stop offset="0.119792" stop-color="#69C2F4"/>
<stop offset="1" stop-color="#69C2F4" stop-opacity="0"/>
</linearGradient>
<linearGradient id="paint6_linear_408_3" x1="156.944" y1="4105.71" x2="195.128" y2="4083.66" gradientUnits="userSpaceOnUse">
<stop stop-color="#B8E5FF"/>
<stop offset="0.119792" stop-color="#69C2F4"/>
<stop offset="1" stop-color="#69C2F4" stop-opacity="0"/>
</linearGradient>
<linearGradient id="paint7_linear_408_3" x1="146.294" y1="4145.64" x2="184.478" y2="4123.59" gradientUnits="userSpaceOnUse">
<stop stop-color="#B8E5FF"/>
<stop offset="0.119792" stop-color="#69C2F4"/>
<stop offset="1" stop-color="#69C2F4" stop-opacity="0"/>
</linearGradient>
<linearGradient id="paint8_linear_408_3" x1="202.209" y1="4130.92" x2="240.393" y2="4108.87" gradientUnits="userSpaceOnUse">
<stop stop-color="#B8E5FF"/>
<stop offset="0.119792" stop-color="#69C2F4"/>
<stop offset="1" stop-color="#69C2F4" stop-opacity="0"/>
</linearGradient>
<linearGradient id="paint9_linear_408_3" x1="161.805" y1="4176.94" x2="199.398" y2="4155.23" gradientUnits="userSpaceOnUse">
<stop stop-color="#B8E5FF"/>
<stop offset="0.119792" stop-color="#69C2F4"/>
<stop offset="1" stop-color="#69C2F4" stop-opacity="0"/>
</linearGradient>
<linearGradient id="paint10_linear_408_3" x1="151.32" y1="4216.24" x2="188.913" y2="4194.54" gradientUnits="userSpaceOnUse">
<stop stop-color="#B8E5FF"/>
<stop offset="0.119792" stop-color="#69C2F4"/>
<stop offset="1" stop-color="#69C2F4" stop-opacity="0"/>
</linearGradient>
<linearGradient id="paint11_linear_408_3" x1="206.367" y1="4201.75" x2="243.96" y2="4180.05" gradientUnits="userSpaceOnUse">
<stop stop-color="#B8E5FF"/>
<stop offset="0.119792" stop-color="#69C2F4"/>
<stop offset="1" stop-color="#69C2F4" stop-opacity="0"/>
</linearGradient>
<radialGradient id="paint12_radial_408_3" cx="0" cy="0" r="1" gradientUnits="userSpaceOnUse" gradientTransform="translate(1277.64 1537.75) rotate(145.065) scale(24.0077 30.854)">
<stop stop-color="#F6CCB4"/>
<stop offset="1" stop-color="#F6CCB4" stop-opacity="0"/>
</radialGradient>
<radialGradient id="paint13_radial_408_3" cx="0" cy="0" r="1" gradientUnits="userSpaceOnUse" gradientTransform="translate(1258.34 1569.78) rotate(-68.5477) scale(16.8395 21.6417)">
<stop stop-color="#F6CCB4"/>
<stop offset="1" stop-color="#F6CCB4" stop-opacity="0"/>
</radialGradient>
<radialGradient id="paint14_radial_408_3" cx="0" cy="0" r="1" gradientUnits="userSpaceOnUse" gradientTransform="translate(1373.12 1475.75) rotate(114.019) scale(23.0324 29.6006)">
<stop stop-color="#D0FDEA"/>
<stop offset="1" stop-color="#F6CCB4" stop-opacity="0"/>
</radialGradient>
<radialGradient id="paint15_radial_408_3" cx="0" cy="0" r="1" gradientUnits="userSpaceOnUse" gradientTransform="translate(1373.11 1511.62) rotate(-99.5935) scale(16.1554 20.7625)">
<stop stop-color="#D0FDEA"/>
<stop offset="1" stop-color="#F6CCB4" stop-opacity="0"/>
</radialGradient>
<radialGradient id="paint16_radial_408_3" cx="0" cy="0" r="1" gradientUnits="userSpaceOnUse" gradientTransform="translate(1371.82 1600.78) rotate(88.9364) scale(10.6028 13.6265)">
<stop stop-color="#F8C4EC"/>
<stop offset="1" stop-color="#F6CCB4" stop-opacity="0"/>
</radialGradient>
<radialGradient id="paint17_radial_408_3" cx="0" cy="0" r="1" gradientUnits="userSpaceOnUse" gradientTransform="translate(1378.82 1615.74) rotate(-124.676) scale(7.43705 9.5579)">
<stop stop-color="#F8C4EC"/>
<stop offset="1" stop-color="#F6CCB4" stop-opacity="0"/>
</radialGradient>
<radialGradient id="paint18_radial_408_3" cx="0" cy="0" r="1" gradientUnits="userSpaceOnUse" gradientTransform="translate(54.2756 3768.91) rotate(145.058) scale(33.687 43.2973)">
<stop stop-color="#F6CCB4"/>
<stop offset="1" stop-color="#F6CCB4" stop-opacity="0"/>
</radialGradient>
<radialGradient id="paint19_radial_408_3" cx="0" cy="0" r="1" gradientUnits="userSpaceOnUse" gradientTransform="translate(27.2013 3813.86) rotate(-68.5525) scale(23.6319 30.3656)">
<stop stop-color="#F6CCB4"/>
<stop offset="1" stop-color="#F6CCB4" stop-opacity="0"/>
</radialGradient>
<radialGradient id="paint20_radial_408_3" cx="0" cy="0" r="1" gradientUnits="userSpaceOnUse" gradientTransform="translate(188.237 3681.89) rotate(114.014) scale(32.3226 41.5332)">
<stop stop-color="#D0FDEA"/>
<stop offset="1" stop-color="#F6CCB4" stop-opacity="0"/>
</radialGradient>
<radialGradient id="paint21_radial_408_3" cx="0" cy="0" r="1" gradientUnits="userSpaceOnUse" gradientTransform="translate(188.22 3732.24) rotate(-99.5912) scale(22.6725 29.1313)">
<stop stop-color="#D0FDEA"/>
<stop offset="1" stop-color="#F6CCB4" stop-opacity="0"/>
</radialGradient>
<radialGradient id="paint22_radial_408_3" cx="0" cy="0" r="1" gradientUnits="userSpaceOnUse" gradientTransform="translate(186.42 3857.37) rotate(88.9367) scale(14.8801 19.1188)">
<stop stop-color="#F8C4EC"/>
<stop offset="1" stop-color="#F6CCB4" stop-opacity="0"/>
</radialGradient>
<radialGradient id="paint23_radial_408_3" cx="0" cy="0" r="1" gradientUnits="userSpaceOnUse" gradientTransform="translate(196.232 3878.36) rotate(-124.669) scale(10.4364 13.4114)">
<stop stop-color="#F8C4EC"/>
<stop offset="1" stop-color="#F6CCB4" stop-opacity="0"/>
</radialGradient>
<clipPath id="clip0_408_3">
<rect width="125" height="197" fill="white" transform="translate(1315 1719)"/>
</clipPath>
<clipPath id="clip1_408_3">
<rect width="89" height="141" fill="white" transform="translate(144 4079)"/>
</clipPath>
<clipPath id="clip2_408_3">
<rect width="100" height="100" fill="white" transform="translate(1206 4219)"/>
</clipPath>
</defs>
</svg>
