<svg width="1920" height="1510" viewBox="0 0 1920 1510" fill="none" xmlns="http://www.w3.org/2000/svg">
<g clip-path="url(#clip0_396_3525)">
<rect width="1920" height="1510" fill="white"/>
<path d="M0 0H1920V4612H0V0Z" fill="#272057"/>
<mask id="mask0_396_3525" style="mask-type:alpha" maskUnits="userSpaceOnUse" x="-2" y="-3070" width="1922" height="4580">
<path d="M-2 -3070H1920V1510H-2V-3070Z" fill="#272057"/>
</mask>
<g mask="url(#mask0_396_3525)">
<path d="M95.6115 1284.92C109.942 1233.34 147.061 1239.01 163.829 1248.29L164.698 1249.16C179.874 1264.21 185.82 1286.22 180.282 1306.83L178.221 1314.5C174.449 1328.55 177.814 1343.55 187.229 1354.66C191.977 1360.26 195.26 1366.95 196.785 1374.13L198.015 1379.92C199.394 1386.41 196.666 1393.08 191.132 1396.75L177.55 1405.75C172.448 1409.14 166.585 1411.2 160.485 1411.77L152.359 1412.53C142.978 1413.4 134.957 1419.62 131.783 1428.47C123.975 1450.25 92.9313 1449.72 85.8275 1427.69L76.1631 1397.71C72.9385 1387.71 65.086 1379.86 55.0678 1376.63C42.6296 1372.63 33.7712 1361.61 32.5451 1348.63L31.9854 1342.7C31.708 1339.76 31.6734 1336.99 31.8415 1334.37C33.6112 1306.78 70.8737 1304.94 92.4891 1287.69C93.7437 1286.69 94.7914 1285.75 95.6115 1284.92Z" fill="#7D59B8" fill-opacity="0.27"/>
<path d="M-23.4375 1444.11C-25.9536 1405.16 -13.2604 1336.93 17.365 1331.49L100.212 1328.41C109.702 1328.06 119.077 1330.64 127.057 1335.79C141.826 1345.33 149.902 1362.41 147.889 1379.84L142.861 1423.38C140.099 1447.29 129.99 1469.75 113.922 1487.67L80.276 1525.2C74.1277 1532.06 70.007 1540.48 68.3715 1549.55C63.8263 1574.73 40.6646 1593.14 15.6795 1587.32C-11.7187 1580.94 -28.581 1571.43 -36.8194 1561.03C-44.1235 1551.81 -42.0166 1538.97 -38.8629 1527.66C-33.9124 1509.92 -27.5011 1493.63 -23.6694 1474.94C-21.5962 1464.84 -22.7721 1454.42 -23.4375 1444.11Z" fill="#3974E4" fill-opacity="0.29"/>
<path d="M142.891 1337.23L148.94 1333.07L148.945 1325.76L153.135 1331.77L160.493 1331.77L154.444 1335.93L154.439 1343.24L150.249 1337.23L142.891 1337.23Z" fill="#FFF7B1"/>
<path d="M40.6916 1286.01L46.7409 1281.85L46.7458 1274.54L50.9354 1280.55L58.2939 1280.56L52.2446 1284.72L52.2396 1292.02L48.05 1286.02L40.6916 1286.01Z" fill="#FFF7B1"/>
<path d="M105.157 1492.7L111.207 1488.54L111.212 1481.23L115.401 1487.24L122.76 1487.24L116.71 1491.41L116.705 1498.71L112.516 1492.71L105.157 1492.7Z" fill="#FFF7B1"/>
<line y1="-1.5" x2="13.621" y2="-1.5" transform="matrix(0.955173 -0.296049 0.299829 0.953993 172.111 1250.69)" stroke="#FFF7B1" stroke-width="3"/>
<path d="M180.309 1254.06L176.248 1241.14" stroke="#FFF7B1" stroke-width="3"/>
<ellipse cx="5.1339" cy="5.16339" rx="5.1339" ry="5.16339" transform="matrix(-0.299829 -0.953993 0.955173 -0.296049 188.819 1362.82)" fill="#FFF7B1"/>
<ellipse cx="2.88782" cy="2.90441" rx="2.88782" ry="2.90441" transform="matrix(-0.299829 -0.953993 0.955173 -0.296049 177.756 1385.73)" fill="#FFF7B1"/>
<ellipse cx="2.88782" cy="2.90441" rx="2.88782" ry="2.90441" transform="matrix(-0.299829 -0.953993 0.955173 -0.296049 27.3262 1315.04)" fill="#FFF7B1"/>
</g>
<path d="M1669.61 49.2747C1584.37 102.799 1513.26 104.826 1510.63 36.1632C1508.22 -26.8452 1531.6 -45.0865 1535.46 -47.6637C1535.83 -47.9047 1536.19 -48.1079 1536.57 -48.3237L1559.58 -61.3456C1584.6 -75.5133 1599.25 -99.7644 1596.41 -122.309C1595.1 -132.667 1597.47 -143.67 1603.26 -154.023L1608.31 -163.062C1613.42 -172.213 1624.69 -178.454 1635.85 -178.316L1673.87 -177.847C1686.25 -177.694 1697.98 -175.361 1708.35 -170.993L1726.16 -163.485C1742.06 -156.781 1762.66 -158.479 1780.17 -167.939C1823.73 -191.468 1870.45 -163.678 1854.31 -123.84L1826.78 -55.8783C1826.12 -54.2522 1826.42 -52.6009 1827.58 -51.4645L1867.48 -12.2273C1868.07 -11.6528 1865.99 -9.66562 1865 -9.5C1862 -9.00001 1865 -2.49999 1845.79 31.2167C1835.13 49.9361 1815.31 59.5804 1796.72 64.0139C1772.14 69.8745 1750.92 59.8843 1728.93 53.9057C1704.5 47.2619 1681.02 47.6429 1669.61 49.2747Z" fill="#7D59B8" fill-opacity="0.27"/>
<path d="M2063.44 -54.9795C2024.47 -2.85914 1917.61 79.1044 1857.36 58.4642L1702.77 -16.8437C1691.13 -22.514 1681.97 -31.0508 1676.22 -41.5923C1661.38 -68.7679 1671.47 -104.497 1700.8 -128.636L1758.4 -176.053C1787.81 -200.262 1823.79 -216.971 1861.21 -223.794L1979 -245.273C1997.8 -248.701 2015.98 -256.696 2031.32 -268.287C2068.25 -296.181 2119.09 -301.838 2150 -278.052C2193.53 -244.562 2214.69 -216.245 2219.49 -194.328C2224.08 -173.365 2201.23 -153.797 2178.66 -139.989C2149.11 -121.911 2118.96 -106.447 2090.53 -85.0161C2079.37 -76.6071 2071.43 -65.6602 2063.44 -54.9795Z" fill="#3974E4" fill-opacity="0.29"/>
<path d="M1764.06 96.2475L1748.88 96.2551L1740.24 105.622L1740.23 94.228L1727.76 87.7408L1742.93 87.7331L1751.57 78.3663L1751.58 89.7602L1764.06 96.2475Z" fill="#FFF7B1"/>
<line y1="-1.5" x2="27.5596" y2="-1.5" transform="matrix(-0.973627 -0.228145 0.383864 -0.92339 1499.41 25.7939)" stroke="#FFF7B1" stroke-width="3"/>
<path d="M1489.48 14.2559L1481.11 34.4014" stroke="#FFF7B1" stroke-width="3"/>
<ellipse cx="4.65203" cy="5.87655" rx="4.65203" ry="5.87655" transform="matrix(-0.383864 0.92339 -0.973627 -0.228145 1821.02 70.7944)" fill="#FFF7B1"/>
<path d="M1760.61 772.406C1774.43 739.822 1808.1 702.523 1814.83 670.312C1817.07 659.545 1811.95 649.362 1802.71 643.305C1783.64 630.8 1750.08 612.733 1743.29 601.628C1714.69 554.799 1729.68 506.04 1766.18 488.81L1885.25 450.405C1897.43 446.479 1910.5 446.214 1922.82 449.644C1947.83 456.604 1966.26 477.696 1969.66 503.265L1977.52 562.212C1981.83 594.566 1975.73 627.444 1960.08 656.141L1923.76 722.73C1917.33 734.521 1914.38 747.875 1915.25 761.257C1917.57 796.709 1893.26 829.424 1857.59 832.103C1816.21 835.21 1788.24 830.066 1771.85 820.233C1755.96 810.699 1753.4 789.395 1760.61 772.406Z" fill="#4B7FE2" fill-opacity="0.29"/>
<path d="M1820.76 480.562C1781.74 443.61 1804.33 413.782 1820.51 403.487L1821.58 403.165C1842.22 396.969 1864.57 402.15 1880.28 416.773L1886.17 422.252C1896.84 432.182 1911.7 436.309 1926.03 433.317C1933.26 431.806 1940.75 432.092 1947.84 434.148L1953.57 435.812C1960 437.679 1964.63 443.257 1965.28 449.909L1966.84 465.953C1967.43 472.026 1966.49 478.156 1964.1 483.785L1960.96 491.176C1957.29 499.832 1958.99 509.808 1965.31 516.737C1980.87 533.778 1965.72 560.849 1942.95 556.677L1911.61 550.932C1901.28 549.038 1890.64 552.217 1883.02 559.475C1873.58 568.471 1859.71 571.043 1847.7 566.02L1841.98 563.623C1839.36 562.528 1836.98 561.308 1834.81 559.993C1810.95 545.503 1827.15 511.367 1821.64 484.031C1821.37 482.7 1821.07 481.534 1820.76 480.562Z" fill="#B995F4" fill-opacity="0.27"/>
<path d="M1862.65 681.293C1879.83 643.708 1900.73 603.421 1917.93 579.558C1931.32 560.98 1949.14 569.801 1946.34 592.458C1944.25 609.301 1938.73 634.174 1926.39 670.652C1924.1 677.434 1922.2 684.986 1925.31 691.412C1932.72 706.694 1953.06 696.37 1945.52 714.629C1933.56 743.599 1911.59 779.256 1895.72 803.426C1883.83 821.534 1865.54 834.36 1844.68 840.381L1838.1 842.279C1829.59 844.737 1821.68 848.935 1814.87 854.605L1806.67 861.438C1795.58 870.68 1780.62 873.863 1766.75 869.934C1742.55 863.075 1729.34 837.216 1737.99 813.628L1749.23 783.004C1747.01 752.624 1803.36 760.054 1824.77 738.172C1828.87 733.979 1832.87 729.517 1836.6 725.086C1847.62 712.021 1855.56 696.805 1862.65 681.293Z" fill="#B995F4" fill-opacity="0.27"/>
<ellipse cx="5.1669" cy="5.13893" rx="5.1669" ry="5.13893" transform="matrix(-0.944037 -0.329839 0.333952 -0.94259 1826.04 543.103)" fill="#FFF7B1"/>
<ellipse cx="3.22931" cy="3.21183" rx="3.22931" ry="3.21183" transform="matrix(-0.944037 -0.329839 0.333952 -0.94259 1721.31 792.295)" fill="#FFF7B1"/>
<ellipse cx="3.87518" cy="3.8542" rx="3.87518" ry="3.8542" transform="matrix(-0.944037 -0.329839 0.333952 -0.94259 1870.47 624.629)" fill="#FFF7B1"/>
<ellipse cx="2.58345" cy="2.56946" rx="2.58345" ry="2.56946" transform="matrix(-0.944037 -0.329839 0.333952 -0.94259 1765.46 841.743)" fill="#FFF7B1"/>
<ellipse cx="10.0109" cy="9.95668" rx="10.0109" ry="9.95668" transform="matrix(-0.944037 -0.329839 0.333952 -0.94259 1746.66 546.669)" fill="#FFF7B1"/>
<line y1="-1.5" x2="10.9202" y2="-1.5" transform="matrix(0.333952 -0.94259 0.944037 0.329839 1685.98 799.006)" stroke="#FFF7B1" stroke-width="3"/>
<path d="M1692.12 795.367L1681.76 791.746" stroke="#FFF7B1" stroke-width="3"/>
<line y1="-1.5" x2="10.9202" y2="-1.5" transform="matrix(0.333952 -0.94259 0.944037 0.329839 1727.8 559.132)" stroke="#FFF7B1" stroke-width="3"/>
<path d="M1733.94 555.496L1723.58 551.874" stroke="#FFF7B1" stroke-width="3"/>
<line y1="-1.5" x2="7.70839" y2="-1.5" transform="matrix(0.333952 -0.94259 0.944037 0.329839 1806.92 856.229)" stroke="#FFF7B1" stroke-width="3"/>
<path d="M1811.25 853.66L1803.94 851.103" stroke="#FFF7B1" stroke-width="3"/>
<path d="M1891.97 555.251L1892.41 542.708L1882.28 535.197L1894.92 535.638L1902.48 525.582L1902.03 538.125L1912.16 545.636L1899.53 545.195L1891.97 555.251Z" fill="#FFF7B1"/>
<path d="M1799.31 791.649L1799.51 785.762L1794.76 782.236L1800.69 782.443L1804.24 777.723L1804.03 783.611L1808.78 787.136L1802.86 786.929L1799.31 791.649Z" fill="#FFF7B1"/>
<path d="M1734.14 666.135L1734.5 656.152L1726.44 650.174L1736.49 650.525L1742.51 642.521L1742.16 652.505L1750.22 658.483L1740.16 658.132L1734.14 666.135Z" fill="#FFF7B1"/>
</g>
<defs>
<clipPath id="clip0_396_3525">
<rect width="1920" height="1510" fill="white"/>
</clipPath>
</defs>
</svg>
