<svg width="1920" height="1024" viewBox="0 0 1920 1024" fill="none" xmlns="http://www.w3.org/2000/svg">
<g clip-path="url(#clip0_396_2374)">
<rect width="1920" height="1024" fill="white"/>
<path d="M0 0H1916V4612H0V0Z" fill="#272057"/>
<mask id="mask0_396_2374" style="mask-type:alpha" maskUnits="userSpaceOnUse" x="0" y="0" width="1917" height="1024">
<path d="M0 0H1916.01V1024H0V0Z" fill="#272057"/>
</mask>
<g mask="url(#mask0_396_2374)">
<path d="M139.657 472.257C148.605 545.052 75.1203 657.287 102.813 725.07C106.483 734.053 115.066 741.233 126.947 744.16C173.782 755.7 291.643 767.75 320.15 785.336C424.803 849.895 430.094 944.527 359.71 997.073L115.384 1137.35C90.4774 1151.65 60.4934 1160.1 29.1932 1161.63C-34.4694 1164.75 -94.5345 1139.01 -123.447 1096.22L-213.335 963.188C-234.645 931.65 -242.137 895.87 -234.737 860.976L-197.126 683.608C-191.908 659.001 -196.044 633.774 -209.058 610.83C-243.493 550.12 -214.154 477.994 -133.871 451.477C-16.9899 412.87 61.8126 409.836 105.059 427.926C126.029 436.698 137.45 454.308 139.657 472.257Z" fill="#4B7FE2" fill-opacity="0.29"/>
<path d="M240.078 1044.95C360.775 1085.81 332.922 1151.93 303.909 1179.88C258.543 1204.83 205.386 1210.01 157.425 1194.14L133.224 1186.13C101.64 1175.68 66.8262 1177.73 35.8474 1191.86C19.7405 1199.21 2.44113 1203.36 -15.0523 1204.07L-36.0547 1204.92C-49.6156 1205.47 -62.2152 1198.86 -69.207 1187.54L-86.0766 1160.23C-92.4591 1149.9 -95.3575 1137.72 -94.3644 1125.4L-93.5369 1115.15C-92.0142 1096.27 -102.61 1078.91 -119.961 1071.85C-162.238 1054.65 -151.67 991.846 -105.585 986.406L-19.1042 976.197C0.930486 973.832 19.1463 962.653 30.5025 945.753L31.6728 944.011C46.1052 922.533 70.7224 909.998 96.1915 911.158L122.805 912.371C146.581 913.454 165.211 918.766 179.485 925.806C211.666 941.676 208.241 984.703 222.351 1017.63C227.636 1029.96 234.781 1039.6 240.078 1044.95Z" fill="#B995F4" fill-opacity="0.27"/>
<path d="M-22.6004 727.093C-34.4918 824.144 -56.4678 930.182 -85.5974 968.56C-96.8911 983.44 -117.218 979.582 -125.985 965.35C-140.532 941.736 -159.172 888.209 -160.612 768.432C-160.707 760.545 -162.37 752.569 -167.34 746.719C-197.507 711.217 -243.575 751.001 -240.877 711.122C-237.059 654.683 -216.526 581.392 -199.848 529.511C-186.496 487.974 -154.56 452.67 -113.72 430.702L-96.7038 421.549C-79.1431 412.103 -63.6971 399.179 -51.5837 383.797L-48.8522 380.328C-25.02 350.065 11.7795 331.009 49.7154 329.285C111.432 326.481 159.102 369.609 158.244 427.474L157.598 471.089C187.034 521.902 52.9836 541.094 19.1048 596.468C14.7814 603.534 10.6969 610.804 6.89491 618.047C-11.2659 652.646 -18.0644 690.073 -22.6004 727.093Z" fill="#B995F4" fill-opacity="0.27"/>
<ellipse cx="189.244" cy="948.117" rx="12.6939" ry="9.54026" fill="#FFF7B1"/>
<ellipse cx="222.566" cy="443.675" rx="7.93369" ry="5.96266" fill="#FFF7B1"/>
<ellipse cx="16.29" cy="830.056" rx="9.52043" ry="7.1552" fill="#FFF7B1"/>
<ellipse cx="78.1741" cy="382.856" rx="6.34695" ry="4.77013" fill="#FFF7B1"/>
<ellipse cx="263.801" cy="842.925" rx="24.5944" ry="18.4843" fill="#FFF7B1"/>
<line x1="292.429" y1="404.322" x2="292.429" y2="424.595" stroke="#FFF7B1" stroke-width="3"/>
<path d="M279.689 414.458L306.664 414.458" stroke="#FFF7B1" stroke-width="3"/>
<line x1="392.392" y1="850.329" x2="392.392" y2="870.602" stroke="#FFF7B1" stroke-width="3"/>
<path d="M379.652 860.466L406.627 860.466" stroke="#FFF7B1" stroke-width="3"/>
<path d="M13.9102 957.657L23.174 979.912L52.7853 986.874L23.174 993.836L13.9102 1016.09L4.6465 993.836L-24.9648 986.874L4.6465 979.912L13.9102 957.657Z" fill="#FFF7B1"/>
<path d="M34.5375 486.606L38.8858 497.053L52.785 500.321L38.8858 503.589L34.5375 514.035L30.1892 503.589L16.29 500.321L30.1892 497.053L34.5375 486.606Z" fill="#FFF7B1"/>
<path d="M288.415 666.679L295.788 684.392L319.356 689.933L295.788 695.475L288.415 713.188L281.042 695.475L257.474 689.933L281.042 684.392L288.415 666.679Z" fill="#FFF7B1"/>
<path d="M139.657 472.257C148.605 545.052 75.1203 657.287 102.813 725.07C106.483 734.053 115.066 741.233 126.947 744.16C173.782 755.7 291.643 767.75 320.15 785.336C424.803 849.895 430.094 944.527 359.71 997.073L115.384 1137.35C90.4774 1151.65 60.4934 1160.1 29.1932 1161.63C-34.4694 1164.75 -94.5345 1139.01 -123.447 1096.22L-213.335 963.188C-234.645 931.65 -242.137 895.87 -234.737 860.976L-197.126 683.608C-191.908 659.001 -196.044 633.774 -209.058 610.83C-243.493 550.12 -214.154 477.994 -133.871 451.477C-16.9899 412.87 61.8126 409.836 105.059 427.926C126.029 436.698 137.45 454.308 139.657 472.257Z" fill="#4B7FE2" fill-opacity="0.29"/>
<path d="M240.078 1044.95C360.775 1085.81 332.922 1151.93 303.909 1179.88C258.543 1204.83 205.386 1210.01 157.425 1194.14L133.224 1186.13C101.64 1175.68 66.8262 1177.73 35.8474 1191.86C19.7405 1199.21 2.44113 1203.36 -15.0523 1204.07L-36.0547 1204.92C-49.6156 1205.47 -62.2152 1198.86 -69.207 1187.54L-86.0766 1160.23C-92.4591 1149.9 -95.3575 1137.72 -94.3644 1125.4L-93.5369 1115.15C-92.0142 1096.27 -102.61 1078.91 -119.961 1071.85C-162.238 1054.65 -151.67 991.846 -105.585 986.406L-19.1042 976.197C0.930486 973.832 19.1463 962.653 30.5025 945.753L31.6728 944.011C46.1052 922.533 70.7224 909.998 96.1915 911.158L122.805 912.371C146.581 913.454 165.211 918.766 179.485 925.806C211.666 941.676 208.241 984.703 222.351 1017.63C227.636 1029.96 234.781 1039.6 240.078 1044.95Z" fill="#B995F4" fill-opacity="0.27"/>
<path d="M-22.6004 727.093C-34.4918 824.144 -56.4678 930.182 -85.5974 968.56C-96.8911 983.44 -117.218 979.582 -125.985 965.35C-140.532 941.736 -159.172 888.209 -160.612 768.432C-160.707 760.545 -162.37 752.569 -167.34 746.719C-197.507 711.217 -243.575 751.001 -240.877 711.122C-237.059 654.683 -216.526 581.392 -199.848 529.511C-186.496 487.974 -154.56 452.67 -113.72 430.702L-96.7038 421.549C-79.1431 412.103 -63.6971 399.179 -51.5837 383.797L-48.8522 380.328C-25.02 350.065 11.7795 331.009 49.7154 329.285C111.432 326.481 159.102 369.609 158.244 427.474L157.598 471.089C187.034 521.902 52.9836 541.094 19.1048 596.468C14.7814 603.534 10.6969 610.804 6.89491 618.047C-11.2659 652.646 -18.0644 690.073 -22.6004 727.093Z" fill="#B995F4" fill-opacity="0.27"/>
<ellipse cx="189.244" cy="948.117" rx="12.6939" ry="9.54026" fill="#FFF7B1"/>
<ellipse cx="222.566" cy="443.675" rx="7.93369" ry="5.96266" fill="#FFF7B1"/>
<ellipse cx="16.29" cy="830.056" rx="9.52043" ry="7.1552" fill="#FFF7B1"/>
<ellipse cx="78.1741" cy="382.856" rx="6.34695" ry="4.77013" fill="#FFF7B1"/>
<ellipse cx="263.801" cy="842.925" rx="24.5944" ry="18.4843" fill="#FFF7B1"/>
<line x1="292.429" y1="404.322" x2="292.429" y2="424.595" stroke="#FFF7B1" stroke-width="3"/>
<path d="M279.689 414.458L306.664 414.458" stroke="#FFF7B1" stroke-width="3"/>
<line x1="392.392" y1="850.329" x2="392.392" y2="870.602" stroke="#FFF7B1" stroke-width="3"/>
<path d="M379.652 860.466L406.627 860.466" stroke="#FFF7B1" stroke-width="3"/>
<path d="M13.9102 957.657L23.174 979.912L52.7853 986.874L23.174 993.836L13.9102 1016.09L4.6465 993.836L-24.9648 986.874L4.6465 979.912L13.9102 957.657Z" fill="#FFF7B1"/>
<path d="M34.5375 486.606L38.8858 497.053L52.785 500.321L38.8858 503.589L34.5375 514.035L30.1892 503.589L16.29 500.321L30.1892 497.053L34.5375 486.606Z" fill="#FFF7B1"/>
<path d="M288.415 666.679L295.788 684.392L319.356 689.933L295.788 695.475L288.415 713.188L281.042 695.475L257.474 689.933L281.042 684.392L288.415 666.679Z" fill="#FFF7B1"/>
<path d="M2006.41 99.4147C2099.76 144.557 2065.75 196.789 2037.08 217.263C1995.42 233.696 1950.22 232.978 1912.95 215.291L1894.66 206.613C1870.13 194.968 1840.75 193.393 1812.74 202.221C1798.21 206.802 1783.16 208.624 1768.5 207.579L1751.74 206.384C1739.97 205.545 1730.24 198.701 1726.22 188.437L1716.9 164.608C1713.31 155.434 1712.9 145.123 1715.74 135.074L1718.21 126.316C1722.56 110.904 1716.51 95.5675 1703.1 87.9886C1670.39 69.5103 1689.57 18.851 1729.35 18.6326L1802.06 18.2336C1819.53 18.1377 1836.86 10.4726 1849.19 -2.61237L1850.2 -3.68648C1865.71 -20.1536 1888.53 -28.2504 1909.83 -24.8532L1931.04 -21.4721C1946.99 -18.9291 1959.63 -14.3684 1969.55 -8.87878C1999.5 7.70752 1987.88 49.5098 1997.95 81.6272C2000.37 89.3272 2003.65 95.5263 2006.41 99.4147Z" fill="#7D59B8" fill-opacity="0.27"/>
<path d="M1744.09 -153.502C1818.64 -145.323 1970.96 -90.0155 1962.21 -37.8757L1921.25 75.5146C1913.72 96.3615 1899.01 114.391 1879.79 126.351C1855.1 141.71 1825.37 145.577 1799.12 136.843L1684.34 98.6595C1650.77 87.4915 1621.59 67.2865 1599.98 40.2324L1538.71 -36.449C1529.69 -47.7357 1517.8 -56.4493 1504.1 -61.8084C1456.39 -80.4673 1435.52 -137.898 1472.12 -177.5C1501.86 -209.673 1530.74 -224.953 1555.3 -227.409C1569.75 -228.854 1583.35 -223.631 1596.1 -217.821C1638.97 -198.28 1673.45 -175.405 1721.31 -158.203C1728.58 -155.589 1736.29 -154.358 1744.09 -153.502Z" fill="#3974E4" fill-opacity="0.29"/>
<path d="M1873.8 145L1878.32 155.874L1892.79 159.276L1878.32 162.678L1873.8 173.552L1869.27 162.678L1854.8 159.276L1869.27 155.874L1873.8 145Z" fill="#FFF7B1"/>
<path d="M1589.06 17L1593.58 27.8743L1608.05 31.2762L1593.58 34.6781L1589.06 45.5524L1584.53 34.6781L1570.06 31.2762L1584.53 27.8743L1589.06 17Z" fill="#FFF7B1"/>
<line x1="1523.39" y1="35.0001" x2="1523.39" y2="56.1041" stroke="#FFF7B1" stroke-width="3"/>
<path d="M1510.19 45.5521L1538.27 45.5521" stroke="#FFF7B1" stroke-width="3"/>
<ellipse cx="1805.57" cy="209" rx="10.6445" ry="8" fill="#FFF7B1"/>
<ellipse cx="1762.33" cy="178.5" rx="5.98753" ry="4.5" fill="#FFF7B1"/>
</g>
</g>
<defs>
<clipPath id="clip0_396_2374">
<rect width="1920" height="1024" fill="white"/>
</clipPath>
</defs>
</svg>
