<svg width="1440" height="5007" viewBox="0 0 1440 5007" fill="none" xmlns="http://www.w3.org/2000/svg">
<g clip-path="url(#clip0_445_3)">
<path d="M1202.42 3786.83C1220.29 3738.61 1273.69 3681.99 1279.84 3634.42C1281.26 3623.48 1276.46 3613.17 1267.41 3606.86C1242.77 3589.69 1191 3562.39 1181.09 3546.05C1142.02 3481.62 1162.5 3414.55 1212.36 3390.85L1375.02 3338.01C1391.65 3332.61 1409.51 3332.25 1426.35 3336.97C1460.51 3346.54 1485.68 3375.56 1490.34 3410.73L1501.74 3496.89C1507.2 3538.1 1499.47 3579.99 1479.67 3616.55L1427.63 3712.64C1418.85 3728.86 1414.82 3747.23 1416.01 3765.64C1419.17 3814.41 1385.96 3859.42 1337.23 3863.1C1276.03 3867.73 1236.3 3859.05 1214.88 3843.29C1197.82 3830.74 1195.06 3806.69 1202.42 3786.83Z" fill="#4B7FE2" fill-opacity="0.29"/>
<path d="M1262.21 3345.82C1247.5 3311.02 1269.62 3284.34 1286.57 3273.47L1288.11 3273C1316.25 3264.5 1346.79 3271.64 1368.23 3291.74L1376.24 3299.25C1390.83 3312.92 1411.17 3318.62 1430.74 3314.5C1440.61 3312.43 1450.85 3312.82 1460.53 3315.65L1468.36 3317.94C1477.13 3320.51 1483.47 3328.16 1484.35 3337.26L1486.48 3359.41C1487.29 3367.76 1486.01 3376.18 1482.75 3383.91L1478.44 3394.14C1473.43 3406.03 1475.77 3419.74 1484.43 3429.3C1505.75 3452.82 1485.05 3489.97 1453.83 3484.2L1411.12 3476.32C1396.95 3473.7 1382.38 3478.07 1371.99 3488.05C1359.09 3500.42 1340.06 3503.95 1323.59 3497L1315.9 3493.76C1297 3485.79 1287.05 3473.02 1282.25 3461.39C1276.9 3448.44 1285.11 3430.04 1287.89 3416.3C1293.36 3389.28 1272.94 3371.21 1262.21 3345.82Z" fill="#B995F4" fill-opacity="0.27"/>
<path d="M1344.05 3655.83C1370.19 3598.26 1402.62 3536.04 1427.38 3505.51C1441.86 3487.66 1461.04 3497.88 1459.65 3520.81C1458.24 3544.03 1451.16 3582.35 1429.93 3644.83C1427.63 3651.59 1426.08 3658.98 1428.26 3665.79C1436.72 3692.25 1468.22 3675.01 1457.36 3701.5C1441.01 3741.39 1410.94 3790.5 1389.26 3823.75C1373.05 3848.6 1348.1 3866.2 1319.61 3874.49L1310.61 3877.1C1298.98 3880.48 1288.18 3886.25 1278.9 3894.04L1267.53 3903.57C1252.46 3916.22 1232.1 3920.56 1213.19 3915.16L1211.3 3914.62C1179.25 3905.48 1161.69 3871.05 1173.1 3839.73L1177.29 3828.23C1185.14 3806.69 1188.97 3781.02 1209.89 3771.66C1227.32 3763.87 1250.07 3766.97 1266.06 3756.52C1280.22 3747.26 1295.65 3731.33 1308.7 3715.72C1323.64 3697.84 1334.43 3677.05 1344.05 3655.83Z" fill="#B995F4" fill-opacity="0.27"/>
<circle cx="1289.81" cy="3456.53" r="7.06402" transform="rotate(-160.616 1289.81 3456.53)" fill="#FFF7B1"/>
<circle cx="1148.36" cy="3802.71" r="4.41501" transform="rotate(-160.616 1148.36 3802.71)" fill="#FFF7B1"/>
<circle cx="1351.59" cy="3570.93" r="5.29801" transform="rotate(-160.616 1351.59 3570.93)" fill="#FFF7B1"/>
<circle cx="1209.21" cy="3871.86" r="3.53201" transform="rotate(-160.616 1209.21 3871.86)" fill="#FFF7B1"/>
<circle cx="1177.33" cy="3452.99" r="13.6865" transform="rotate(-160.616 1177.33 3452.99)" fill="#FFF7B1"/>
<line x1="1101.38" y1="3817.07" x2="1106.37" y2="3802.91" stroke="#FFF7B1" stroke-width="3"/>
<path d="M1111.19 3812.57L1097.03 3807.58" stroke="#FFF7B1" stroke-width="3"/>
<line x1="1158.51" y1="3487.09" x2="1163.49" y2="3472.93" stroke="#FFF7B1" stroke-width="3"/>
<path d="M1168.32 3482.58L1154.16 3477.6" stroke="#FFF7B1" stroke-width="3"/>
<line x1="1266.59" y1="3895.79" x2="1270.11" y2="3885.8" stroke="#FFF7B1" stroke-width="3"/>
<path d="M1273.93 3892.76L1263.94 3889.24" stroke="#FFF7B1" stroke-width="3"/>
<path d="M1384.2 3482.24L1384.81 3464.99L1370.97 3454.66L1388.23 3455.26L1398.56 3441.43L1397.95 3458.69L1411.79 3469.02L1394.53 3468.41L1384.2 3482.24Z" fill="#FFF7B1"/>
<path d="M1257.61 3807.45L1257.9 3799.35L1251.4 3794.5L1259.5 3794.79L1264.35 3788.29L1264.07 3796.39L1270.56 3801.24L1262.46 3800.96L1257.61 3807.45Z" fill="#FFF7B1"/>
<path d="M1168.59 3634.79L1169.07 3621.05L1158.06 3612.83L1171.8 3613.31L1180.02 3602.3L1179.54 3616.03L1190.55 3624.26L1176.81 3623.78L1168.59 3634.79Z" fill="#FFF7B1"/>
<path d="M84.6819 3900.22C110.756 3805.71 178.295 3816.1 208.805 3833.11L210.316 3834.62C237.99 3862.27 248.824 3902.57 238.74 3940.37L234.975 3954.48C228.117 3980.19 234.237 4007.63 251.37 4027.98C260.017 4038.26 265.992 4050.51 268.764 4063.65L271.004 4074.26C273.516 4086.17 268.527 4098.41 258.406 4105.17L233.777 4121.61C224.49 4127.81 213.807 4131.6 202.691 4132.64L187.987 4134.02C170.893 4135.62 156.278 4146.99 150.52 4163.17C136.353 4202.96 79.7653 4202.05 66.887 4161.82L49.2619 4106.77C43.415 4088.5 29.1357 4074.17 10.8944 4068.25C-11.734 4060.91 -27.8294 4040.82 -30.0501 4017.13L-31.0866 4006.08C-32.9701 3985.99 -28.7012 3969.99 -22.06 3957.79C-8.77322 3933.36 23.1537 3931.92 49.1702 3922.11C66.0466 3915.75 78.6964 3906.3 84.6819 3900.22Z" fill="#7D59B8" fill-opacity="0.27"/>
<path d="M-130.707 4204.92C-139.335 4137.03 -116.986 3996.15 -57.6879 3985.55L92.8406 3979.91C110.244 3979.26 127.423 3984.01 142.02 3993.5C168.836 4010.95 183.479 4042.07 179.834 4073.85L170.038 4159.27C165.413 4199.6 148.444 4237.51 121.451 4267.83L56.763 4340.48C45.5861 4353.03 38.1009 4368.43 35.1359 4384.98C26.8631 4431.14 -15.547 4464.93 -61.1931 4454.18C-112.463 4442.1 -143.375 4423.93 -157.74 4404.18C-169.447 4388.09 -165.853 4366.5 -160.632 4347.3C-150.453 4309.86 -136.55 4276.16 -130.006 4235.55C-128.371 4225.4 -129.412 4215.12 -130.707 4204.92Z" fill="#3974E4" fill-opacity="0.29"/>
<path d="M170.708 3996.06L181.715 3988.43L181.724 3975.05L189.347 3986.05L202.736 3986.06L191.729 3993.68L191.72 4007.07L184.097 3996.07L170.708 3996.06Z" fill="#FFF7B1"/>
<path d="M-15.2471 3902.21L-4.24029 3894.59L-4.23131 3881.2L3.39172 3892.21L16.7805 3892.22L5.77374 3899.84L5.76476 3913.23L-1.85827 3902.22L-15.2471 3902.21Z" fill="#FFF7B1"/>
<path d="M102.05 4280.91L113.057 4273.29L113.066 4259.9L120.689 4270.91L134.077 4270.92L123.071 4278.54L123.062 4291.93L115.439 4280.92L102.05 4280.91Z" fill="#FFF7B1"/>
<line x1="139.467" y1="4329.81" x2="163.14" y2="4322.42" stroke="#FFF7B1" stroke-width="3"/>
<path d="M154.829 4337.41L147.441 4313.74" stroke="#FFF7B1" stroke-width="3"/>
<line x1="223.429" y1="3836.07" x2="247.102" y2="3828.68" stroke="#FFF7B1" stroke-width="3"/>
<path d="M238.791 3843.67L231.403 3820" stroke="#FFF7B1" stroke-width="3"/>
<circle cx="260.449" cy="4031.17" r="9.40061" transform="rotate(-107.334 260.449 4031.17)" fill="#FFF7B1"/>
<circle cx="237.616" cy="4078.3" r="5.28784" transform="rotate(-107.334 237.616 4078.3)" fill="#FFF7B1"/>
<path d="M-72.7023 1718.68C-152.844 1667.11 -123.645 1607.45 -99.0274 1584.06L-97.1888 1583.1C-63.5179 1565.43 -22.979 1567.05 9.17404 1587.35L21.1799 1594.93C43.0498 1608.74 70.2832 1611.01 94.1358 1601.01C106.174 1595.96 119.272 1593.96 132.267 1595.19L142.766 1596.19C154.543 1597.31 164.454 1605.48 167.793 1616.83L175.916 1644.45C178.98 1654.86 179.404 1665.87 177.152 1676.49L174.173 1690.53C170.709 1706.86 177.026 1723.71 190.368 1733.74C223.19 1758.41 205.956 1810.66 164.897 1810.96L108.705 1811.37C90.0644 1811.5 72.6282 1820.6 61.8554 1835.82C48.4918 1854.69 25.1835 1863.81 2.56203 1859.01L-7.99544 1856.77C-26.6274 1852.81 -39.9997 1844.59 -49.3697 1835.24C-69.0474 1815.6 -60.832 1784.53 -62.7452 1756.8C-63.9158 1739.82 -68.8803 1725.83 -72.7023 1718.68Z" fill="#7D59B8" fill-opacity="0.27"/>
<path d="M163.495 2609.92C58.4363 2693.18 -222.913 2546.06 -73.2558 2262.05L-20.7899 1719.4C-16.8016 1678.15 22.3791 1649.68 62.8436 1658.64C67.316 1659.63 71.6787 1661.06 75.8674 1662.91L204.96 1720.06C231.037 1731.6 247.854 1757.43 247.854 1785.95C247.855 1806.07 256.267 1825.28 271.057 1838.92L298.137 1863.9C345.857 1907.92 362.136 1978.86 316.55 2025.09C309.041 2032.7 301.516 2040.15 294.168 2048.09C204.128 2145.37 345.279 2281.76 356.44 2413.85C360.498 2461.87 337.408 2505.1 285.563 2524.45C240.776 2541.16 200.959 2580.22 163.495 2609.92Z" fill="#3974E4" fill-opacity="0.29"/>
<path d="M-47.4776 2224.07C-90.6738 2124.26 -52.832 2004.98 -11.0176 1954.23C6.58595 1932.87 36.1778 1935.83 61.4236 1947.18L143.257 1983.98C187.5 2003.88 213.163 2050.72 206.115 2098.71L202.781 2121.41C195.951 2167.92 227.973 2211.21 274.445 2218.3C298.527 2221.97 319.899 2235.74 333.186 2256.16L338.893 2264.93C357.933 2294.19 360.344 2331.26 345.254 2362.73L336.965 2380.02C325.922 2403.06 302.642 2417.72 277.096 2417.72C256.805 2417.72 237.628 2426.99 225.035 2442.9L184.524 2494.09C143.297 2546.18 79.0247 2574.57 12.753 2569.98L-71.9792 2564.1C-87.0957 2563.06 -101.227 2556.22 -111.434 2545.02L-127.409 2527.5C-160.02 2491.72 -128.832 2434.93 -81.1415 2443.25C-107.224 2416.42 -115.401 2387.95 -115.676 2364.67C-116.005 2336.87 -93.6644 2316.38 -76.9019 2294.19C-56.9075 2267.73 -48.9448 2238.73 -47.4776 2224.07Z" fill="#7D59B8" fill-opacity="0.27"/>
<path d="M41.1486 1666.6L37.2626 1654.18L24.8411 1650.29L37.2626 1646.41L41.1486 1633.99L45.0346 1646.41L57.4561 1650.29L45.0346 1654.18L41.1486 1666.6Z" fill="#FFF7B1"/>
<path d="M357.957 2282.61L351.152 2260.85L329.399 2254.05L351.152 2247.24L357.957 2225.49L364.762 2247.24L386.514 2254.05L364.762 2260.85L357.957 2282.61Z" fill="#FFF7B1"/>
<path d="M285.598 1812.81L281.712 1800.39L269.29 1796.51L281.712 1792.62L285.598 1780.2L289.484 1792.62L301.905 1796.51L289.484 1800.39L285.598 1812.81Z" fill="#FFF7B1"/>
<path d="M81.839 2583.66L77.953 2571.24L65.5315 2567.35L77.953 2563.46L81.839 2551.04L85.725 2563.46L98.1465 2567.35L85.725 2571.24L81.839 2583.66Z" fill="#FFF7B1"/>
<line x1="341.764" y1="1792.25" x2="341.764" y2="1768.15" stroke="#FFF7B1" stroke-width="3"/>
<path d="M353.309 1780.2L329.202 1780.2" stroke="#FFF7B1" stroke-width="3"/>
<line x1="317.974" y1="2041.7" x2="317.974" y2="2017.6" stroke="#FFF7B1" stroke-width="3"/>
<path d="M329.519 2029.65L305.412 2029.65" stroke="#FFF7B1" stroke-width="3"/>
<circle cx="99.7201" cy="1593.49" r="9.13828" transform="rotate(180 99.7201 1593.49)" fill="#FFF7B1"/>
<circle cx="136.845" cy="1628.33" r="5.14028" transform="rotate(180 136.845 1628.33)" fill="#FFF7B1"/>
<path d="M1327.03 144.652C1383.45 180.954 1362.89 222.958 1345.56 239.422L1344.26 240.102C1320.56 252.543 1292.02 251.403 1269.38 237.109L1260.93 231.772C1245.54 222.049 1226.36 220.453 1209.57 227.495C1201.1 231.049 1191.87 232.455 1182.73 231.587L1175.33 230.886C1167.04 230.099 1160.07 224.344 1157.72 216.355L1152 196.913C1149.84 189.582 1149.54 181.83 1151.13 174.355L1153.22 164.469C1155.66 152.974 1151.22 141.109 1141.82 134.049C1118.72 116.681 1130.85 79.8985 1159.75 79.6874L1199.31 79.3985C1212.44 79.3027 1224.71 72.8967 1232.3 62.1863C1241.7 48.8999 1258.11 42.4823 1274.04 45.8607L1281.47 47.4374C1289.09 49.0538 1295.46 51.684 1300.76 54.8955C1324.53 69.3156 1315.56 103.115 1321.88 130.191C1323.34 136.456 1325.34 141.499 1327.03 144.652Z" fill="#7D59B8" fill-opacity="0.27"/>
<path d="M1167.41 96.0019C1188.62 67.5546 1235.85 28.633 1259.82 42.239L1318.73 87.5666C1325.54 92.8071 1330.56 100.027 1333.1 108.235C1337.78 123.313 1333.53 139.738 1322.12 150.652L1293.43 178.1C1277.68 193.172 1257.66 203.011 1236.1 206.269L1191.33 213.037C1183.13 214.277 1175.43 217.762 1169.09 223.106C1151.4 238.016 1124.64 237.47 1110.71 218.995C1095.51 198.834 1089.41 182.548 1089.78 170.612C1090.11 160.108 1098.9 152.481 1107.52 146.479C1120.86 137.202 1134.35 129.7 1147.48 119.34C1155.55 112.974 1161.27 104.242 1167.41 96.0019Z" fill="#3974E4" fill-opacity="0.29"/>
<path d="M1278.28 207L1281.68 217.874L1292.55 221.276L1281.68 224.678L1278.28 235.552L1274.87 224.678L1264 221.276L1274.87 217.874L1278.28 207Z" fill="#FFF7B1"/>
<path d="M1146.28 84.9999L1149.68 95.8741L1160.55 99.2761L1149.68 102.678L1146.28 113.552L1142.87 102.678L1132 99.2761L1142.87 95.8741L1146.28 84.9999Z" fill="#FFF7B1"/>
<line x1="1091.29" y1="154" x2="1091.29" y2="175.104" stroke="#FFF7B1" stroke-width="3"/>
<path d="M1081 164.552L1102.1 164.552" stroke="#FFF7B1" stroke-width="3"/>
<circle cx="1234" cy="199" r="8" fill="#FFF7B1"/>
<circle cx="1145.5" cy="220.5" r="4.5" fill="#FFF7B1"/>
<path d="M83.4434 476.178C83.4989 532.099 47.8042 610.929 59.5488 662.094C62.0171 672.848 69.9139 681.027 80.5267 684.044C111.225 692.771 174.934 702.061 191.034 715.276C253.681 766.697 256.848 842.071 214.715 883.924L68.5197 995.607C53.5707 1007.03 35.5793 1013.77 16.8072 1015C-21.2785 1017.48 -57.1782 997.021 -74.4595 962.992L-118.982 875.32C-137.807 838.249 -144.421 796.174 -137.878 755.116L-118.615 634.244C-115.492 614.648 -117.963 594.569 -125.744 576.316C-146.36 527.954 -128.736 470.43 -80.6002 449.293C-18.4274 421.992 25.7306 417.078 52.9349 426.464C72.956 433.372 83.4223 454.998 83.4434 476.178Z" fill="#4B7FE2" fill-opacity="0.29"/>
<path d="M143.102 922.059C215.353 954.606 198.68 1007.26 181.312 1029.53L179.918 1030.55C154.402 1049.22 120.864 1052.88 91.9244 1040.13L81.1184 1035.38C61.4341 1026.71 38.7589 1028.2 20.3736 1039.36C11.095 1044.99 0.568641 1048.24 -10.27 1048.83L-19.0269 1049.3C-28.8496 1049.83 -38.0056 1044.33 -42.1473 1035.4L-52.2254 1013.69C-56.0254 1005.51 -57.7291 996.502 -57.183 987.494L-56.4606 975.578C-55.6208 961.725 -62.8894 948.642 -75.0951 942.036C-105.122 925.785 -97.3765 880.698 -63.6477 875.401L-17.4872 868.15C-2.17393 865.745 11.0459 856.117 18.0336 842.281C26.702 825.116 44.7488 814.752 63.9426 815.916L72.9004 816.459C85.4063 817.217 95.5339 820.576 103.604 825.184C127.75 838.97 123.947 872.226 132.03 898.829C135.229 909.357 139.775 917.584 143.102 922.059Z" fill="#B995F4" fill-opacity="0.27"/>
<path d="M-13.5257 662.052C-19.6139 731.241 -30.6409 807.702 -45.3248 846.833C-53.3984 868.349 -75.2287 864.912 -81.8655 842.91C-89.0229 819.183 -96.0017 777.153 -96.7449 703.069C-96.8165 695.927 -97.8502 688.48 -102.027 682.686C-120.078 657.645 -146.384 687.208 -144.805 656.165C-142.45 609.848 -129.473 549.282 -119.343 507.8C-111.77 476.794 -92.7375 450.026 -66.783 431.45L-58.584 425.581C-47.9886 417.998 -39.0892 408.291 -32.4529 397.078L-24.3237 383.343C-13.5467 365.134 5.56353 353.46 26.684 352.183L53.3912 350.569C75.8903 349.209 94.817 367.225 94.566 389.764L94.2936 414.226C93.921 447.683 96.9969 486.628 69.7265 506.015C60.1256 512.841 47.5878 514.504 38.6871 522.22C24.0537 534.907 10.6724 562.721 0.967818 588.663C-7.81223 612.134 -11.3292 637.089 -13.5257 662.052Z" fill="#B995F4" fill-opacity="0.27"/>
<circle cx="112.672" cy="844.93" r="7.59877" fill="#FFF7B1"/>
<circle cx="132.619" cy="443.145" r="4.74923" fill="#FFF7B1"/>
<circle cx="9.13951" cy="750.896" r="5.69908" fill="#FFF7B1"/>
<circle cx="46.1832" cy="394.703" r="3.79938" fill="#FFF7B1"/>
<circle cx="157.304" cy="761.145" r="14.7226" fill="#FFF7B1"/>
<line x1="175.041" y1="411.8" x2="175.041" y2="427.948" stroke="#FFF7B1" stroke-width="3"/>
<path d="M166.813 419.874L182.961 419.874" stroke="#FFF7B1" stroke-width="3"/>
<line x1="234.883" y1="767.043" x2="234.883" y2="783.19" stroke="#FFF7B1" stroke-width="3"/>
<path d="M226.654 775.117L242.802 775.117" stroke="#FFF7B1" stroke-width="3"/>
<path d="M7.71458 852.529L13.26 870.255L30.9858 875.8L13.26 881.345L7.71458 899.071L2.16917 881.345L-15.5566 875.8L2.16917 870.255L7.71458 852.529Z" fill="#FFF7B1"/>
<path d="M20.0619 477.34L22.6649 485.66L30.9851 488.263L22.6649 490.866L20.0619 499.186L17.459 490.866L9.13867 488.263L17.459 485.66L20.0619 477.34Z" fill="#FFF7B1"/>
<path d="M172.038 620.767L176.451 634.875L190.56 639.289L176.451 643.702L172.038 657.811L167.624 643.702L153.516 639.289L167.624 634.875L172.038 620.767Z" fill="#FFF7B1"/>
<path d="M1193.67 2899.44C1159.26 2906.24 1135.48 2884.39 1124.52 2865.78C1122.75 2862.77 1121.71 2859.42 1121.08 2855.98C1115.48 2825.33 1126.64 2794.02 1150.37 2773.83L1162.46 2763.54C1179.71 2748.87 1188.7 2726.7 1186.57 2704.16L1185.83 2696.44C1185.23 2690.13 1186.2 2683.77 1188.66 2677.93C1196.63 2658.92 1215.37 2646.67 1235.99 2647.01L1243.23 2647.13C1253.37 2647.3 1263.3 2649.98 1272.15 2654.95L1282.26 2660.62C1295 2667.78 1310.73 2666.89 1322.59 2658.36C1351.77 2637.37 1390.93 2665.39 1380.47 2699.79L1366.16 2746.85C1361.41 2762.46 1364.47 2779.41 1374.37 2792.38C1386.66 2808.47 1388.2 2830.33 1378.29 2847.98L1373.66 2856.22C1360.38 2879.88 1341.27 2888.96 1326.24 2891.49C1315.05 2893.37 1300.89 2885.13 1290.45 2880.68C1257.57 2866.69 1228.72 2892.52 1193.67 2899.44Z" fill="#7D59B8" fill-opacity="0.27"/>
<path d="M1538.55 2767.33C1510.61 2819.26 1428.37 2904.46 1382.34 2883.46L1274.25 2814.55C1261.76 2806.58 1252.03 2794.94 1246.41 2781.22C1236.09 2756.03 1240.9 2727.17 1258.84 2706.68L1303.95 2655.17C1328.72 2626.88 1361.62 2606.94 1398.16 2598.07L1474.04 2579.64C1487.94 2576.26 1500.64 2569.1 1510.72 2558.96C1538.85 2530.66 1584.9 2527.53 1611.64 2557.15C1640.83 2589.48 1653.77 2616.53 1654.94 2637.09C1655.97 2655.18 1642.04 2669.62 1628.14 2681.24C1603.88 2701.52 1578.93 2717.93 1555.59 2741.82C1548.41 2749.17 1543.42 2758.28 1538.55 2767.33Z" fill="#3974E4" fill-opacity="0.29"/>
<path d="M1227.57 2765.55L1216.17 2765.56L1209.69 2774.93L1209.68 2763.53L1200.31 2757.04L1211.71 2757.04L1218.19 2747.67L1218.2 2759.06L1227.57 2765.55Z" fill="#FFF7B1"/>
<path d="M1312.3 2921.25L1300.9 2921.25L1294.42 2930.62L1294.41 2919.23L1285.04 2912.74L1296.44 2912.73L1302.92 2903.37L1302.93 2914.76L1312.3 2921.25Z" fill="#FFF7B1"/>
<path d="M1413.51 2599.4L1402.12 2599.41L1395.63 2608.78L1395.62 2597.39L1386.26 2590.9L1397.65 2590.89L1404.14 2581.52L1404.15 2592.92L1413.51 2599.4Z" fill="#FFF7B1"/>
<line x1="1410.92" y1="2547.28" x2="1390.78" y2="2541" stroke="#FFF7B1" stroke-width="3"/>
<path d="M1403.92 2534.31L1397.63 2554.46" stroke="#FFF7B1" stroke-width="3"/>
<line x1="1113.16" y1="2852.23" x2="1093.01" y2="2845.94" stroke="#FFF7B1" stroke-width="3"/>
<path d="M1106.15 2839.26L1099.86 2859.4" stroke="#FFF7B1" stroke-width="3"/>
<circle cx="1181.75" cy="2697.54" r="8" transform="rotate(107.334 1181.75 2697.54)" fill="#FFF7B1"/>
<circle cx="1220.55" cy="2675.6" r="4.5" transform="rotate(107.334 1220.55 2675.6)" fill="#FFF7B1"/>
<circle cx="1349.43" cy="2898.75" r="4.5" transform="rotate(107.334 1349.43 2898.75)" fill="#FFF7B1"/>
<path d="M1164.32 4976.21C1071.52 5033 1024.68 4973.36 1012.85 4936.45L1012.77 4934.08C1011.32 4890.69 1033.11 4849.82 1069.95 4826.84L1083.7 4818.26C1108.75 4802.63 1124.61 4775.76 1126.16 4746.27C1126.95 4731.39 1131.4 4716.93 1139.12 4704.19L1145.35 4693.89C1152.35 4682.33 1165.67 4676.2 1179 4678.4L1211.42 4683.76C1223.65 4685.78 1235.18 4690.81 1244.98 4698.4L1257.93 4708.43C1273 4720.1 1293.46 4721.97 1310.4 4713.23C1352.05 4691.74 1397.21 4735.39 1377.14 4777.75L1349.66 4835.72C1340.55 4854.96 1341.25 4877.4 1351.54 4896.03C1364.31 4919.13 1362.11 4947.62 1345.94 4968.5L1338.4 4978.24C1323.29 4997.75 1305.9 5007.57 1290.01 5011.86C1263.17 5019.11 1239.23 4998.85 1213.95 4987.26C1193.91 4978.07 1174.5 4975.79 1164.32 4976.21Z" fill="#7D59B8" fill-opacity="0.27"/>
<path d="M1570.9 4891.31C1527.29 4952.78 1400.89 5051.7 1344.38 5015.05L1218.15 4905.45C1203.55 4892.78 1193.23 4875.91 1188.61 4857.14C1180.12 4822.67 1191.85 4786.35 1218.91 4763.36L1296.85 4697.15C1327.78 4670.87 1366.08 4654.79 1406.5 4651.1L1520.84 4640.68C1539.41 4638.98 1557.16 4632.18 1572.11 4621.03C1613.82 4589.9 1673.81 4594.68 1702.64 4638.01C1736.34 4688.66 1747.16 4727.94 1742.46 4754.97C1739.05 4774.58 1721.8 4787.74 1704.93 4798.29C1666.92 4822.08 1628.68 4839.1 1591.23 4868.39C1583.14 4874.72 1576.85 4882.93 1570.9 4891.31Z" fill="#3974E4" fill-opacity="0.29"/>
<path d="M1167.3 4833.32L1152.6 4831.14L1142.44 4841.99L1144.61 4827.29L1133.77 4817.12L1148.47 4819.3L1158.63 4808.45L1156.46 4823.15L1167.3 4833.32Z" fill="#FFF7B1"/>
<path d="M1438.97 4654.59L1424.27 4652.42L1414.11 4663.26L1416.28 4648.56L1405.44 4638.4L1420.14 4640.57L1430.3 4629.73L1428.13 4644.43L1438.97 4654.59Z" fill="#FFF7B1"/>
<line x1="1445.81" y1="4586.45" x2="1421.02" y2="4574.48" stroke="#FFF7B1" stroke-width="3"/>
<path d="M1439.05 4568.79L1427.09 4593.57" stroke="#FFF7B1" stroke-width="3"/>
<circle cx="1121.22" cy="4736.81" r="10.4327" transform="rotate(115.775 1121.22 4736.81)" fill="#FFF7B1"/>
<circle cx="1175.47" cy="4715.94" r="5.8684" transform="rotate(115.775 1175.47 4715.94)" fill="#FFF7B1"/>
</g>
<defs>
<clipPath id="clip0_445_3">
<rect width="1440" height="5007" fill="white"/>
</clipPath>
</defs>
</svg>
