<svg width="1920" height="1024" viewBox="0 0 1920 1024" fill="none" xmlns="http://www.w3.org/2000/svg">
<g clip-path="url(#clip0_396_2832)">
<rect width="1920" height="1024" fill="white"/>
<path d="M1 0H1919V4612H1V0Z" fill="#272057"/>
<mask id="mask0_396_2832" style="mask-type:alpha" maskUnits="userSpaceOnUse" x="-2" y="-1024" width="1919" height="4612">
<path d="M-2 -1024H1916V3588H-2V-1024Z" fill="#272057"/>
</mask>
<g mask="url(#mask0_396_2832)">
<path d="M-57.9611 958.312C-151.41 913.17 -117.362 860.938 -88.6572 840.464C-46.95 824.029 -1.71487 824.745 35.5885 842.43L53.9112 851.117C78.4718 862.761 107.871 864.335 135.909 855.507C150.46 850.925 165.523 849.103 180.197 850.148L197.004 851.345C208.77 852.183 218.496 859.019 222.514 869.275L231.857 893.119C235.451 902.293 235.856 912.606 233.016 922.658L230.545 931.402C226.189 946.819 232.238 962.157 245.66 969.732C278.386 988.199 259.188 1038.88 219.384 1039.09L146.577 1039.49C129.105 1039.59 111.773 1047.25 99.4362 1060.33L98.4135 1061.42C82.8825 1077.88 60.0601 1085.98 38.7451 1082.58L17.4895 1079.2C1.5292 1076.66 -11.1213 1072.1 -21.0431 1066.61C-51.0288 1050.03 -39.4036 1008.19 -49.5058 976.062C-51.9214 968.38 -55.1974 962.194 -57.9611 958.312Z" fill="#7D59B8" fill-opacity="0.27"/>
<path d="M203.655 1663.38C142.591 1734.57 -66.805 1482.76 -58.6079 1434L-0.409937 982.079C5.85167 933.456 53.4524 898 101.703 906.018C105.849 906.707 109.912 907.711 113.858 909.023L264.527 959.093C298.082 970.244 327.245 990.424 348.86 1017.45L410.236 1094.18C419.26 1105.47 431.156 1114.17 444.86 1119.53C492.614 1138.19 511.976 1193.87 488.246 1241.61C479.532 1259.14 470.98 1276.3 462.311 1293.01C415.838 1382.61 508.708 1547.07 408.965 1553.81C382.286 1555.62 334.649 1561.22 262.521 1595.74C234.989 1608.91 223.527 1640.21 203.655 1663.38Z" fill="#3974E4" fill-opacity="0.29"/>
<path d="M74.7915 912.725L70.2603 901.851L55.7764 898.449L70.2603 895.047L74.7915 884.173L79.3227 895.047L93.8066 898.449L79.3227 901.851L74.7915 912.725Z" fill="#FFF7B1"/>
<path d="M359.829 1040.73L355.297 1029.85L340.813 1026.45L355.297 1023.05L359.829 1012.17L364.36 1023.05L378.844 1026.45L364.36 1029.85L359.829 1040.73Z" fill="#FFF7B1"/>
<line x1="425.568" y1="1022.73" x2="425.568" y2="1001.62" stroke="#FFF7B1" stroke-width="3"/>
<path d="M438.78 1012.17L410.671 1012.17" stroke="#FFF7B1" stroke-width="3"/>
<ellipse cx="143.089" cy="848.725" rx="10.6556" ry="8" transform="rotate(180 143.089 848.725)" fill="#FFF7B1"/>
<ellipse cx="186.376" cy="879.225" rx="5.99376" ry="4.5" transform="rotate(180 186.376 879.225)" fill="#FFF7B1"/>
<path d="M137.8 -551.761C146.773 -478.963 73.1903 -366.708 100.924 -298.921C104.597 -289.945 113.183 -282.768 125.067 -279.843C171.943 -268.302 289.945 -256.251 318.484 -238.664C423.246 -174.105 428.542 -79.4727 358.086 -26.9265L113.504 113.351C88.572 127.651 58.5571 136.097 27.2244 137.63C-36.5046 140.747 -96.6325 115.007 -125.575 72.2183L-215.578 -60.8436C-236.896 -92.3608 -244.391 -128.117 -236.989 -162.989L-199.331 -340.392C-194.108 -364.999 -198.248 -390.226 -211.275 -413.17C-245.746 -473.88 -216.377 -546.005 -136.011 -572.523C-18.9891 -611.136 59.9023 -614.165 103.19 -596.065C124.165 -587.295 135.59 -569.698 137.8 -551.761Z" fill="#4B7FE2" fill-opacity="0.29"/>
<path d="M238.327 20.9517C359.15 61.8146 331.268 127.928 302.224 155.877C256.808 180.834 203.609 186.009 155.604 170.141L131.352 162.124C99.7394 151.674 64.898 153.724 33.8861 167.858C17.7607 175.207 0.444268 179.356 -17.0656 180.065L-38.131 180.918C-51.6837 181.467 -64.2757 174.872 -71.268 163.563L-88.1671 136.229C-94.556 125.896 -97.4574 113.714 -96.463 101.397L-95.636 91.1562C-94.1113 72.2733 -104.712 54.9079 -122.07 47.8551C-164.363 30.6707 -153.792 -32.1583 -107.692 -37.5944L-21.086 -47.8072C-1.05438 -50.1694 17.1619 -61.3417 28.5248 -78.2344L29.7065 -79.9912C44.1541 -101.47 68.7802 -114.003 94.256 -112.843L120.933 -111.629C144.721 -110.547 163.364 -105.239 177.651 -98.2041C209.871 -82.3392 206.45 -39.2654 220.602 -6.32091C225.891 5.9896 233.032 15.6044 238.327 20.9517Z" fill="#B995F4" fill-opacity="0.27"/>
<path d="M137.8 -551.761C146.773 -478.963 73.1903 -366.708 100.924 -298.921C104.597 -289.945 113.183 -282.768 125.067 -279.843C171.943 -268.302 289.945 -256.251 318.484 -238.664C423.246 -174.105 428.542 -79.4727 358.086 -26.9265L113.504 113.351C88.572 127.651 58.5571 136.097 27.2244 137.63C-36.5046 140.747 -96.6325 115.007 -125.575 72.2183L-215.578 -60.8436C-236.896 -92.3608 -244.391 -128.117 -236.989 -162.989L-199.331 -340.392C-194.108 -364.999 -198.248 -390.226 -211.275 -413.17C-245.746 -473.88 -216.377 -546.005 -136.011 -572.523C-18.9891 -611.136 59.9023 -614.165 103.19 -596.065C124.165 -587.295 135.59 -569.698 137.8 -551.761Z" fill="#4B7FE2" fill-opacity="0.29"/>
<path d="M238.327 20.9517C359.15 61.8146 331.268 127.928 302.224 155.877C256.808 180.834 203.609 186.009 155.604 170.141L131.352 162.124C99.7394 151.674 64.898 153.724 33.8861 167.858C17.7607 175.207 0.444268 179.356 -17.0656 180.065L-38.131 180.918C-51.6837 181.467 -64.2757 174.872 -71.268 163.563L-88.1671 136.229C-94.556 125.896 -97.4574 113.714 -96.463 101.397L-95.636 91.1562C-94.1113 72.2733 -104.712 54.9079 -122.07 47.8551C-164.363 30.6707 -153.792 -32.1583 -107.692 -37.5944L-21.086 -47.8072C-1.05438 -50.1694 17.1619 -61.3417 28.5248 -78.2344L29.7065 -79.9912C44.1541 -101.47 68.7802 -114.003 94.256 -112.843L120.933 -111.629C144.721 -110.547 163.364 -105.239 177.651 -98.2041C209.871 -82.3392 206.45 -39.2654 220.602 -6.32091C225.891 5.9896 233.032 15.6044 238.327 20.9517Z" fill="#B995F4" fill-opacity="0.27"/>
</g>
<g clip-path="url(#clip1_396_2832)">
<path d="M1778.43 724.508C1774.28 726.303 1772.87 730.279 1775.26 733.388C1777.65 736.496 1782.94 737.562 1787.08 735.767L1778.43 724.508ZM1787.08 735.767L1854.3 706.629L1845.65 695.371L1778.43 724.508L1787.08 735.767Z" fill="url(#paint0_linear_396_2832)"/>
<path d="M1758.5 780.291C1754.36 782.086 1752.94 786.061 1755.33 789.17C1757.72 792.279 1763.02 793.344 1767.16 791.55L1758.5 780.291ZM1767.16 791.55L1834.38 762.412L1825.72 751.153L1758.5 780.291L1767.16 791.55Z" fill="url(#paint1_linear_396_2832)"/>
<path d="M1863.1 759.723C1858.96 761.518 1857.54 765.494 1859.93 768.603C1862.32 771.711 1867.62 772.777 1871.76 770.982L1863.1 759.723ZM1871.76 770.982L1938.98 741.844L1930.32 730.586L1863.1 759.723L1871.76 770.982Z" fill="url(#paint2_linear_396_2832)"/>
<path d="M1787.44 824.057C1783.3 825.852 1781.88 829.827 1784.27 832.936C1786.66 836.045 1791.96 837.11 1796.1 835.315L1787.44 824.057ZM1796.1 835.315L1862.28 806.629L1853.62 795.371L1787.44 824.057L1796.1 835.315Z" fill="url(#paint3_linear_396_2832)"/>
<path d="M1767.83 878.975C1763.68 880.77 1762.27 884.745 1764.66 887.854C1767.05 890.963 1772.34 892.028 1776.48 890.233L1767.83 878.975ZM1776.48 890.233L1842.66 861.547L1834 850.289L1767.83 878.975L1776.48 890.233Z" fill="url(#paint4_linear_396_2832)"/>
<path d="M1870.8 858.726C1866.66 860.52 1865.24 864.496 1867.63 867.605C1870.03 870.714 1875.32 871.779 1879.46 869.984L1870.8 858.726ZM1879.46 869.984L1945.64 841.298L1936.98 830.04L1870.8 858.726L1879.46 869.984Z" fill="url(#paint5_linear_396_2832)"/>
</g>
<path d="M1678.5 545.968C1691.63 551.227 1707.95 547.5 1714.95 537.644C1721.96 527.788 1717 515.535 1703.87 510.275C1690.74 505.016 1674.42 508.743 1667.41 518.599C1660.41 528.455 1665.37 540.708 1678.5 545.968Z" fill="#FF9E67"/>
<mask id="mask1_396_2832" style="mask-type:alpha" maskUnits="userSpaceOnUse" x="1664" y="507" width="55" height="42">
<path d="M1678.5 545.968C1691.63 551.227 1707.95 547.5 1714.95 537.644C1721.96 527.788 1717 515.535 1703.87 510.275C1690.74 505.016 1674.42 508.743 1667.41 518.599C1660.41 528.455 1665.37 540.708 1678.5 545.968Z" fill="#FF9E67"/>
</mask>
<g mask="url(#mask1_396_2832)">
<path d="M1722.49 527.875C1727.84 515.335 1704.16 505.531 1692.92 503.652C1692.04 503.504 1691.3 504.092 1691.46 504.759L1694.11 515.725C1694.37 516.772 1692.56 517.352 1691.72 516.491L1688.09 512.722C1687.22 511.829 1685.35 512.487 1685.72 513.556L1686.56 516.032C1686.96 517.209 1684.74 517.802 1684.06 516.701L1680.11 510.344C1679.54 509.418 1677.7 509.659 1677.58 510.676L1675.99 523.941C1675.86 525.026 1677.8 525.463 1678.49 524.501L1681.03 520.924C1681.48 520.29 1682.65 520.209 1683.25 520.77L1701.96 538.331C1702.95 539.258 1704.88 538.35 1704.21 537.278L1694.18 521.423C1696.91 525.46 1711.31 535.019 1712.79 536.264C1712.89 536.344 1712.96 536.437 1713.05 536.523C1718.84 542.476 1720.41 532.439 1722.49 527.875Z" fill="url(#paint6_radial_396_2832)"/>
</g>
<mask id="mask2_396_2832" style="mask-type:alpha" maskUnits="userSpaceOnUse" x="1664" y="507" width="55" height="42">
<path d="M1690.99 507.763C1676.12 508.136 1664.47 517.49 1664.96 528.655C1665.46 539.82 1677.92 548.569 1692.79 548.196C1707.66 547.822 1719.32 538.469 1718.82 527.303C1718.32 516.138 1705.86 507.389 1690.99 507.763Z" fill="#FF9E67"/>
</mask>
<g mask="url(#mask2_396_2832)">
<path d="M1665.44 539.256C1669 551.604 1694.03 551.737 1705.76 549.439C1706.92 549.212 1706.94 548.096 1705.82 547.765L1697.11 545.176C1695.72 544.765 1696.31 543.206 1697.78 543.404C1699.01 543.571 1699.75 542.408 1698.8 541.793L1696.98 540.614C1696.02 539.99 1697.06 538.853 1698.18 539.302C1699.28 539.743 1700.32 538.652 1699.41 538.013L1695.43 535.207C1695.22 535.064 1694.97 534.972 1694.69 534.945L1690.73 534.551L1683.54 533.634C1682.14 533.456 1681.39 534.819 1682.54 535.435L1691 539.952C1685.98 537.499 1671.87 536.306 1670.01 535.931C1669.87 535.903 1669.74 535.85 1669.61 535.805C1660.6 532.71 1664.2 534.523 1665.44 539.256Z" fill="url(#paint7_radial_396_2832)"/>
</g>
<path d="M1667.83 518.763C1667.83 518.763 1624.86 501.549 1648.44 516.289C1672.03 531.029 1700.83 542.566 1727.98 548.154C1755.13 553.741 1714.95 537.644 1714.95 537.644" stroke="#7FBCF5" stroke-width="2"/>
<path d="M1831.4 487.603C1845.65 487.049 1856.61 477.924 1855.87 467.22C1855.14 456.517 1842.98 448.289 1828.73 448.843C1814.47 449.396 1803.51 458.522 1804.25 469.225C1804.99 479.929 1817.14 488.157 1831.4 487.603Z" fill="#75E3B5"/>
<mask id="mask3_396_2832" style="mask-type:alpha" maskUnits="userSpaceOnUse" x="1804" y="448" width="52" height="40">
<path d="M1831.4 487.603C1845.65 487.049 1856.61 477.924 1855.87 467.22C1855.14 456.517 1842.98 448.289 1828.73 448.843C1814.47 449.396 1803.51 458.522 1804.25 469.225C1804.99 479.929 1817.14 488.157 1831.4 487.603Z" fill="#FF9E67"/>
</mask>
<g mask="url(#mask3_396_2832)">
<path d="M1855.63 456.393C1851.77 444.125 1825.95 444.832 1815.43 447.447C1814.58 447.66 1814.34 448.451 1814.94 448.96L1824.14 456.812C1825.08 457.611 1823.92 458.809 1822.62 458.393L1817.63 456.8C1816.27 456.368 1815.12 457.656 1816.17 458.431L1817.88 459.7C1819.03 460.554 1817.54 461.919 1816.2 461.24L1809.41 457.807C1808.28 457.236 1806.88 458.154 1807.47 459.073L1814.7 470.252C1815.33 471.232 1817.3 470.852 1817.23 469.763L1816.98 466.14C1816.93 465.423 1817.87 464.902 1818.77 465.151L1845.21 472.49C1846.69 472.902 1847.73 471.376 1846.41 470.719L1828.11 461.603C1833.01 463.903 1851.1 466.409 1853.18 466.887C1853.32 466.919 1853.44 466.969 1853.58 467.011C1862.24 469.744 1856.93 460.915 1855.63 456.393Z" fill="url(#paint8_radial_396_2832)"/>
</g>
<mask id="mask4_396_2832" style="mask-type:alpha" maskUnits="userSpaceOnUse" x="1804" y="448" width="53" height="40">
<path d="M1816.49 451.56C1804.51 457.392 1801.1 469.409 1808.86 478.401C1816.63 487.394 1832.63 489.956 1844.61 484.125C1856.59 478.294 1860 466.277 1852.24 457.285C1844.47 448.292 1828.46 445.729 1816.49 451.56Z" fill="#FF9E67"/>
</mask>
<g mask="url(#mask4_396_2832)">
<path d="M1816.24 486.939C1827.26 495.732 1847.81 486.646 1856 480.403C1856.84 479.762 1856.09 478.8 1854.91 478.947L1846.17 480.041C1844.76 480.217 1844.22 478.716 1845.55 478.335C1846.68 478.014 1846.52 476.784 1845.33 476.63L1843.06 476.337C1841.86 476.182 1841.96 474.861 1843.18 474.814C1844.37 474.767 1844.51 473.485 1843.34 473.297L1838.23 472.474C1837.96 472.43 1837.68 472.451 1837.42 472.535L1833.92 473.679L1827.63 475.529C1826.31 475.917 1826.6 477.376 1828.01 477.457L1837.7 478.016C1831.98 477.863 1819.62 482.111 1817.81 482.505C1817.68 482.535 1817.53 482.54 1817.39 482.552C1807.95 483.354 1812.1 483.51 1816.24 486.939Z" fill="url(#paint9_radial_396_2832)"/>
</g>
<path d="M1804.12 468C1804.12 468 1765.1 469.379 1791.65 472.44C1818.2 475.5 1846.73 474.392 1870.46 469.379C1894.18 464.367 1855.4 466 1855.4 466" stroke="#7FBCF5" stroke-width="2"/>
<path d="M1822.85 586.92C1822.85 586.92 1765.29 613.198 1795.85 607.329C1826.4 601.46 1855.77 589.712 1876.97 574.884C1898.17 560.056 1841.13 579.346 1841.13 579.346" stroke="#7FBCF5"/>
<path d="M1838.71 591.663C1844.51 589.343 1846.71 583.933 1843.62 579.578C1840.53 575.223 1833.32 573.574 1827.52 575.893C1821.72 578.213 1819.52 583.624 1822.61 587.978C1825.7 592.333 1832.91 593.982 1838.71 591.663Z" fill="#F782C8"/>
<mask id="mask5_396_2832" style="mask-type:alpha" maskUnits="userSpaceOnUse" x="1821" y="574" width="25" height="19">
<path d="M1838.71 591.663C1844.51 589.343 1846.71 583.933 1843.62 579.578C1840.53 575.223 1833.32 573.574 1827.52 575.893C1821.72 578.213 1819.53 583.624 1822.62 587.978C1825.71 592.333 1832.91 593.982 1838.71 591.663Z" fill="#FF9E67"/>
</mask>
<g mask="url(#mask5_396_2832)">
<path d="M1840.7 575.1C1836.19 570.823 1826.58 574.168 1822.36 576.771C1821.66 577.202 1821.88 577.988 1822.71 578.259L1826.64 579.546C1827.49 579.824 1827.25 580.776 1826.32 580.801L1825.33 580.828C1824.57 580.848 1824.41 581.633 1825.12 581.823C1825.9 582.031 1825.61 582.908 1824.79 582.812L1822.76 582.574C1821.88 582.47 1821.38 583.31 1822.08 583.733L1825.92 586.071C1826.73 586.565 1827.86 585.866 1827.37 585.174C1827.04 584.718 1827.45 584.162 1828.13 584.119L1834.39 583.725C1835.97 583.626 1836.04 581.915 1834.47 581.74L1830.58 581.304C1833.14 581.538 1840.9 580.039 1842.29 579.849C1842.43 579.829 1842.58 579.83 1842.72 579.823C1846.85 579.643 1842.4 576.78 1840.7 575.1Z" fill="url(#paint10_radial_396_2832)"/>
</g>
<mask id="mask6_396_2832" style="mask-type:alpha" maskUnits="userSpaceOnUse" x="1821" y="574" width="25" height="19">
<path d="M1823.12 578.82C1819.65 583.006 1821.35 588.516 1826.92 591.128C1832.5 593.739 1839.84 592.462 1843.32 588.276C1846.79 584.09 1845.09 578.58 1839.52 575.968C1833.94 573.357 1826.6 574.634 1823.12 578.82Z" fill="#FF9E67"/>
</mask>
<g mask="url(#mask6_396_2832)">
<path d="M1832.22 593.608C1838.82 595.576 1844.8 589.388 1846.86 585.526C1847.15 584.972 1846.36 584.556 1845.71 584.894L1842.9 586.346C1842.36 586.625 1841.75 586.079 1842.2 585.725C1842.59 585.426 1842.2 584.936 1841.67 585.046L1840.64 585.257C1840.1 585.368 1839.8 584.802 1840.3 584.604C1840.78 584.41 1840.51 583.855 1839.97 583.948L1837.68 584.344C1837.52 584.372 1837.38 584.436 1837.27 584.528L1836.14 585.488C1835.17 586.254 1836.25 587.477 1837.57 587.103L1838.85 586.742C1836.51 587.489 1832.67 590.836 1831.81 591.467C1831.7 591.542 1831.58 591.6 1831.45 591.656C1827.86 593.316 1829.62 592.791 1832.22 593.608Z" fill="url(#paint11_radial_396_2832)"/>
</g>
</g>
<defs>
<linearGradient id="paint0_linear_396_2832" x1="1777.72" y1="732.319" x2="1837.34" y2="686.23" gradientUnits="userSpaceOnUse">
<stop stop-color="#B8E5FF"/>
<stop offset="0.119792" stop-color="#69C2F4"/>
<stop offset="1" stop-color="#69C2F4" stop-opacity="0"/>
</linearGradient>
<linearGradient id="paint1_linear_396_2832" x1="1757.8" y1="788.102" x2="1817.41" y2="742.013" gradientUnits="userSpaceOnUse">
<stop stop-color="#B8E5FF"/>
<stop offset="0.119792" stop-color="#69C2F4"/>
<stop offset="1" stop-color="#69C2F4" stop-opacity="0"/>
</linearGradient>
<linearGradient id="paint2_linear_396_2832" x1="1862.4" y1="767.534" x2="1922.01" y2="721.445" gradientUnits="userSpaceOnUse">
<stop stop-color="#B8E5FF"/>
<stop offset="0.119792" stop-color="#69C2F4"/>
<stop offset="1" stop-color="#69C2F4" stop-opacity="0"/>
</linearGradient>
<linearGradient id="paint3_linear_396_2832" x1="1786.81" y1="831.834" x2="1845.51" y2="786.461" gradientUnits="userSpaceOnUse">
<stop stop-color="#B8E5FF"/>
<stop offset="0.119792" stop-color="#69C2F4"/>
<stop offset="1" stop-color="#69C2F4" stop-opacity="0"/>
</linearGradient>
<linearGradient id="paint4_linear_396_2832" x1="1767.2" y1="886.751" x2="1825.89" y2="841.379" gradientUnits="userSpaceOnUse">
<stop stop-color="#B8E5FF"/>
<stop offset="0.119792" stop-color="#69C2F4"/>
<stop offset="1" stop-color="#69C2F4" stop-opacity="0"/>
</linearGradient>
<linearGradient id="paint5_linear_396_2832" x1="1870.18" y1="866.502" x2="1928.87" y2="821.13" gradientUnits="userSpaceOnUse">
<stop stop-color="#B8E5FF"/>
<stop offset="0.119792" stop-color="#69C2F4"/>
<stop offset="1" stop-color="#69C2F4" stop-opacity="0"/>
</linearGradient>
<radialGradient id="paint6_radial_396_2832" cx="0" cy="0" r="1" gradientUnits="userSpaceOnUse" gradientTransform="translate(1703.75 513.753) rotate(152.326) scale(29.601 33.3305)">
<stop stop-color="#F6CCB4"/>
<stop offset="1" stop-color="#F6CCB4" stop-opacity="0"/>
</radialGradient>
<radialGradient id="paint7_radial_396_2832" cx="0" cy="0" r="1" gradientUnits="userSpaceOnUse" gradientTransform="translate(1678.04 545.784) rotate(-62.373) scale(17.6898 27.44)">
<stop stop-color="#F6CCB4"/>
<stop offset="1" stop-color="#F6CCB4" stop-opacity="0"/>
</radialGradient>
<radialGradient id="paint8_radial_396_2832" cx="0" cy="0" r="1" gradientUnits="userSpaceOnUse" gradientTransform="translate(1830.92 451.747) rotate(120.691) scale(24.4648 37.118)">
<stop stop-color="#D0FDEA"/>
<stop offset="1" stop-color="#F6CCB4" stop-opacity="0"/>
</radialGradient>
<radialGradient id="paint9_radial_396_2832" cx="0" cy="0" r="1" gradientUnits="userSpaceOnUse" gradientTransform="translate(1830.9 487.623) rotate(-102.687) scale(16.3281 27.362)">
<stop stop-color="#D0FDEA"/>
<stop offset="1" stop-color="#F6CCB4" stop-opacity="0"/>
</radialGradient>
<radialGradient id="paint10_radial_396_2832" cx="0" cy="0" r="1" gradientUnits="userSpaceOnUse" gradientTransform="translate(1829.19 576.783) rotate(88.5835) scale(10.6042 18.1474)">
<stop stop-color="#F8C4EC"/>
<stop offset="1" stop-color="#F6CCB4" stop-opacity="0"/>
</radialGradient>
<radialGradient id="paint11_radial_396_2832" cx="0" cy="0" r="1" gradientUnits="userSpaceOnUse" gradientTransform="translate(1838.51 591.744) rotate(-132.659) scale(8.31674 11.3841)">
<stop stop-color="#F8C4EC"/>
<stop offset="1" stop-color="#F6CCB4" stop-opacity="0"/>
</radialGradient>
<clipPath id="clip0_396_2832">
<rect width="1920" height="1024" fill="white"/>
</clipPath>
<clipPath id="clip1_396_2832">
<rect width="166.493" height="197" fill="white" transform="translate(1753.51 695)"/>
</clipPath>
</defs>
</svg>
