<svg width="550" height="5007" viewBox="0 0 550 5007" fill="none" xmlns="http://www.w3.org/2000/svg">
<g clip-path="url(#clip0_408_4)">
<path d="M396.831 3995.86C410.17 3964.2 442.563 3927.98 449.297 3896.64C451.615 3885.85 446.496 3875.64 437.276 3869.58C418.72 3857.38 386.579 3839.91 380.048 3829.14C352.322 3783.43 366.853 3735.83 402.235 3719.01L517.663 3681.52C529.466 3677.68 542.139 3677.43 554.088 3680.77C578.331 3687.57 596.193 3708.16 599.496 3733.12L607.112 3790.66C611.292 3822.25 605.372 3854.34 590.2 3882.36L554.997 3947.36C548.763 3958.87 545.905 3971.91 546.751 3984.97C548.991 4019.58 525.43 4051.52 490.848 4054.13C450.736 4057.16 423.617 4052.14 407.732 4042.54C392.329 4033.24 389.843 4012.44 396.831 3995.86Z" fill="#4B7FE2" fill-opacity="0.29"/>
<path d="M437.61 3687.06C427.17 3662.37 442.867 3643.43 454.9 3635.72L455.99 3635.39C475.957 3629.35 497.628 3634.42 512.847 3648.68L518.53 3654.01C528.881 3663.71 543.317 3667.75 557.202 3664.83C564.209 3663.36 571.471 3663.64 578.344 3665.65L583.897 3667.27C590.125 3669.09 594.618 3674.52 595.242 3680.98L596.76 3696.7C597.332 3702.63 596.421 3708.6 594.109 3714.09L591.051 3721.34C587.495 3729.78 589.154 3739.51 595.303 3746.3C610.431 3762.98 595.739 3789.34 573.59 3785.26L543.278 3779.66C533.222 3777.81 522.887 3780.9 515.51 3787.98C506.357 3796.77 492.858 3799.27 481.169 3794.34L475.713 3792.04C462.295 3786.38 455.238 3777.32 451.831 3769.07C448.035 3759.88 453.859 3746.82 455.833 3737.07C459.712 3717.9 445.227 3705.07 437.61 3687.06Z" fill="#B995F4" fill-opacity="0.27"/>
<path d="M495.69 3907.05C512.153 3870.77 532.143 3831.9 548.718 3808.47C561.991 3789.71 579.687 3798.48 576.747 3821.27C574.633 3837.65 569.273 3861.58 557.624 3896.29C555.352 3903.06 553.426 3910.63 556.614 3917.02C563.886 3931.6 583.365 3921.72 576.095 3939.45C564.488 3967.76 543.153 4002.61 527.766 4026.2C516.266 4043.84 498.561 4056.33 478.343 4062.21L471.956 4064.06C463.702 4066.46 456.039 4070.56 449.454 4076.08L441.389 4082.85C430.695 4091.82 416.247 4094.9 402.825 4091.07L401.487 4090.69C378.74 4084.2 366.279 4059.77 374.378 4037.55L377.351 4029.39C382.921 4014.1 385.636 3995.88 400.486 3989.24C412.856 3983.71 428.998 3985.91 440.341 3978.5C450.392 3971.93 461.34 3960.62 470.603 3949.54C481.205 3936.86 488.858 3922.1 495.69 3907.05Z" fill="#B995F4" fill-opacity="0.27"/>
<circle cx="457.198" cy="3765.62" r="5.01274" transform="rotate(-160.616 457.198 3765.62)" fill="#FFF7B1"/>
<circle cx="356.818" cy="4011.27" r="3.13296" transform="rotate(-160.616 356.818 4011.27)" fill="#FFF7B1"/>
<circle cx="501.037" cy="3846.8" r="3.75956" transform="rotate(-160.616 501.037 3846.8)" fill="#FFF7B1"/>
<circle cx="400.001" cy="4060.34" r="2.50637" transform="rotate(-160.616 400.001 4060.34)" fill="#FFF7B1"/>
<circle cx="377.376" cy="3763.1" r="9.71219" transform="rotate(-160.616 377.376 3763.1)" fill="#FFF7B1"/>
<line x1="323.075" y1="4021.32" x2="326.611" y2="4011.27" stroke="#FFF7B1" stroke-width="3"/>
<path d="M330.444 4018.27L320.396 4014.73" stroke="#FFF7B1" stroke-width="3"/>
<line x1="363.615" y1="3787.16" x2="367.15" y2="3777.11" stroke="#FFF7B1" stroke-width="3"/>
<path d="M370.984 3784.1L360.936 3780.57" stroke="#FFF7B1" stroke-width="3"/>
<line x1="440.311" y1="4077.18" x2="442.807" y2="4070.09" stroke="#FFF7B1" stroke-width="3"/>
<path d="M445.929 4075.17L438.836 4072.68" stroke="#FFF7B1" stroke-width="3"/>
<path d="M524.176 3783.87L524.606 3771.62L514.79 3764.29L527.034 3764.72L534.366 3754.9L533.936 3767.15L543.753 3774.48L531.508 3774.05L524.176 3783.87Z" fill="#FFF7B1"/>
<path d="M434.348 4014.64L434.55 4008.89L429.942 4005.45L435.69 4005.65L439.131 4001.04L438.929 4006.79L443.537 4010.23L437.789 4010.03L434.348 4014.64Z" fill="#FFF7B1"/>
<path d="M371.177 3892.11L371.52 3882.37L363.707 3876.53L373.452 3876.87L379.288 3869.06L378.946 3878.81L386.759 3884.64L377.013 3884.3L371.177 3892.11Z" fill="#FFF7B1"/>
<path d="M94.611 4385.35C108.941 4333.41 146.061 4339.12 162.829 4348.47L163.659 4349.3C178.869 4364.49 184.823 4386.64 179.281 4407.42L177.212 4415.17C173.443 4429.3 176.806 4444.38 186.223 4455.57C190.975 4461.22 194.259 4467.95 195.782 4475.17L197.013 4481.01C198.394 4487.55 195.652 4494.28 190.089 4497.99L176.553 4507.03C171.449 4510.43 165.578 4512.52 159.468 4513.09L151.388 4513.85C141.992 4514.73 133.96 4520.98 130.795 4529.87C123.01 4551.74 91.9089 4551.23 84.831 4529.13L75.1443 4498.87C71.9308 4488.83 64.0829 4480.95 54.0576 4477.7C41.621 4473.67 32.775 4462.62 31.5545 4449.61L30.9849 4443.53C30.7092 4440.59 30.6733 4437.81 30.838 4435.19C32.5796 4407.44 70.0056 4405.53 91.6156 4388.04C92.814 4387.07 93.8188 4386.15 94.611 4385.35Z" fill="#7D59B8" fill-opacity="0.27"/>
<path d="M-24.4261 4545.83C-26.9925 4506.64 -14.3072 4437.73 16.3648 4432.25L99.095 4429.15C108.66 4428.79 118.101 4431.4 126.124 4436.62C140.862 4446.21 148.91 4463.31 146.907 4480.78L141.868 4524.71C139.101 4548.84 128.95 4571.52 112.802 4589.65L79.2668 4627.32C73.124 4634.22 69.0101 4642.68 67.3805 4651.77C62.8338 4677.14 39.5253 4695.72 14.4383 4689.81C-12.9377 4683.36 -29.7528 4673.75 -37.9274 4663.25C-45.1206 4654.02 -43.0258 4641.23 -39.908 4629.95C-34.9366 4611.96 -28.4744 4595.47 -24.6352 4576.53C-22.5937 4566.46 -23.7547 4556.09 -24.4261 4545.83Z" fill="#3974E4" fill-opacity="0.29"/>
<path d="M141.891 4438.02L147.94 4433.83L147.945 4426.48L152.134 4432.52L159.493 4432.53L153.444 4436.72L153.439 4444.08L149.249 4438.03L141.891 4438.02Z" fill="#FFF7B1"/>
<path d="M39.6903 4386.45L45.7396 4382.26L45.7446 4374.9L49.9342 4380.95L57.2926 4380.95L51.2433 4385.14L51.2384 4392.5L47.0488 4386.45L39.6903 4386.45Z" fill="#FFF7B1"/>
<path d="M104.156 4594.58L110.205 4590.39L110.21 4583.03L114.4 4589.08L121.758 4589.09L115.709 4593.28L115.704 4600.63L111.515 4594.59L104.156 4594.58Z" fill="#FFF7B1"/>
<line x1="124.519" y1="4620.81" x2="137.53" y2="4616.75" stroke="#FFF7B1" stroke-width="3"/>
<path d="M133.164 4625.63L129.103 4612.62" stroke="#FFF7B1" stroke-width="3"/>
<line x1="170.665" y1="4349.45" x2="183.675" y2="4345.39" stroke="#FFF7B1" stroke-width="3"/>
<path d="M179.309 4354.27L175.248 4341.26" stroke="#FFF7B1" stroke-width="3"/>
<circle cx="191.212" cy="4457.32" r="5.16656" transform="rotate(-107.334 191.212 4457.32)" fill="#FFF7B1"/>
<circle cx="178.663" cy="4483.22" r="2.90619" transform="rotate(-107.334 178.663 4483.22)" fill="#FFF7B1"/>
<circle cx="28.2344" cy="4412.04" r="2.90619" transform="rotate(-107.334 28.2344 4412.04)" fill="#FFF7B1"/>
<path d="M325.088 3135.69C298.015 3141.04 279.303 3123.84 270.685 3109.2C269.291 3106.83 268.469 3104.19 267.975 3101.49C263.567 3077.38 272.35 3052.74 291.019 3036.86L300.533 3028.76C314.101 3017.22 321.18 2999.77 319.498 2982.04L318.922 2975.97C318.451 2971 319.213 2966 321.142 2961.4C327.415 2946.44 342.162 2936.81 358.38 2937.08L364.077 2937.17C372.054 2937.3 379.873 2939.42 386.83 2943.32L394.784 2947.79C404.809 2953.41 417.187 2952.72 426.518 2946.01C449.474 2929.49 480.289 2951.54 472.061 2978.6L460.799 3015.63C457.064 3027.91 459.468 3041.24 467.26 3051.45C476.927 3064.11 478.137 3081.3 470.34 3095.19L466.701 3101.67C456.247 3120.3 441.219 3127.43 429.389 3129.43C420.585 3130.91 409.447 3124.42 401.232 3120.93C375.365 3109.92 352.667 3130.23 325.088 3135.69Z" fill="#7D59B8" fill-opacity="0.27"/>
<path d="M594.832 3034.62C571.459 3075.66 508.899 3139.25 473.53 3123.11L388.488 3068.89C378.656 3062.62 371.005 3053.46 366.583 3042.67C358.461 3022.85 362.247 3000.14 376.359 2984.03L411.851 2943.5C431.341 2921.24 457.229 2905.55 485.976 2898.57L545.677 2884.07C556.613 2881.41 566.601 2875.78 574.534 2867.8C596.67 2845.53 632.895 2843.07 653.937 2866.38C676.898 2891.81 687.086 2913.09 688.005 2929.27C688.815 2943.51 677.856 2954.87 666.914 2964.01C648.634 2979.29 629.854 2991.78 612.167 3009.32C604.871 3016.56 599.917 3025.69 594.832 3034.62Z" fill="#3974E4" fill-opacity="0.29"/>
<path d="M351.758 3030.34L342.793 3030.35L337.689 3037.72L337.683 3028.75L330.313 3023.65L339.278 3023.64L344.382 3016.27L344.388 3025.24L351.758 3030.34Z" fill="#FFF7B1"/>
<path d="M418.421 3152.84L409.456 3152.85L404.352 3160.21L404.346 3151.25L396.977 3146.15L405.941 3146.14L411.045 3138.77L411.051 3147.74L418.421 3152.84Z" fill="#FFF7B1"/>
<path d="M498.054 2899.62L489.09 2899.63L483.986 2907L483.98 2898.03L476.61 2892.93L485.575 2892.92L490.679 2885.55L490.685 2894.52L498.054 2899.62Z" fill="#FFF7B1"/>
<line x1="495.922" y1="2858.92" x2="480.072" y2="2853.97" stroke="#FFF7B1" stroke-width="3"/>
<path d="M490.505 2848.41L485.558 2864.26" stroke="#FFF7B1" stroke-width="3"/>
<line x1="261.645" y1="3098.84" x2="245.795" y2="3093.89" stroke="#FFF7B1" stroke-width="3"/>
<path d="M256.228 3088.33L251.281 3104.18" stroke="#FFF7B1" stroke-width="3"/>
<circle cx="315.71" cy="2976.83" r="6.2942" transform="rotate(107.334 315.71 2976.83)" fill="#FFF7B1"/>
<circle cx="346.235" cy="2959.57" r="3.54049" transform="rotate(107.334 346.235 2959.57)" fill="#FFF7B1"/>
<circle cx="447.632" cy="3135.14" r="3.54049" transform="rotate(107.334 447.632 3135.14)" fill="#FFF7B1"/>
<path d="M-91.9796 2024.95C-147.97 1988.92 -127.57 1947.24 -110.371 1930.9L-109.087 1930.22C-85.5629 1917.88 -57.2406 1919.01 -34.777 1933.19L-26.3892 1938.49C-11.1099 1948.14 7.91654 1949.72 24.581 1942.74C32.9912 1939.21 42.1424 1937.81 51.2214 1938.67L58.5566 1939.37C66.7845 1940.15 73.7086 1945.86 76.0411 1953.79L81.7167 1973.08C83.8567 1980.36 84.1532 1988.05 82.5796 1995.47L80.4983 2005.28C78.0785 2016.69 82.4919 2028.46 91.8132 2035.47C114.744 2052.71 102.703 2089.21 74.0181 2089.42L34.76 2089.7C21.7366 2089.8 9.55483 2096.16 2.02851 2106.78C-7.30792 2119.97 -23.5922 2126.34 -39.3965 2122.99L-46.7724 2121.42C-54.2031 2119.85 -60.4364 2117.3 -65.6357 2114.19C-89.4926 2099.91 -80.5095 2066.04 -86.9435 2038.99C-88.3879 2032.91 -90.3351 2028.02 -91.9796 2024.95Z" fill="#7D59B8" fill-opacity="0.27"/>
<path d="M50.0996 2659.59C-33.8373 2686.15 -187.348 2584.82 -92.3663 2404.57L-55.7113 2025.45C-52.9249 1996.63 -25.5515 1976.74 2.71881 1983C5.84342 1983.69 8.89145 1984.69 11.8178 1985.99L102.008 2025.91C120.227 2033.97 131.976 2052.02 131.976 2071.95C131.976 2086 137.853 2099.42 148.186 2108.95L167.106 2126.4C200.445 2157.16 211.818 2206.72 179.969 2239.02C175.114 2243.94 170.249 2248.76 165.481 2253.85C101.469 2322.18 201.802 2418.87 207.964 2512.29C209.601 2537.12 200.773 2559.97 181.019 2575.4C143.347 2604.83 95.6763 2645.17 50.0996 2659.59Z" fill="#3974E4" fill-opacity="0.29"/>
<path d="M-74.3567 2378.03C-104.536 2308.3 -78.0975 2224.97 -48.8841 2189.52C-36.5855 2174.59 -15.9113 2176.66 1.72657 2184.59L58.8994 2210.3C89.8091 2224.2 107.739 2256.92 102.814 2290.46L100.485 2306.32C95.7135 2338.81 118.086 2369.05 150.553 2374C167.378 2376.57 182.309 2386.19 191.592 2400.46L195.579 2406.58C208.881 2427.02 210.566 2452.92 200.023 2474.91L194.232 2486.99C186.517 2503.09 170.252 2513.33 152.405 2513.33C138.228 2513.33 124.831 2519.81 116.033 2530.92L87.7302 2566.68C58.9267 2603.08 14.0235 2622.91 -32.2769 2619.7L-91.4746 2615.6C-102.036 2614.87 -111.908 2610.09 -119.039 2602.27L-130.2 2590.02C-152.984 2565.03 -131.194 2525.35 -97.8758 2531.17C-111.588 2517.06 -118.217 2502.3 -120.74 2488.93C-125.896 2461.61 -101.86 2440.43 -87.8561 2416.41C-79.0007 2401.23 -75.1876 2386.34 -74.3567 2378.03Z" fill="#7D59B8" fill-opacity="0.27"/>
<path d="M208.898 2418.93L204.143 2403.73L188.946 2398.98L204.143 2394.23L208.898 2379.03L213.652 2394.23L228.849 2398.98L213.652 2403.73L208.898 2418.93Z" fill="#FFF7B1"/>
<path d="M158.344 2090.71L155.629 2082.04L146.951 2079.32L155.629 2076.61L158.344 2067.93L161.059 2076.61L169.738 2079.32L161.059 2082.04L158.344 2090.71Z" fill="#FFF7B1"/>
<path d="M15.9896 2629.26L13.2746 2620.58L4.59641 2617.87L13.2746 2615.15L15.9896 2606.47L18.7045 2615.15L27.3827 2617.87L18.7045 2620.58L15.9896 2629.26Z" fill="#FFF7B1"/>
<line x1="197.133" y1="2076.35" x2="197.133" y2="2059.51" stroke="#FFF7B1" stroke-width="3"/>
<path d="M205.65 2067.93L188.808 2067.93" stroke="#FFF7B1" stroke-width="3"/>
<line x1="180.512" y1="2250.63" x2="180.512" y2="2233.78" stroke="#FFF7B1" stroke-width="3"/>
<path d="M189.03 2242.2L172.188 2242.2" stroke="#FFF7B1" stroke-width="3"/>
<circle cx="28.4823" cy="1937.49" r="6.38441" transform="rotate(180 28.4823 1937.49)" fill="#FFF7B1"/>
<circle cx="54.419" cy="1961.83" r="3.59123" transform="rotate(180 54.419 1961.83)" fill="#FFF7B1"/>
<path d="M584.026 99.6521C640.447 135.954 619.89 177.958 602.559 194.423L601.265 195.102C577.56 207.544 549.02 206.403 526.384 192.109L517.932 186.772C502.536 177.05 483.363 175.453 466.571 182.496C458.096 186.05 448.874 187.455 439.726 186.587L432.334 185.886C424.043 185.099 417.066 179.345 414.716 171.355L408.996 151.913C406.84 144.582 406.541 136.83 408.127 129.355L410.224 119.469C412.663 107.974 408.215 96.1089 398.822 89.0489C375.716 71.681 387.849 34.8987 416.754 34.6877L456.313 34.3988C469.437 34.3029 481.712 27.897 489.296 17.1865C498.704 3.90012 515.114 -2.51749 531.039 0.86093L538.472 2.43764C546.092 4.05409 552.462 6.68424 557.756 9.89571C581.528 24.3158 572.556 58.1152 578.877 85.191C580.339 91.4558 582.34 96.4988 584.026 99.6521Z" fill="#7D59B8" fill-opacity="0.27"/>
<path d="M424.413 51.002C445.616 22.5548 492.848 -16.3669 516.817 -2.76085L575.726 42.5667C582.536 47.8073 587.559 55.0267 590.104 63.2347C594.779 78.313 590.526 94.7386 579.12 105.652L550.433 133.1C534.681 148.172 514.657 158.011 493.1 161.27L448.332 168.038C440.132 169.277 432.434 172.762 426.092 178.106C408.396 193.016 381.643 192.47 367.71 173.995C352.505 153.834 346.408 137.548 346.784 125.612C347.114 115.108 355.897 107.481 364.523 101.479C377.857 92.2018 391.35 84.7006 404.48 74.3402C412.547 67.9742 418.271 59.2418 424.413 51.002Z" fill="#3974E4" fill-opacity="0.29"/>
<path d="M535.276 162L538.678 172.874L549.552 176.276L538.678 179.678L535.276 190.552L531.874 179.678L521 176.276L531.874 172.874L535.276 162Z" fill="#FFF7B1"/>
<path d="M403.276 40L406.678 50.8743L417.552 54.2762L406.678 57.6781L403.276 68.5524L399.874 57.6781L389 54.2762L399.874 50.8743L403.276 40Z" fill="#FFF7B1"/>
<line x1="348.293" y1="109" x2="348.293" y2="130.104" stroke="#FFF7B1" stroke-width="3"/>
<path d="M338 119.552L359.104 119.552" stroke="#FFF7B1" stroke-width="3"/>
<circle cx="491" cy="154" r="8" fill="#FFF7B1"/>
<circle cx="402.5" cy="175.5" r="4.5" fill="#FFF7B1"/>
<path d="M83.4436 476.178C83.4992 532.099 47.8044 610.929 59.549 662.094C62.0174 672.848 69.9141 681.027 80.5269 684.044C111.225 692.771 174.934 702.061 191.034 715.276C253.681 766.697 256.848 842.071 214.716 883.924L68.5199 995.607C53.571 1007.03 35.5795 1013.77 16.8074 1015C-21.2783 1017.48 -57.1779 997.022 -74.4593 962.992L-118.982 875.32C-137.807 838.25 -144.421 796.174 -137.878 755.116L-118.614 634.244C-115.491 614.649 -117.963 594.569 -125.744 576.316C-146.36 527.954 -128.736 470.431 -80.6 449.294C-18.4271 421.992 25.7309 417.078 52.9351 426.464C72.9563 433.372 83.4226 454.999 83.4436 476.178Z" fill="#4B7FE2" fill-opacity="0.29"/>
<path d="M143.102 922.059C215.353 954.606 198.68 1007.26 181.312 1029.53L179.918 1030.55C154.402 1049.22 120.864 1052.88 91.9244 1040.13L81.1184 1035.38C61.4341 1026.71 38.7589 1028.2 20.3736 1039.36C11.095 1044.99 0.568641 1048.24 -10.27 1048.83L-19.0269 1049.3C-28.8496 1049.83 -38.0056 1044.33 -42.1473 1035.4L-52.2254 1013.69C-56.0254 1005.51 -57.7291 996.502 -57.183 987.494L-56.4606 975.578C-55.6208 961.725 -62.8894 948.642 -75.0951 942.036C-105.122 925.785 -97.3765 880.698 -63.6477 875.401L-17.4872 868.15C-2.17393 865.745 11.0459 856.117 18.0336 842.281C26.702 825.116 44.7488 814.752 63.9426 815.916L72.9004 816.459C85.4063 817.217 95.5339 820.576 103.604 825.184C127.75 838.97 123.947 872.226 132.03 898.829C135.229 909.357 139.775 917.584 143.102 922.059Z" fill="#B995F4" fill-opacity="0.27"/>
<path d="M-13.5257 662.052C-19.6139 731.241 -30.6409 807.702 -45.3248 846.834C-53.3984 868.35 -75.2287 864.912 -81.8655 842.91C-89.0229 819.183 -96.0017 777.153 -96.7449 703.069C-96.8165 695.927 -97.8502 688.48 -102.027 682.686C-120.078 657.645 -146.384 687.208 -144.805 656.166C-142.45 609.848 -129.473 549.282 -119.343 507.8C-111.77 476.794 -92.7375 450.026 -66.783 431.45L-58.584 425.581C-47.9886 417.998 -39.0892 408.291 -32.4529 397.078L-24.3237 383.343C-13.5467 365.134 5.56353 353.46 26.684 352.183L53.3912 350.569C75.8903 349.209 94.817 367.226 94.566 389.764L94.2936 414.226C93.921 447.683 96.9969 486.628 69.7265 506.015C60.1256 512.841 47.5878 514.504 38.6871 522.221C24.0537 534.907 10.6724 562.721 0.967818 588.663C-7.81223 612.134 -11.3292 637.089 -13.5257 662.052Z" fill="#B995F4" fill-opacity="0.27"/>
<circle cx="112.672" cy="844.93" r="7.59877" fill="#FFF7B1"/>
<circle cx="132.619" cy="443.145" r="4.74923" fill="#FFF7B1"/>
<circle cx="9.13877" cy="750.896" r="5.69908" fill="#FFF7B1"/>
<circle cx="46.1829" cy="394.703" r="3.79938" fill="#FFF7B1"/>
<circle cx="157.303" cy="761.145" r="14.7226" fill="#FFF7B1"/>
<line x1="175.042" y1="411.8" x2="175.042" y2="427.948" stroke="#FFF7B1" stroke-width="3"/>
<path d="M166.814 419.875L182.961 419.875" stroke="#FFF7B1" stroke-width="3"/>
<line x1="234.882" y1="767.043" x2="234.882" y2="783.19" stroke="#FFF7B1" stroke-width="3"/>
<path d="M226.654 775.117L242.801 775.117" stroke="#FFF7B1" stroke-width="3"/>
<path d="M7.71409 852.529L13.2595 870.255L30.9853 875.8L13.2595 881.345L7.71409 899.071L2.16868 881.345L-15.5571 875.8L2.16868 870.255L7.71409 852.529Z" fill="#FFF7B1"/>
<path d="M20.0619 477.34L22.6649 485.66L30.9851 488.263L22.6649 490.866L20.0619 499.186L17.459 490.866L9.13867 488.263L17.459 485.66L20.0619 477.34Z" fill="#FFF7B1"/>
<path d="M172.037 620.767L176.451 634.875L190.559 639.289L176.451 643.702L172.037 657.811L167.624 643.702L153.515 639.289L167.624 634.875L172.037 620.767Z" fill="#FFF7B1"/>
<path d="M383.076 4973.16C311.918 5016.71 275.997 4970.98 266.932 4942.67L266.871 4940.85C265.757 4907.58 282.466 4876.24 310.712 4858.62L321.259 4852.04C340.471 4840.06 352.626 4819.45 353.82 4796.84C354.423 4785.43 357.835 4774.34 363.754 4764.57L368.536 4756.67C373.9 4747.81 384.117 4743.11 394.335 4744.8L419.198 4748.91C428.573 4750.45 437.415 4754.31 444.928 4760.13L454.865 4767.82C466.417 4776.77 482.109 4778.21 495.094 4771.5C527.036 4755.02 561.664 4788.5 546.271 4820.98L525.204 4865.43C518.215 4880.18 518.751 4897.39 526.643 4911.67C536.434 4929.39 534.747 4951.24 522.353 4967.24L516.568 4974.72C507.872 4985.95 498.187 4992.99 488.746 4997.19C463.347 5008.51 438.311 4986.91 411.974 4978C400.065 4973.97 389.316 4972.9 383.076 4973.16Z" fill="#7D59B8" fill-opacity="0.27"/>
<path d="M692.718 4910.99C657.458 4958.26 563.596 5030.47 521.154 5002.94L424.354 4918.9C413.162 4909.19 405.251 4896.25 401.706 4881.85C395.192 4855.42 404.189 4827.57 424.938 4809.95L477.122 4765.61C505.778 4741.27 541.254 4726.37 578.698 4722.96L656.463 4715.87C670.707 4714.57 684.314 4709.35 695.778 4700.8C727.762 4676.93 773.766 4680.6 795.872 4713.82C819.995 4750.08 828.832 4778.74 826.969 4799.25C825.33 4817.3 809.433 4829.54 793.971 4838.99C766.999 4855.49 739.908 4868.06 713.314 4888.27C705.131 4894.48 698.863 4902.76 692.718 4910.99Z" fill="#3974E4" fill-opacity="0.29"/>
<path d="M385.366 4863.59L374.094 4861.92L366.302 4870.23L367.968 4858.96L359.654 4851.17L370.926 4852.84L378.718 4844.52L377.053 4855.79L385.366 4863.59Z" fill="#FFF7B1"/>
<circle cx="350.03" cy="4789.58" r="8" transform="rotate(115.775 350.03 4789.58)" fill="#FFF7B1"/>
<circle cx="391.628" cy="4773.58" r="4.5" transform="rotate(115.775 391.628 4773.58)" fill="#FFF7B1"/>
</g>
<defs>
<clipPath id="clip0_408_4">
<rect width="550" height="5007" fill="white"/>
</clipPath>
</defs>
</svg>
