<svg width="1440" height="143" viewBox="0 0 1440 143" fill="none" xmlns="http://www.w3.org/2000/svg">
<path d="M0 0H1440V13.2363C1440 74.9441 1387.84 123.815 1326.23 120.318C868.01 94.3097 571.581 94.6838 113.671 120.409C52.0982 123.868 0 75.0089 0 13.3393V0Z" fill="#89CEDE" fill-opacity="0.98"/>
<path fill-rule="evenodd" clip-rule="evenodd" d="M1430.05 5.607H1362.09L1347.72 0H1440V51.3975L1430.61 45.479L1430.05 5.607Z" fill="#D6F7FF"/>
<path fill-rule="evenodd" clip-rule="evenodd" d="M9.94609 5.62831H77.914L92.2812 0H-0.000436008V51.5929L9.39351 45.6519L9.94609 5.62831Z" fill="#D6F7FF"/>
<path d="M11.1543 101.053C54.2312 156.478 127.052 133.612 195.541 133.612" stroke="#D6F7FF" stroke-width="9"/>
<path d="M1422.53 101.053C1379.46 156.478 1306.63 133.612 1238.15 133.612" stroke="#D6F7FF" stroke-width="9"/>
</svg>
