<svg width="1928" height="137" viewBox="0 0 1928 137" fill="none" xmlns="http://www.w3.org/2000/svg">
<path d="M4 0H1924V8.18243C1924 69.1251 1872.96 117.733 1812.07 115.218C1164.92 88.4859 762.553 88.8762 115.857 115.283C54.9918 117.768 4 69.1697 4 8.25414V0Z" fill="#89CEDE" fill-opacity="0.98"/>
<path fill-rule="evenodd" clip-rule="evenodd" d="M1911.01 6.03588H1826.9L1809.13 0H1923.31V55.3289L1911.69 48.9577L1911.01 6.03588Z" fill="#D6F7FF"/>
<path fill-rule="evenodd" clip-rule="evenodd" d="M16.3081 6.03588H100.411L118.188 0H4.00044V55.3289L15.6244 48.9577L16.3081 6.03588Z" fill="#D6F7FF"/>
<path d="M4 88.9751C61.4359 153.022 158.53 126.6 249.848 126.6" stroke="#D6F7FF" stroke-width="9"/>
<path d="M1923.69 88.9751C1866.26 153.022 1769.16 126.6 1677.85 126.6" stroke="#D6F7FF" stroke-width="9"/>
</svg>
