<svg width="196" height="176" viewBox="0 0 196 176" fill="none" xmlns="http://www.w3.org/2000/svg">
<circle cx="49.2094" cy="89.1214" r="20.2278" transform="rotate(28.0848 49.2094 89.1214)" fill="#FF9E67"/>
<mask id="mask0_361_631" style="mask-type:alpha" maskUnits="userSpaceOnUse" x="28" y="68" width="42" height="42">
<circle cx="49.2094" cy="89.1214" r="20.2278" transform="rotate(28.0848 49.2094 89.1214)" fill="#FF9E67"/>
</mask>
<g mask="url(#mask0_361_631)">
<path d="M72.7093 88.8746C76.7305 76.3351 58.9494 66.5307 50.5118 64.6514C49.8499 64.5039 49.293 65.0914 49.4143 65.7586L51.4075 76.7249C51.5978 77.7718 50.2383 78.3521 49.6139 77.4905L46.8827 73.722C46.2356 72.8293 44.8318 73.4871 45.1039 74.5556L45.7343 77.0318C46.0339 78.2087 44.3715 78.8016 43.8588 77.7008L40.8977 71.3439C40.4662 70.4176 39.087 70.6585 38.9952 71.6763L37.7991 84.9407C37.7012 86.0263 39.1642 86.463 39.6773 85.5013L41.5862 81.924C41.9244 81.2903 42.8005 81.2091 43.2493 81.77L57.3006 99.3312C58.0423 100.258 59.4938 99.3502 58.9849 98.2777L51.461 82.4228C53.5111 86.4595 64.3194 96.0185 65.4312 97.2639C65.5028 97.344 65.5586 97.4365 65.622 97.5233C69.9691 103.476 71.1489 93.4389 72.7093 88.8746Z" fill="url(#paint0_radial_361_631)"/>
</g>
<mask id="mask1_361_631" style="mask-type:alpha" maskUnits="userSpaceOnUse" x="29" y="68" width="41" height="42">
<circle cx="49.7413" cy="88.9791" r="20.2278" transform="rotate(178.085 49.7413 88.9791)" fill="#FF9E67"/>
</mask>
<g mask="url(#mask1_361_631)">
<path d="M29.879 100.256C32.5532 112.604 51.3474 112.737 60.1519 110.439C61.0217 110.212 61.0363 109.096 60.2004 108.765L53.656 106.176C52.6172 105.765 53.061 104.206 54.1604 104.404C55.0872 104.571 55.642 103.408 54.9292 102.793L53.5639 101.614C52.8415 100.99 53.6214 99.8531 54.4635 100.302C55.2884 100.743 56.0696 99.6524 55.3875 99.0129L52.3942 96.2066C52.2418 96.0637 52.0485 95.9721 51.8413 95.9447L48.8649 95.5514L43.4699 94.634C42.4223 94.4559 41.8567 95.8185 42.7225 96.4346L49.0697 100.952C45.3035 98.4986 34.707 97.3064 33.3128 96.931C33.209 96.9031 33.1126 96.8499 33.0148 96.8052C26.2509 93.7096 28.9481 95.5225 29.879 100.256Z" fill="url(#paint1_radial_361_631)"/>
</g>
<path d="M31.6722 79.7635C31.6722 79.7635 -0.587473 62.5494 17.1197 77.2891C34.8269 92.0289 56.4488 103.566 76.8351 109.154C97.2214 114.741 67.0553 98.6443 67.0553 98.6443" stroke="#7FBCF5" stroke-width="2"/>
<circle cx="153.476" cy="29.2229" r="19.406" transform="rotate(-2.96102 153.476 29.2229)" fill="#75E3B5"/>
<mask id="mask2_361_631" style="mask-type:alpha" maskUnits="userSpaceOnUse" x="134" y="9" width="39" height="40">
<circle cx="153.476" cy="29.2229" r="19.406" transform="rotate(-2.96102 153.476 29.2229)" fill="#FF9E67"/>
</mask>
<g mask="url(#mask2_361_631)">
<path d="M172.67 17.3929C169.777 5.12462 150.393 5.83208 142.493 8.44739C141.85 8.66051 141.674 9.45123 142.122 9.96031L149.031 17.8119C149.734 18.6108 148.869 19.8091 147.889 19.3929L144.14 17.7997C143.125 17.3685 142.262 18.6561 143.046 19.4312L144.329 20.7001C145.193 21.5538 144.074 22.9192 143.067 22.2405L137.974 18.8074C137.126 18.2363 136.069 19.1541 136.515 20.0734L141.941 31.2519C142.417 32.2325 143.896 31.8521 143.84 30.7635L143.652 27.1403C143.615 26.423 144.324 25.9016 144.998 26.1507L164.851 33.4905C165.964 33.9022 166.74 32.3757 165.75 31.7193L152.012 22.6029C155.69 24.9035 169.271 27.4091 170.832 27.8875C170.935 27.919 171.031 27.9694 171.13 28.011C177.639 30.7445 173.645 21.9152 172.67 17.3929Z" fill="url(#paint2_radial_361_631)"/>
</g>
<mask id="mask3_361_631" style="mask-type:alpha" maskUnits="userSpaceOnUse" x="134" y="9" width="40" height="40">
<circle cx="153.842" cy="28.8429" r="19.406" transform="rotate(147.039 153.842 28.8429)" fill="#FF9E67"/>
</mask>
<g mask="url(#mask3_361_631)">
<path d="M143.096 47.9394C151.372 56.7317 166.8 47.646 172.948 41.4029C173.578 40.7624 173.017 39.7997 172.13 39.9475L165.569 41.0407C164.512 41.2168 164.105 39.7164 165.107 39.3351C165.951 39.0137 165.832 37.7836 164.942 37.6304L163.236 37.3369C162.334 37.1816 162.412 35.8611 163.327 35.8138C164.222 35.7675 164.325 34.4848 163.448 34.2966L159.612 33.4737C159.408 33.4299 159.195 33.4512 159.003 33.5346L156.374 34.6787L151.651 36.5292C150.662 36.9169 150.88 38.376 151.939 38.4574L159.214 39.016C154.913 38.8635 145.638 43.1113 144.281 43.5054C144.177 43.5354 144.067 43.5401 143.96 43.5522C136.877 44.3537 139.99 44.5103 143.096 47.9394Z" fill="url(#paint3_radial_361_631)"/>
</g>
<path d="M134 29C134 29 104.705 30.3792 124.637 33.4396C144.57 36.5 165.993 35.3916 183.803 30.3792C201.614 25.3668 172.5 27 172.5 27" stroke="#7FBCF5" stroke-width="2"/>
<path d="M148.064 147.92C148.064 147.92 104.85 174.198 127.787 168.329C150.725 162.46 172.778 150.712 188.696 135.884C204.614 121.056 161.785 140.346 161.785 140.346" stroke="#7FBCF5"/>
<circle cx="155.769" cy="144.778" r="8.93345" transform="rotate(-28.0438 155.769 144.778)" fill="#F782C8"/>
<mask id="mask4_361_631" style="mask-type:alpha" maskUnits="userSpaceOnUse" x="146" y="135" width="19" height="19">
<circle cx="155.77" cy="144.778" r="8.93345" transform="rotate(-28.0438 155.77 144.778)" fill="#FF9E67"/>
</mask>
<g mask="url(#mask4_361_631)">
<path d="M161.464 136.1C158.08 131.823 150.859 135.168 147.693 137.771C147.169 138.202 147.334 138.988 147.956 139.259L150.905 140.546C151.544 140.824 151.363 141.776 150.667 141.801L149.921 141.828C149.356 141.848 149.235 142.633 149.768 142.823C150.354 143.031 150.132 143.908 149.517 143.812L147.995 143.574C147.332 143.47 146.958 144.31 147.48 144.733L150.365 147.071C150.974 147.565 151.821 146.866 151.453 146.174C151.21 145.718 151.513 145.162 152.027 145.119L156.725 144.725C157.908 144.626 157.963 142.915 156.789 142.74L153.868 142.304C155.787 142.538 161.616 141.039 162.659 140.849C162.765 140.829 162.875 140.83 162.983 140.823C166.079 140.643 162.741 137.78 161.464 136.1Z" fill="url(#paint4_radial_361_631)"/>
</g>
<mask id="mask5_361_631" style="mask-type:alpha" maskUnits="userSpaceOnUse" x="146" y="135" width="19" height="19">
<circle cx="155.847" cy="144.548" r="8.93345" transform="rotate(121.956 155.847 144.548)" fill="#FF9E67"/>
</mask>
<g mask="url(#mask5_361_631)">
<path d="M155.093 154.608C160.053 156.576 164.545 150.388 166.087 146.526C166.308 145.972 165.716 145.556 165.224 145.894L163.116 147.346C162.71 147.625 162.248 147.079 162.591 146.725C162.88 146.426 162.59 145.936 162.189 146.046L161.421 146.257C161.014 146.368 160.789 145.802 161.161 145.604C161.526 145.41 161.318 144.855 160.916 144.948L159.196 145.344C159.076 145.372 158.968 145.436 158.887 145.528L158.041 146.488C157.313 147.254 158.125 148.477 159.114 148.103L160.072 147.742C158.316 148.489 155.434 151.836 154.786 152.467C154.709 152.542 154.613 152.6 154.522 152.656C151.825 154.316 153.147 153.791 155.093 154.608Z" fill="url(#paint5_radial_361_631)"/>
</g>
<defs>
<radialGradient id="paint0_radial_361_631" cx="0" cy="0" r="1" gradientUnits="userSpaceOnUse" gradientTransform="translate(58.6399 74.7533) rotate(145.065) scale(24.0077 30.854)">
<stop stop-color="#F6CCB4"/>
<stop offset="1" stop-color="#F6CCB4" stop-opacity="0"/>
</radialGradient>
<radialGradient id="paint1_radial_361_631" cx="0" cy="0" r="1" gradientUnits="userSpaceOnUse" gradientTransform="translate(39.3434 106.784) rotate(-68.5477) scale(16.8395 21.6417)">
<stop stop-color="#F6CCB4"/>
<stop offset="1" stop-color="#F6CCB4" stop-opacity="0"/>
</radialGradient>
<radialGradient id="paint2_radial_361_631" cx="0" cy="0" r="1" gradientUnits="userSpaceOnUse" gradientTransform="translate(154.118 12.7471) rotate(114.019) scale(23.0324 29.6006)">
<stop stop-color="#D0FDEA"/>
<stop offset="1" stop-color="#F6CCB4" stop-opacity="0"/>
</radialGradient>
<radialGradient id="paint3_radial_361_631" cx="0" cy="0" r="1" gradientUnits="userSpaceOnUse" gradientTransform="translate(154.106 48.6226) rotate(-99.5935) scale(16.1554 20.7625)">
<stop stop-color="#D0FDEA"/>
<stop offset="1" stop-color="#F6CCB4" stop-opacity="0"/>
</radialGradient>
<radialGradient id="paint4_radial_361_631" cx="0" cy="0" r="1" gradientUnits="userSpaceOnUse" gradientTransform="translate(152.823 137.783) rotate(88.9364) scale(10.6028 13.6265)">
<stop stop-color="#F8C4EC"/>
<stop offset="1" stop-color="#F6CCB4" stop-opacity="0"/>
</radialGradient>
<radialGradient id="paint5_radial_361_631" cx="0" cy="0" r="1" gradientUnits="userSpaceOnUse" gradientTransform="translate(159.816 152.744) rotate(-124.676) scale(7.43705 9.5579)">
<stop stop-color="#F8C4EC"/>
<stop offset="1" stop-color="#F6CCB4" stop-opacity="0"/>
</radialGradient>
</defs>
</svg>
