<svg width="1555" height="5281" viewBox="0 0 1555 5281" fill="none" xmlns="http://www.w3.org/2000/svg">
<path d="M31.4999 3C592 62.6667 1672.8 258 1512 562C1311 942 -178.5 544.5 22.4999 1045.5C223.5 1546.5 1001 870.5 874.5 1531.5C748 2192.5 438 2470 642 2551.5C846 2633 1189 2633.5 1062.5 2360C997.888 2220.31 713.874 2188.22 544.982 2302.8C80.3447 2618.01 1282.92 2898.31 1413.23 3444.45C1426.93 3501.84 1422.22 3567.08 1393 3641C1193 4147 254 3723 340 4110.5C426 4498 1597 3849 1425.5 4469.5C1362.27 4698.29 1441.83 4846 1482.5 4889.5C1557.33 4970 1634.4 5160.3 1344 5277.5" stroke="#FFF281" stroke-width="6"/>
</svg>
