<svg width="979" height="757" viewBox="0 0 979 757" fill="none" xmlns="http://www.w3.org/2000/svg">
<path d="M166.014 96.2963C252.673 28.6384 385.976 5.62012 487.504 0.953253C553.715 -2.09022 619.984 8.72604 681.633 33.068C872.061 108.258 1067.51 270.37 934.514 533.796C779.014 841.796 297.514 745.296 206.014 731.296C114.514 717.296 20.0136 644.296 4.01359 517.296C-11.9864 390.296 15.5136 213.796 166.014 96.2963Z" fill="black"/>
<g clip-path="url(#clip0_557_86)">
<path d="M252.689 451.996C232.049 451.996 209.368 441.207 201 416.825L219.777 409.009C221.831 415.919 226.085 421.968 231.891 426.234C237.698 430.5 244.738 432.751 251.94 432.642C266.438 432.642 280.01 423.895 280.01 409.009C280.01 400.633 274.432 392.632 261.979 389.844L257.515 388.731L262.908 369.006L270.161 370.682C291.538 375.521 301.576 391.334 301.576 407.897C301.576 429.479 284.478 451.996 252.689 451.996ZM282.244 347.791C280.447 340.999 276.433 335.002 270.841 330.754C265.249 326.507 258.4 324.252 251.381 324.347C238.553 324.347 226.841 331.977 226.841 345.748C226.816 350.142 228.327 354.407 231.111 357.805C233.895 361.203 237.777 363.52 242.087 364.357L247.666 365.658L242.272 385.38L237.257 384.267C228.365 382.615 220.319 377.93 214.489 371.009C208.659 364.088 205.404 355.36 205.278 346.308C205.278 319.327 228.148 305 251.581 305C272.591 305 294.153 316.535 300.291 340.724L282.244 347.791Z" fill="white"/>
<path d="M692.422 448.278V308.715H777.007V328.255H714.732V448.274L692.422 448.278ZM767.898 388.361H729.601V368.821H767.898V388.361Z" fill="white"/>
<path d="M586.48 448.278H574.393V428.742H583.686C614.55 428.742 629.423 403.622 629.423 378.498C629.423 353.375 614.55 328.255 583.686 328.255H574.393V308.715H586.48C630.163 308.715 652.103 343.512 652.103 378.498C652.106 413.295 630.163 448.278 586.48 448.278Z" fill="white"/>
<path d="M381.331 328.255V308.719H343.029V448.282H381.331V428.745H365.344V328.266L381.331 328.255Z" fill="white"/>
</g>
<defs>
<clipPath id="clip0_557_86">
<rect width="576" height="147" fill="white" transform="translate(201 305)"/>
</clipPath>
</defs>
</svg>
