<svg width="1072" height="743" viewBox="0 0 1072 743" fill="none" xmlns="http://www.w3.org/2000/svg">
<path d="M167.192 93.9974C404.692 -49.5026 692.192 13.9974 710.692 13.9974C1187.69 85.9974 1091.69 471.997 982.691 634.997C873.691 797.997 478.692 757.497 212.192 634.997C-54.3079 512.497 -70.3079 237.497 167.192 93.9974Z" fill="white"/>
<g clip-path="url(#clip0_565_11)">
<mask id="mask0_565_11" style="mask-type:luminance" maskUnits="userSpaceOnUse" x="444" y="266" width="183" height="211">
<path d="M627 266H444V477H627V266Z" fill="white"/>
</mask>
<g mask="url(#mask0_565_11)">
<path d="M612.063 305.535L550.451 269.995C541.221 264.668 529.77 264.668 520.558 269.995L458.944 305.542H458.937C449.723 310.863 444 320.775 444 331.403V411.58C444 422.183 449.7 432.078 458.942 437.444L520.495 472.966C525.13 475.661 530.33 477 535.521 477C540.689 477 545.849 475.664 550.442 472.996L612.152 437.399C621.312 432.047 626.998 422.164 626.998 411.578V331.403C627 320.791 621.293 310.885 612.063 305.535Z" fill="#EF4143"/>
</g>
<mask id="mask1_565_11" style="mask-type:luminance" maskUnits="userSpaceOnUse" x="444" y="266" width="183" height="211">
<path d="M627 266H444V477H627V266Z" fill="white"/>
</mask>
<g mask="url(#mask1_565_11)">
<path d="M561.37 368.993C563.758 368.993 564.712 370.207 564.712 372.64C564.712 379.978 559.923 385.484 552.316 385.484C544.606 385.484 539.234 379.371 539.234 371.494C539.234 363.592 544.561 357.516 552.316 357.516C558.058 357.516 562.773 360.216 562.773 362.865C562.773 364.513 561.745 365.528 560.418 365.528C557.828 365.528 557.293 362.762 552.316 362.762C547.568 362.762 545.159 366.899 545.159 371.494C545.159 376.14 547.484 380.247 552.316 380.247C555.321 380.247 558.778 378.562 558.778 374.235H554.901C553.341 374.235 552.234 373.13 552.234 371.579C552.234 369.982 553.446 368.993 554.901 368.993H561.37Z" fill="white"/>
</g>
<mask id="mask2_565_11" style="mask-type:luminance" maskUnits="userSpaceOnUse" x="444" y="266" width="183" height="211">
<path d="M627 266H444V477H627V266Z" fill="white"/>
</mask>
<g mask="url(#mask2_565_11)">
<path d="M517.678 385.116C523.802 385.116 529.483 380.524 529.483 374.284V361.011C529.483 359.173 528.306 358.141 526.725 358.141C525.148 358.141 523.971 359.173 523.971 361.011V373.988C523.971 377.369 521.041 379.915 517.546 379.915C514.051 379.915 511.122 377.369 511.122 373.988V361.011C511.122 359.173 509.944 358.141 508.365 358.141C506.787 358.141 505.609 359.173 505.609 361.011V374.284C505.609 380.524 511.29 385.116 517.412 385.116H517.678Z" fill="white"/>
</g>
<mask id="mask3_565_11" style="mask-type:luminance" maskUnits="userSpaceOnUse" x="444" y="266" width="183" height="211">
<path d="M627 266H444V477H627V266Z" fill="white"/>
</mask>
<g mask="url(#mask3_565_11)">
<path d="M500.095 358.144C498.047 358.144 497.435 359.649 497.435 359.649L489.539 375.615L481.588 359.649C481.588 359.649 480.961 358.144 478.89 358.144C477.293 358.144 476.01 359.182 476.01 361.039V382.113C476.01 383.97 477.201 385.006 478.799 385.006C480.391 385.006 481.574 383.97 481.574 382.113V370.191L487.252 381.813C487.825 382.812 488.66 383.21 489.539 383.21C490.417 383.21 491.261 382.812 491.836 381.813L497.5 370.191V382.113C497.5 383.97 498.685 385.006 500.289 385.006C501.884 385.006 503.069 383.97 503.069 382.113V361.039C503.069 359.182 501.687 358.144 500.095 358.144Z" fill="white"/>
</g>
<mask id="mask4_565_11" style="mask-type:luminance" maskUnits="userSpaceOnUse" x="444" y="266" width="183" height="211">
<path d="M627 266H444V477H627V266Z" fill="white"/>
</mask>
<g mask="url(#mask4_565_11)">
<path d="M537.388 362.035C537.388 363.449 536.241 364.595 534.827 364.595C533.413 364.595 532.266 363.449 532.266 362.035C532.266 360.619 533.413 359.473 534.827 359.473C536.241 359.473 537.388 360.619 537.388 362.035Z" fill="white"/>
</g>
<mask id="mask5_565_11" style="mask-type:luminance" maskUnits="userSpaceOnUse" x="444" y="266" width="183" height="211">
<path d="M627 266H444V477H627V266Z" fill="white"/>
</mask>
<g mask="url(#mask5_565_11)">
<path d="M537.388 370.833C537.388 372.249 536.241 373.393 534.827 373.393C533.413 373.393 532.266 372.249 532.266 370.833C532.266 369.42 533.413 368.273 534.827 368.273C536.241 368.273 537.388 369.42 537.388 370.833Z" fill="white"/>
</g>
<mask id="mask6_565_11" style="mask-type:luminance" maskUnits="userSpaceOnUse" x="444" y="266" width="183" height="211">
<path d="M627 266H444V477H627V266Z" fill="white"/>
</mask>
<g mask="url(#mask6_565_11)">
<path d="M580.99 357.513C573.261 357.513 566.996 363.775 566.996 371.499C566.996 379.223 573.261 385.487 580.99 385.487C588.721 385.487 594.984 379.223 594.984 371.499C594.984 363.775 588.721 357.513 580.99 357.513ZM586.725 376.508H582.939V372.854H578.994L578.996 376.508H575.262V369.891L580.992 365.09L586.723 369.891L586.725 376.508Z" fill="white"/>
</g>
</g>
<defs>
<clipPath id="clip0_565_11">
<rect width="183" height="211" fill="white" transform="translate(444 266)"/>
</clipPath>
</defs>
</svg>
