<svg width="1440" height="1024" viewBox="0 0 1440 1024" fill="none" xmlns="http://www.w3.org/2000/svg">
<path d="M850.103 326.593C723.641 252.741 635.07 234.049 517.981 279.892C456.55 303.943 455.785 387.25 419.861 442.583C405.319 464.981 373.005 482.798 346.723 487.531C321.35 492.1 301.21 498.591 286.464 506.738C206.202 551.082 247.396 718.272 328.67 760.735C356.408 775.227 412.068 766.162 516.409 750.077C584.206 739.626 648.173 713.457 713.812 693.529C758.292 680.024 791.942 682.961 829.962 705.345C979.39 772.357 1041.75 755.947 1119.3 641.619L1145.31 607.795C1160.75 587.728 1183.05 574.064 1207.93 569.423C1238.59 563.705 1270.99 544.259 1268.45 513.174C1262.65 442.305 1133.74 421.073 1119.27 337.22C1116.68 322.22 1109.04 310.829 1098.77 303.219C1037.67 257.923 962.813 370.279 890.762 345.912C877.66 341.481 862.046 333.568 850.103 326.593Z" fill="#3974E4" fill-opacity="0.29"/>
<path d="M996.331 659.587L1041.97 625.927C1137.4 555.554 1379.96 440.461 1265.5 409.5C1257.86 407.433 1186.85 412.742 1124.49 418.628C1066.37 424.114 988.277 378.914 944.383 417.406C902.421 454.204 923.749 540.031 868.167 534.984C800.685 528.856 713.895 440.693 708.454 371.937C707.394 358.54 704.573 345.339 700.297 332.588C636.519 142.412 116.458 335.732 266.1 469.305C334.868 530.688 455.051 480.122 404.65 557.3C399.159 565.707 393.83 575.356 389.382 586.48C366.672 643.279 384.305 713.71 434.378 748.847C554.484 833.127 819.852 791.343 996.331 659.587Z" fill="#7D59B8" fill-opacity="0.27"/>
<path d="M410.5 319L412.764 326.236L420 328.5L412.764 330.764L410.5 338L408.236 330.764L401 328.5L408.236 326.236L410.5 319Z" fill="#FFF7B1"/>
<path d="M294.5 643L296.764 650.236L304 652.5L296.764 654.764L294.5 662L292.236 654.764L285 652.5L292.236 650.236L294.5 643Z" fill="#FFF7B1"/>
<path d="M824.5 367L826.764 374.236L834 376.5L826.764 378.764L824.5 386L822.236 378.764L815 376.5L822.236 374.236L824.5 367Z" fill="#FFF7B1"/>
<path d="M384.5 751L388.432 763.568L401 767.5L388.432 771.432L384.5 784L380.568 771.432L368 767.5L380.568 763.568L384.5 751Z" fill="#FFF7B1"/>
<path d="M966.5 548L968.526 554.474L975 556.5L968.526 558.526L966.5 565L964.474 558.526L958 556.5L964.474 554.474L966.5 548Z" fill="#FFF7B1"/>
<path d="M949 539L951.145 545.855L958 548L951.145 550.145L949 557L946.855 550.145L940 548L946.855 545.855L949 539Z" fill="#FFF7B1"/>
<path d="M754.5 670L758.908 684.092L773 688.5L758.908 692.908L754.5 707L750.092 692.908L736 688.5L750.092 684.092L754.5 670Z" fill="#FFF7B1"/>
<path d="M1192 456L1194.38 463.617L1202 466L1194.38 468.383L1192 476L1189.62 468.383L1182 466L1189.62 463.617L1192 456Z" fill="#FFF7B1"/>
<line x1="566.667" y1="370" x2="566.667" y2="380" stroke="#FFF7B1" stroke-width="3"/>
<path d="M561 375L571 375" stroke="#FFF7B1" stroke-width="3"/>
<path d="M561 375.212L571 375.212" stroke="#FFF7B1" stroke-width="3"/>
<line x1="1029.83" y1="696" x2="1029.83" y2="716" stroke="#FFF7B1" stroke-width="3"/>
<path d="M1020 706L1040 706" stroke="#FFF7B1" stroke-width="3"/>
<path d="M1020 706.425L1040 706.425" stroke="#FFF7B1" stroke-width="3"/>
<line x1="250.333" y1="491" x2="250.333" y2="505" stroke="#FFF7B1" stroke-width="3"/>
<path d="M243 498L257 498" stroke="#FFF7B1" stroke-width="3"/>
<path d="M243 498.297L257 498.297" stroke="#FFF7B1" stroke-width="3"/>
<line x1="946.333" y1="298" x2="946.333" y2="312" stroke="#FFF7B1" stroke-width="3"/>
<path d="M939 305L953 305" stroke="#FFF7B1" stroke-width="3"/>
<path d="M939 305.297L953 305.297" stroke="#FFF7B1" stroke-width="3"/>
<circle cx="828" cy="731" r="1" fill="#FFF7B1"/>
<circle cx="833" cy="727" r="1" fill="#FFF7B1"/>
<circle cx="538.5" cy="691.5" r="4.5" fill="#FFF7B1"/>
<circle cx="281.5" cy="315.5" r="3.5" fill="#FFF7B1"/>
<circle cx="610.5" cy="774.5" r="3.5" fill="#FFF7B1"/>
<circle cx="1153.5" cy="380.5" r="3.5" fill="#FFF7B1"/>
<circle cx="346.5" cy="573.5" r="4.5" fill="#FFF7B1"/>
<circle cx="1114.5" cy="577.5" r="4.5" fill="#FFF7B1"/>
<circle cx="656.5" cy="290.5" r="4.5" fill="#FFF7B1"/>
</svg>
