<svg width="1440" height="1024" viewBox="0 0 1440 1024" fill="none" xmlns="http://www.w3.org/2000/svg">
<path d="M1320.95 785.095L1317.87 780.481C1317.01 779.182 1316.39 777.735 1316.05 776.212C1314.4 768.734 1306.51 764.445 1299.33 767.115L1294.62 768.867C1290.11 770.544 1286.53 774.052 1284.75 778.522L1260.2 840.313C1258.88 843.634 1258.25 847.355 1259.7 850.619C1264.6 861.611 1278.34 864.333 1287.97 864.241C1290.98 864.212 1293.92 863.214 1296.12 861.163C1308.82 849.314 1318.75 819.794 1323.7 800.303C1325.02 795.082 1323.94 789.577 1320.95 785.095Z" fill="#3279AF"/>
<path d="M1302.17 789.067C1304.09 788.496 1309.27 788.081 1314.64 790.989" stroke="#9CD3FC"/>
<path d="M1179.06 796.724C1156.5 797.347 1158.12 785.91 1164.72 775.794C1168.58 769.878 1174.14 765.236 1180.33 761.836C1186.4 758.503 1192.83 756.239 1201.84 755.058C1215.27 753.296 1241.64 747.421 1250.01 748.894L1252.32 756.308C1245.27 762.709 1222.15 777.433 1214.27 782.049C1204.84 787.567 1198.96 791.036 1193.97 793.366C1189.32 795.539 1184.19 796.582 1179.06 796.724Z" fill="#73C1FA"/>
<path d="M1183.85 769.452C1181.57 769.505 1176.44 770.656 1174.18 774.837C1172.19 780.753 1170.87 789.152 1180.32 778.344C1181.38 777.143 1183.14 776.836 1184.73 777.027C1186.05 777.186 1187.59 777.025 1188.95 776.075" stroke="#66B1E8" stroke-width="2"/>
<path d="M1161.23 853.74C1164.23 845.328 1172.35 842.703 1176.03 842.442C1177.58 834.896 1180.01 827.806 1183.1 821.174C1200.78 783.231 1240.03 760.286 1260.21 752.854L1290.92 778.158L1278.83 788.024L1249.13 860.758L1245.97 888.007C1225.13 912.253 1208.06 909.32 1202.12 904.824C1199 902.795 1196.73 900.698 1195.12 898.616C1187.33 888.52 1198.11 874.177 1209.38 868.212L1213.59 849.733L1217.79 831.255L1215.19 838.535L1206.52 862.8C1195.55 873.082 1187.79 874.225 1185.28 873.511C1161.96 870.934 1159.53 859.256 1161.23 853.74Z" fill="#9CD3FC"/>
<path d="M1210.04 867.692C1210.04 871.393 1214.04 878.017 1230.03 874.909" stroke="#8EC0E5"/>
<path d="M1176.73 842.156C1176.73 845.856 1181.29 855.257 1197.27 852.148" stroke="#8EC0E5"/>
<path d="M1215.09 783.254C1222.7 791.598 1253.29 808.997 1270.6 818.007C1271.54 818.495 1272 819.573 1271.71 820.591L1270.5 824.849C1270.2 825.873 1269.24 826.552 1268.19 826.361C1251.36 823.279 1205.99 797.459 1204.49 789.973C1204.15 788.284 1207.65 784.88 1210.73 782.451C1211.96 781.481 1214.03 782.096 1215.09 783.254Z" fill="#6CA8D5"/>
<path d="M1301.73 779.177C1302.79 785.542 1297.17 814.357 1293.94 820.33C1288.17 838.125 1279.37 864.376 1259.31 864.336C1252.4 862.847 1241.2 855.698 1251.77 839.022C1245.99 837.821 1239.22 832.614 1258.42 821.383C1262.11 816.117 1264.47 816.031 1269.14 806.914C1273.37 798.665 1279.21 778.055 1279.55 772.003L1301.73 779.177Z" fill="#73C1FA"/>
<path d="M1256.33 752.747L1251.89 750.282L1245.3 762.158L1249.74 764.622L1256.33 752.747Z" fill="#3279AF"/>
<path d="M1279.83 769.956L1278.09 765.189L1262.2 771L1263.95 775.768L1279.83 769.956Z" fill="#3279AF"/>
<path d="M1270.93 768.305C1307.22 787.939 1350.75 777.78 1368.15 745.615C1385.55 713.449 1370.24 671.457 1333.95 651.822C1297.66 632.188 1254.14 642.347 1236.73 674.513C1219.33 706.679 1234.64 748.671 1270.93 768.305Z" fill="#9CD3FC"/>
<mask id="mask0_376_864" style="mask-type:alpha" maskUnits="userSpaceOnUse" x="1230" y="644" width="147" height="137">
<path d="M1368.83 747.915C1351.43 780.082 1307.9 790.241 1271.61 770.606C1235.32 750.972 1220.01 708.98 1237.42 676.814C1254.82 644.648 1298.35 634.489 1334.64 654.123C1370.93 673.758 1386.24 715.75 1368.83 747.915Z" fill="#9CD3FC"/>
</mask>
<g mask="url(#mask0_376_864)">
<path d="M1351.15 735.452C1336.56 762.419 1299.44 770.883 1268.09 753.924C1236.75 736.965 1223.52 701.261 1238.11 674.294C1252.7 647.327 1289.82 638.862 1321.17 655.821C1352.52 672.781 1365.74 708.484 1351.15 735.452Z" fill="#9CD3FC" stroke="#73B9EE" stroke-width="2"/>
<path d="M1265.45 749.894C1295.14 765.958 1330.6 757.92 1344.66 731.94C1358.72 705.96 1346.04 671.876 1316.35 655.812C1286.66 639.747 1251.19 647.786 1237.14 673.766C1223.08 699.746 1235.76 733.83 1265.45 749.894Z" fill="#3279AF"/>
</g>
<path d="M1239.03 760.236C1240.85 758.336 1243.75 757.973 1245.98 759.366L1269.69 774.168C1272.06 775.65 1272.96 778.669 1271.78 781.209L1267.44 790.579C1266.04 793.608 1262.3 794.722 1259.47 792.953L1232.87 776.344C1229.88 774.479 1229.36 770.339 1231.8 767.796L1239.03 760.236Z" fill="#7C9FB9"/>
<path d="M1237.53 759.461C1239.33 757.476 1242.3 757.066 1244.58 758.487L1268.03 773.136C1270.47 774.656 1271.34 777.784 1270.05 780.346L1266.22 787.935C1264.75 790.849 1261.09 791.871 1258.32 790.142L1232.91 774.271C1229.97 772.436 1229.41 768.389 1231.74 765.826L1237.53 759.461Z" fill="#C0E0F8"/>
<path d="M1241.32 769.008C1242.31 769.626 1243.62 769.325 1244.24 768.335C1244.85 767.344 1244.55 766.041 1243.56 765.423C1242.57 764.804 1241.27 765.106 1240.65 766.096C1240.03 767.086 1240.33 768.39 1241.32 769.008Z" stroke="#4D98D2"/>
<path d="M1259.43 780.315C1260.42 780.933 1261.72 780.631 1262.34 779.641C1262.96 778.651 1262.66 777.348 1261.67 776.729C1260.68 776.111 1259.37 776.413 1258.76 777.403C1258.14 778.393 1258.44 779.696 1259.43 780.315Z" stroke="#4D98D2"/>
<path d="M1308.72 744.282C1312.23 749.315 1320.32 749.741 1326.79 745.233C1333.26 740.725 1335.66 732.99 1332.15 727.957C1328.65 722.924 1320.56 722.499 1314.09 727.007C1307.62 731.515 1305.21 739.25 1308.72 744.282Z" fill="#C2E5FF"/>
<path d="M1294.25 751.964C1297.14 753.526 1300.74 752.452 1302.3 749.565C1303.87 746.679 1302.79 743.072 1299.9 741.511C1297.02 739.949 1293.41 741.023 1291.85 743.909C1290.29 746.796 1291.36 750.402 1294.25 751.964Z" fill="#C2E5FF"/>
<path d="M1350.12 772.357C1339.57 778.567 1327.14 777.011 1322.36 768.882C1317.57 760.752 1324.06 752.228 1334.61 746.018C1345.15 739.808 1355.76 738.266 1360.55 746.394C1365.33 754.524 1360.66 766.147 1350.12 772.357Z" fill="#6492B4"/>
<path d="M1352.24 775.954C1342.75 781.542 1332.66 782.012 1327.46 773.179C1323.86 767.065 1326.31 762.79 1331.31 758.883C1336.23 755.034 1342.03 752.459 1347.8 750.057C1353.8 747.559 1358.18 746.751 1361.83 752.942C1367.03 761.774 1361.73 770.365 1352.24 775.954Z" fill="#9CD3FC"/>
</svg>
