<svg width="1440" height="1024" viewBox="0 0 1440 1024" fill="none" xmlns="http://www.w3.org/2000/svg">
<path d="M556.012 732.621C556.191 731.497 557.809 731.497 557.987 732.621L565.596 780.557C565.696 781.185 566.348 781.561 566.942 781.334L612.26 763.955C613.323 763.548 614.132 764.949 613.247 765.666L575.538 796.223C575.044 796.623 575.044 797.377 575.538 797.777L613.247 828.334C614.132 829.051 613.323 830.452 612.26 830.045L566.942 812.666C566.348 812.439 565.696 812.815 565.596 813.443L557.987 861.379C557.809 862.503 556.191 862.503 556.012 861.379L548.403 813.443C548.304 812.815 547.651 812.439 547.058 812.666L501.74 830.045C500.677 830.452 499.868 829.051 500.752 828.334L538.461 797.777C538.955 797.377 538.955 796.623 538.461 796.223L500.752 765.666C499.868 764.949 500.677 763.548 501.74 763.955L547.058 781.334C547.651 781.561 548.304 781.185 548.403 780.557L556.012 732.621Z" fill="#FFE500"/>
<path d="M570.143 774.235L559.469 706.987C559.023 704.176 554.977 704.176 554.531 706.987L543.857 774.235L480.281 749.855C477.624 748.836 475.601 752.34 477.812 754.132L530.713 797L477.812 839.868C475.601 841.66 477.624 845.164 480.281 844.145L543.857 819.765L554.531 887.013C554.977 889.824 559.023 889.824 559.469 887.013L570.143 819.765L633.719 844.145C636.376 845.164 638.399 841.66 636.188 839.868L583.287 797L636.188 754.132C638.399 752.34 636.376 748.836 633.719 749.855L570.143 774.235Z" stroke="#FFEC48" stroke-width="3"/>
</svg>
