<svg width="1440" height="1024" viewBox="0 0 1440 1024" fill="none" xmlns="http://www.w3.org/2000/svg">
<circle cx="1220.81" cy="222.972" r="75.7076" transform="rotate(20.26 1220.81 222.972)" fill="#BC67FF"/>
<mask id="mask0_376_862" style="mask-type:alpha" maskUnits="userSpaceOnUse" x="1145" y="147" width="152" height="152">
<circle cx="1220.81" cy="222.973" r="75.7076" transform="rotate(20.26 1220.81 222.973)" fill="#FF9E67"/>
</mask>
<g mask="url(#mask0_376_862)">
<path d="M1307.82 210.083C1316.69 159.546 1239.46 132.041 1209.4 131.372C1208.72 131.357 1208.28 132.02 1208.49 132.664L1226.39 187.346C1226.72 188.357 1225.46 189.117 1224.72 188.349L1194.41 156.698C1193.65 155.902 1192.35 156.744 1192.76 157.766L1212.79 207.07C1213.25 208.196 1211.68 209.009 1211.03 207.989L1175.41 152.725C1174.86 151.866 1173.52 152.293 1173.57 153.313L1177 226.793C1177.05 227.881 1178.56 228.115 1178.94 227.092L1190.32 196.264C1190.57 195.59 1191.42 195.39 1191.94 195.885L1273.1 272.93C1273.96 273.748 1275.28 272.65 1274.63 271.657L1225.74 196.987C1235.71 211.348 1283.21 242.743 1285.43 245.202C1285.51 245.282 1285.55 245.349 1285.62 245.427C1305.11 266.04 1304.34 227.901 1307.82 210.083Z" fill="url(#paint0_radial_376_862)"/>
</g>
<mask id="mask1_376_862" style="mask-type:alpha" maskUnits="userSpaceOnUse" x="1146" y="146" width="153" height="152">
<circle cx="1222.71" cy="222.175" r="75.7076" transform="rotate(170.26 1222.71 222.175)" fill="#FF9E67"/>
</mask>
<g mask="url(#mask1_376_862)">
<path d="M1154.81 274.109C1172.18 321.724 1251.08 307.865 1278.41 293.594C1279.2 293.178 1279.03 292.034 1278.16 291.821L1221.97 278.06C1220.8 277.773 1221.04 276.039 1222.25 276.09L1255.95 277.491C1256.97 277.533 1257.39 276.207 1256.54 275.653L1228.31 257.336C1227.31 256.686 1228.09 255.146 1229.21 255.559L1260.14 266.976C1261.23 267.381 1262.01 265.898 1261.06 265.222L1235.51 247.111C1235.34 246.991 1235.14 246.926 1234.93 246.927L1222.81 246.99L1190.36 245.956C1189.3 245.922 1188.92 247.349 1189.87 247.842L1226.32 266.909C1210.56 259.475 1168.31 260.792 1165.4 259.95C1165.3 259.92 1165.22 259.879 1165.12 259.848C1137.9 251.626 1148.91 256.938 1154.81 274.109Z" fill="url(#paint1_radial_376_862)"/>
</g>
<path d="M1151.02 197.209C1151.02 197.209 1022.63 149.819 1095.8 195.45C1168.96 241.081 1255.01 272.843 1333.45 283.173C1411.89 293.503 1291.83 249.188 1291.83 249.188" stroke="#7FBCF5" stroke-width="6"/>
<rect x="1183.61" y="165.935" width="6.09696" height="6.09696" rx="1" transform="rotate(29.1379 1183.61 165.935)" fill="#FFE609"/>
<rect x="1265.68" y="131.412" width="6.09696" height="6.09696" rx="1" transform="rotate(29.1379 1265.68 131.412)" fill="#FFE609"/>
<rect x="1311.77" y="198.988" width="6.09696" height="6.09696" rx="1" transform="rotate(29.1379 1311.77 198.988)" fill="#FFE609"/>
<rect x="1165.53" y="279.764" width="6.09696" height="6.09696" rx="1" transform="rotate(29.1379 1165.53 279.764)" fill="#FFE609"/>
<rect x="1134.45" y="272.909" width="6.09696" height="6.09696" rx="1" transform="rotate(29.1379 1134.45 272.909)" fill="#CBE71F"/>
<rect x="1142.74" y="270.552" width="6.09696" height="6.09696" rx="1" transform="rotate(29.1379 1142.74 270.552)" fill="#CBE71F"/>
<rect x="1140.39" y="262.258" width="6.09696" height="6.09696" rx="1" transform="rotate(29.1379 1140.39 262.258)" fill="#CBE71F"/>
<rect x="1132.09" y="264.615" width="6.09696" height="6.09696" rx="1" transform="rotate(29.1379 1132.09 264.615)" fill="#CBE71F"/>
<rect x="1295.38" y="168.911" width="6.09696" height="6.09696" rx="1" transform="rotate(29.1379 1295.38 168.911)" fill="#CBE71F"/>
<rect x="1303.68" y="166.553" width="6.09696" height="6.09696" rx="1" transform="rotate(29.1379 1303.68 166.553)" fill="#CBE71F"/>
<rect x="1301.32" y="158.26" width="6.09696" height="6.09696" rx="1" transform="rotate(29.1379 1301.32 158.26)" fill="#CBE71F"/>
<rect x="1293.03" y="160.617" width="6.09696" height="6.09696" rx="1" transform="rotate(29.1379 1293.03 160.617)" fill="#CBE71F"/>
<circle cx="1164.85" cy="100.756" r="25.3731" transform="rotate(53.7503 1164.85 100.756)" fill="#0455F2"/>
<path d="M1158.27 82.9868L1138.32 65.7372C1137.47 65.0057 1136.25 66.0033 1136.79 66.9804L1148.55 88.0902C1154.17 98.1733 1161.01 107.523 1168.93 115.926L1186.24 134.314C1187 135.116 1188.3 134.285 1187.9 133.261L1179.43 111.844" stroke="#F87FB2" stroke-width="3"/>
<path fill-rule="evenodd" clip-rule="evenodd" d="M1179.85 121.217C1179.85 121.217 1179.85 121.217 1179.85 121.217C1191.15 112.931 1193.59 97.0525 1185.31 85.7516C1177.02 74.4507 1161.14 72.0067 1149.84 80.2928C1149.84 80.2928 1149.84 80.2929 1149.84 80.2929L1179.85 121.217Z" fill="#0455F2"/>
<path d="M1175.49 82.2997C1175.59 81.6525 1175.29 81.0019 1174.74 80.652V80.652C1170.01 77.6658 1164.15 76.7303 1158.73 78.0956V78.0956C1158.09 78.2556 1157.6 78.7809 1157.5 79.4281L1157.38 80.1551C1157.24 81.0734 1158.14 81.8075 1159.01 81.4792V81.4792C1163.88 79.6406 1169.36 80.5156 1173.42 83.7795V83.7795C1174.14 84.3624 1175.23 83.9451 1175.37 83.0268L1175.49 82.2997Z" fill="#9DBFFF"/>
<circle cx="1247.71" cy="344.207" r="29.7455" transform="rotate(10.7393 1247.71 344.207)" fill="#8FEBFF"/>
<mask id="mask2_376_862" style="mask-type:alpha" maskUnits="userSpaceOnUse" x="1217" y="314" width="61" height="60">
<circle cx="1247.71" cy="344.207" r="29.7455" transform="rotate(10.7393 1247.71 344.207)" fill="#C95F85"/>
</mask>
<g mask="url(#mask2_376_862)">
<path d="M1275.63 326.488C1282.28 321.033 1294.37 328.121 1301.57 333.902C1302.36 334.535 1303.57 333.762 1303.28 332.791L1293.1 298.049C1292.96 297.565 1292.48 297.262 1291.98 297.343L1182.81 315.104C1182.18 315.206 1181.8 315.859 1182.03 316.451L1191.47 340.89C1191.52 341.018 1191.6 341.137 1191.69 341.234C1207.81 357.543 1217.81 350.6 1220.95 344.873C1221.04 344.719 1221.07 344.539 1221.07 344.363C1220.63 331.985 1228.75 328.298 1236.86 328.026C1243.88 327.79 1249.41 333.263 1255.89 335.985C1264.98 339.809 1272.3 332.335 1275.4 326.764C1275.46 326.659 1275.54 326.565 1275.63 326.488Z" fill="#33AA54"/>
<path d="M1301.66 348.824C1310.02 350.847 1317.83 339.208 1321.81 330.869C1322.24 329.956 1323.66 330.128 1323.83 331.126L1329.76 366.839C1329.85 367.337 1329.55 367.818 1329.06 367.961L1223.02 399.428C1222.41 399.609 1221.79 399.183 1221.74 398.55L1219.61 372.439C1219.6 372.303 1219.62 372.161 1219.67 372.032C1227.09 350.339 1239.12 352.243 1244.43 356.036C1244.58 356.138 1244.69 356.285 1244.76 356.445C1252.03 372.997 1267.68 364.942 1274.85 358.642C1275 358.513 1275.1 358.338 1275.15 358.15C1280.28 339.432 1294.63 343.958 1301.34 348.675C1301.44 348.744 1301.55 348.796 1301.66 348.824Z" fill="#33AA54"/>
</g>
<defs>
<radialGradient id="paint0_radial_376_862" cx="0" cy="0" r="1" gradientUnits="userSpaceOnUse" gradientTransform="translate(1248.45 164.892) rotate(137.24) scale(89.8549 115.479)">
<stop stop-color="#EACFFF"/>
<stop offset="1" stop-color="#EACFFF" stop-opacity="0"/>
</radialGradient>
<radialGradient id="paint1_radial_376_862" cx="0" cy="0" r="1" gradientUnits="userSpaceOnUse" gradientTransform="translate(1193.23 293.492) rotate(-76.3725) scale(63.0262 80.9996)">
<stop stop-color="#EACFFF"/>
<stop offset="1" stop-color="#EACFFF" stop-opacity="0"/>
</radialGradient>
</defs>
</svg>
