<svg width="1440" height="1024" viewBox="0 0 1440 1024" fill="none" xmlns="http://www.w3.org/2000/svg">
<path d="M191.989 129.688C195.252 125.556 201.875 127.331 202.635 132.541L209.928 182.538C210.245 184.712 211.724 186.538 213.783 187.3L261.172 204.828C266.11 206.655 266.469 213.502 261.749 215.835L216.452 238.221C214.483 239.194 213.203 241.165 213.115 243.359L211.088 293.845C210.877 299.106 204.476 301.563 200.799 297.795L165.511 261.633C163.977 260.061 161.707 259.453 159.593 260.047L110.952 273.72C105.883 275.145 101.568 269.817 104.016 265.155L127.504 220.42C128.524 218.475 128.401 216.128 127.183 214.301L99.1475 172.266C96.2261 167.886 99.9604 162.135 105.15 163.022L154.955 171.537C157.119 171.907 159.313 171.065 160.674 169.341L191.989 129.688Z" fill="#FFEC48"/>
<path d="M255.18 158.853C255.756 159.854 255.399 161.133 254.388 161.69L224.256 178.306C223.574 178.682 222.717 178.442 222.329 177.768V177.768C221.941 177.094 222.164 176.233 222.831 175.832L252.329 158.114C253.319 157.519 254.604 157.853 255.18 158.853V158.853Z" fill="#FFEC48"/>
<path d="M133.416 126.227C132.416 126.805 132.086 128.091 132.683 129.079L150.471 158.535C150.873 159.201 151.734 159.423 152.408 159.033V159.033C153.081 158.643 153.319 157.785 152.941 157.105L136.254 127.012C135.694 126.002 134.415 125.648 133.416 126.227V126.227Z" fill="#FFEC48"/>
<path d="M76.4547 228.834C76.1559 227.719 76.8303 226.575 77.951 226.297L111.347 218.007C112.103 217.82 112.869 218.272 113.07 219.023V219.023C113.272 219.775 112.834 220.549 112.086 220.765L79.0191 230.283C77.9094 230.603 76.7536 229.95 76.4547 228.834V228.834Z" fill="#FFEC48"/>
<path d="M149.116 310.985C148.001 310.686 147.348 309.53 147.667 308.421L157.186 275.354C157.401 274.606 158.175 274.168 158.927 274.369V274.369C159.679 274.571 160.131 275.337 159.943 276.092L151.653 309.489C151.375 310.609 150.231 311.284 149.116 310.985V310.985Z" fill="#FFEC48"/>
<path d="M252.911 276.116C252.094 276.932 250.767 276.92 249.966 276.088L226.088 251.311C225.548 250.751 225.556 249.861 226.106 249.311V249.311C226.657 248.761 227.546 248.753 228.107 249.293L252.884 273.17C253.715 273.972 253.727 275.299 252.911 276.116V276.116Z" fill="#FFEC48"/>
</svg>
