<svg width="1920" height="595" viewBox="0 0 1920 595" fill="none" xmlns="http://www.w3.org/2000/svg">
<path d="M140.1 9.77069C626.365 66.9699 1214.78 64.3412 1776.65 8.23086C1830.43 2.86007 1879.55 38.9562 1887.1 91.8729C1906.2 225.72 1911.82 355.163 1912.65 451.183C1913.07 499.181 1912.29 538.799 1911.41 566.404C1910.97 580.207 1910.51 591.005 1910.15 598.344C1910.08 599.883 1910.01 601.27 1909.94 602.5H3.93803C3.82451 601.055 3.69692 599.389 3.55806 597.508C2.98712 589.775 2.22565 578.421 1.4672 563.979C-0.0497971 535.094 -1.55408 493.868 -1.4985 444.561C-1.38731 345.903 4.9696 215.096 29.8816 86.1356C39.6105 35.7729 88.2616 3.67288 140.1 9.77069Z" fill="#87CBDC" fill-opacity="0.38" stroke="#98D9EF" stroke-width="15"/>
</svg>
