<svg width="297" height="289" viewBox="0 0 297 289" fill="none" xmlns="http://www.w3.org/2000/svg">
<g clip-path="url(#clip0_495_39)">
<path d="M207.7 160.131L203.757 157.064C202.647 156.203 201.707 155.142 200.985 153.937C197.438 148.02 189.48 146.602 184.107 150.93L179.775 154.42C176.868 156.76 174.859 160.032 174.085 163.682L162.499 218.319C161.636 222.385 162.023 226.864 165.146 229.609C174.368 237.715 192.435 238.858 201.984 236.843C204.635 236.284 206.871 234.58 208.165 232.201C215.638 218.457 215.714 190.403 214.385 172.341C214.028 167.503 211.53 163.109 207.7 160.131Z" fill="#3279AF"/>
<path d="M100.664 206.355C102.005 181.835 129.331 155.463 142.826 145.342L172.281 144.897L191.415 162.077C190.502 169.812 188.888 189.008 187.645 204.396C186.505 218.503 181.587 231.581 170.737 240.669C167.087 243.727 161.482 244.985 156.827 243.983L94.0433 230.463L50.7925 220.654C43.5961 219.022 35.2013 214.649 31.0897 208.521C28.0423 203.98 26.306 200.379 27.1947 194.983C27.4639 193.348 27.8696 191.604 28.3523 189.86C30.6163 181.683 35.8121 172.17 44.2273 173.251C51.2313 174.15 56.9741 181.433 56.0417 190.989C71.4705 195.226 91.1154 199.585 100.664 206.355Z" fill="#9CD3FC"/>
<path d="M108.439 212.471C129.524 215.203 150.736 227.066 158.587 231.075L159.316 243.784L111.94 236.506C101.091 234.839 90.1283 232.13 81.2455 225.682C75.8563 221.77 74.6838 219.148 73.8884 216.631C71.8054 210.035 77.8382 189.103 91.632 194.374C101.228 199.083 107.111 201.107 108.439 212.471Z" fill="#9CD3FC"/>
<path d="M91.2028 193.43C92.3723 193.751 93.6526 194.102 94.968 194.547C107.694 198.839 108.867 217.995 98.64 226.701C93.8816 230.751 88.9082 230.233 86.2682 229.645C81.7055 228.63 74.3093 222.213 73.6487 216.219C72.8914 209.344 76.209 191.386 91.2028 193.43Z" fill="#6FA8D4"/>
<path d="M73.0856 120.327C63.6545 104.148 71.2527 100.824 81.5376 102.207C85.3924 102.725 89.1214 104.082 92.3949 106.183L98.1939 99.7402C100.419 97.3263 101.868 98.0347 102.682 99.3497C103.392 100.495 103.234 101.932 102.903 103.238L99.9543 114.876C107.512 125.348 134.778 143.657 137.502 151.462L137.327 151.574C133.674 153.914 130.222 156.556 127.006 159.468C118.801 156.687 91.1258 137.256 83.9167 132.885C82.9822 132.091 82.2527 131.47 81.68 130.983C78.1904 128.015 75.3926 124.285 73.0856 120.327Z" fill="#73C1FA"/>
<path d="M143.27 150.911L138.776 150.07L136.526 162.096L141.02 162.937L143.27 150.911Z" fill="#3279AF"/>
<path d="M168.256 158.916L165.407 155.34L153.49 164.833L156.339 168.409L168.256 158.916Z" fill="#3279AF"/>
<path d="M160.177 160.042C196.779 166.474 231.072 145.388 236.773 112.945C242.474 80.5024 217.424 48.9884 180.822 42.5567C144.219 36.125 109.926 57.2112 104.225 89.6539C98.5246 122.097 123.575 153.611 160.177 160.042Z" fill="#9CD3FC"/>
<mask id="mask0_495_39" style="mask-type:alpha" maskUnits="userSpaceOnUse" x="104" y="43" width="135" height="120">
<path d="M237.03 114.544C231.444 146.334 197.765 167.185 161.591 160.829C125.418 154.472 100.866 123.389 106.452 91.5985C112.038 59.808 145.717 38.9568 181.89 45.3131C218.063 51.6694 242.616 82.7531 237.03 114.544Z" fill="#9CD3FC" stroke="#73B9EE" stroke-width="2"/>
</mask>
<g mask="url(#mask0_495_39)">
<path d="M219.352 109.108C214.572 136.308 185.269 154.121 153.654 148.565C122.038 143.01 100.563 116.274 105.342 89.0746C110.122 61.8752 139.425 44.0622 171.041 49.6178C202.656 55.1731 224.131 81.9088 219.352 109.108Z" fill="#9CD3FC" stroke="#73B9EE" stroke-width="2"/>
<path d="M150.245 145.875C180.192 151.138 208.202 134.161 212.806 107.958C217.411 81.7538 196.866 56.2456 166.919 50.9833C136.972 45.721 108.962 62.6974 104.358 88.9011C99.7534 115.105 120.298 140.613 150.245 145.875Z" fill="#3279AF"/>
</g>
<path d="M130.626 162.24C131.638 160.099 134.014 158.961 136.317 159.516L160.788 165.405C163.239 165.995 164.868 168.319 164.586 170.824L163.549 180.067C163.212 183.055 160.333 185.073 157.409 184.369L129.948 177.759C126.865 177.017 125.243 173.629 126.598 170.761L130.626 162.24Z" fill="#7C9FB9"/>
<path d="M129.12 162.006C130.097 159.796 132.514 158.6 134.864 159.166L159.082 164.995C161.596 165.6 163.234 168.023 162.859 170.582L161.748 178.158C161.322 181.067 158.489 182.982 155.631 182.294L129.391 175.978C126.358 175.249 124.726 171.95 125.987 169.096L129.12 162.006Z" fill="#C0E0F8"/>
<path d="M135.082 169.082C136.104 169.328 137.132 168.699 137.378 167.677C137.624 166.655 136.995 165.627 135.973 165.381C134.951 165.135 133.923 165.764 133.677 166.786C133.431 167.808 134.06 168.836 135.082 169.082Z" stroke="#4D98D2"/>
<path d="M153.776 173.581C154.798 173.827 155.826 173.198 156.072 172.176C156.318 171.154 155.689 170.126 154.667 169.88C153.645 169.634 152.617 170.263 152.371 171.285C152.125 172.307 152.754 173.335 153.776 173.581Z" stroke="#4D98D2"/>
<path d="M185.62 128.745C190.05 132.046 197.082 130.104 201.325 124.408C205.569 118.712 205.418 111.419 200.988 108.118C196.557 104.817 189.526 106.759 185.282 112.455C181.038 118.151 181.189 125.445 185.62 128.745Z" fill="#C2E5FF"/>
<path d="M175.445 139.435C178.357 139.946 181.132 138.001 181.643 135.089C182.155 132.178 180.209 129.403 177.298 128.891C174.386 128.38 171.611 130.325 171.1 133.237C170.588 136.148 172.534 138.923 175.445 139.435Z" fill="#C2E5FF"/>
<path d="M228.992 140.934C221.752 149.245 210.69 151.458 204.282 145.877C197.875 140.296 200.993 131.162 208.233 122.85C215.473 114.539 224.093 110.198 230.5 115.78C236.907 121.361 236.231 132.622 228.992 140.934Z" fill="#6492B4"/>
<path d="M231.827 143.402C225.311 150.882 216.828 154.158 209.867 148.095C205.048 143.896 205.922 139.545 209.079 134.782C212.188 130.091 216.408 126.238 220.653 122.542C225.066 118.697 228.584 116.756 233.464 121.007C240.424 127.07 238.343 135.922 231.827 143.402Z" fill="#9CD3FC"/>
<path d="M256.104 148.586C270.258 136.323 264.142 130.722 253.962 128.706C250.147 127.951 246.18 128.03 242.403 128.959L238.997 120.988C237.672 117.985 236.071 118.187 234.876 119.168C233.834 120.023 233.519 121.434 233.41 122.777L232.44 134.742C221.903 142.21 190.161 152.27 185.061 158.776C186.918 162.039 188.319 165.539 189.228 169.182L190.08 172.598C198.744 172.618 233.561 158.774 241.795 156.968C242.937 156.518 243.827 156.169 244.526 155.892C248.788 154.211 252.642 151.585 256.104 148.586Z" fill="#73C1FA"/>
<path d="M149.839 241.658L147.013 227.401L154.028 228.29L166.404 222.874L162.29 243.522C159.741 244.176 157.057 244.079 154.563 243.243L149.839 241.658Z" fill="#9CD3FC"/>
<path d="M103.804 190.579C103.304 186.576 106.213 177.266 111.094 178.908C135.714 187.191 160.578 194.548 187.151 197.495C188.231 197.616 189.191 198.307 189.304 199.389C189.562 201.876 188.904 205.23 188.448 206.891C182.462 216.733 130.638 201.075 104.865 191.79C104.311 191.59 103.877 191.164 103.804 190.579Z" fill="#6CA8D5"/>
</g>
<defs>
<clipPath id="clip0_495_39">
<rect width="244" height="232" fill="white" transform="translate(61.436) rotate(15.3557)"/>
</clipPath>
</defs>
</svg>
