<svg width="1440" height="1024" viewBox="0 0 1440 1024" fill="none" xmlns="http://www.w3.org/2000/svg">
<path d="M604.78 122.914C597.408 154.513 565.815 174.153 534.215 166.78C502.616 159.408 482.977 127.815 490.349 96.2154C497.722 64.6162 529.315 44.9767 560.914 52.3494C592.513 59.722 612.153 91.315 604.78 122.914Z" fill="#595A66"/>
<path d="M595.573 120.766C589.387 147.28 562.878 163.759 536.363 157.573C509.849 151.387 493.37 124.878 499.556 98.3636C505.742 71.8493 532.251 55.3702 558.766 61.5565C585.28 67.7427 601.759 94.2517 595.573 120.766Z" fill="#ECF0F9"/>
<mask id="mask0_376_935" style="mask-type:alpha" maskUnits="userSpaceOnUse" x="498" y="60" width="99" height="99">
<path d="M595.573 120.766C589.387 147.28 562.878 163.759 536.363 157.573C509.849 151.387 493.37 124.878 499.556 98.3637C505.742 71.8494 532.251 55.3703 558.766 61.5566C585.28 67.7428 601.759 94.2518 595.573 120.766Z" fill="#ECF0F9"/>
</mask>
<g mask="url(#mask0_376_935)">
<rect x="535.618" y="151.852" width="5.40249" height="10.805" rx="2.70125" transform="rotate(13.1332 535.618 151.852)" fill="#595A66"/>
<rect x="558.021" y="55.835" width="5.40249" height="10.805" rx="2.70125" transform="rotate(13.1332 558.021 55.835)" fill="#595A66"/>
<rect x="601.294" y="120.021" width="5.40249" height="10.805" rx="2.70125" transform="rotate(103.133 601.294 120.021)" fill="#595A66"/>
<rect x="505.278" y="97.6183" width="5.40249" height="10.805" rx="2.70125" transform="rotate(103.133 505.278 97.6183)" fill="#595A66"/>
</g>
<rect x="550.962" y="86.0868" width="5.40249" height="48.6224" rx="2.70125" transform="rotate(13.1332 550.962 86.0868)" fill="#D9D9D9"/>
<rect x="572.358" y="113.269" width="5.40249" height="48.6224" rx="2.70125" transform="rotate(103.133 572.358 113.269)" fill="#D9D9D9"/>
<rect x="560.014" y="121.918" width="5.40249" height="33.7656" rx="2.70125" transform="rotate(143.865 560.014 121.918)" fill="#D9D9D9"/>
<path d="M579.702 85.0069L553.452 117.333L542.806 104.312L579.702 85.0069Z" fill="#FF4747"/>
<path d="M516.557 136.638L553.453 117.333L542.807 104.312L516.557 136.638Z" fill="#60BCFF"/>
<circle cx="548.069" cy="110.376" r="2.70125" transform="rotate(13.1332 548.069 110.376)" fill="#595A66"/>
</svg>
