<svg width="540" height="518" viewBox="0 0 540 518" fill="none" xmlns="http://www.w3.org/2000/svg">
<path d="M437.874 254.458C439.752 284.924 423.025 313.271 393.842 334.417C364.674 355.552 323.284 369.295 276.577 370.475C229.871 371.655 186.918 360.042 155.239 340.444C123.543 320.836 103.378 293.421 101.5 262.955C99.6219 232.489 116.349 204.142 145.532 182.996C174.7 161.861 216.09 148.118 262.796 146.938C309.502 145.758 352.456 157.371 384.135 176.969C415.83 196.577 435.995 223.992 437.874 254.458Z" stroke="#FFF7B1" stroke-width="5"/>
<path d="M410.078 255.279C411.641 280.639 397.72 304.285 373.329 321.959C348.954 339.622 314.341 351.121 275.262 352.108C236.183 353.095 200.262 343.378 173.788 327C147.297 310.611 130.509 287.741 128.945 262.381C127.382 237.021 141.302 213.375 165.693 195.701C190.069 178.038 224.682 166.539 263.761 165.552C302.84 164.564 338.761 174.282 365.235 190.66C391.726 207.049 408.514 229.919 410.078 255.279Z" stroke="#FFF7B1" stroke-width="5"/>
<path d="M376.411 256.071C377.592 275.226 367.082 293.161 348.513 306.616C329.961 320.059 303.583 328.832 273.772 329.585C243.961 330.338 216.585 322.923 196.435 310.457C176.268 297.981 163.583 280.633 162.402 261.477C161.221 242.321 171.731 224.387 190.299 210.932C208.852 197.488 235.23 188.716 265.041 187.963C294.852 187.21 322.228 194.624 342.378 207.09C362.545 219.566 375.23 236.915 376.411 256.071Z" stroke="#FFF7B1" stroke-width="5"/>
<circle cx="372.092" cy="196.15" r="18.6538" transform="rotate(-16.0867 372.092 196.15)" fill="#FF9E80"/>
<mask id="mask0_386_1508" style="mask-type:alpha" maskUnits="userSpaceOnUse" x="353" y="177" width="38" height="38">
<circle cx="372.092" cy="196.15" r="18.6538" transform="rotate(-16.0867 372.092 196.15)" fill="#FF9E80"/>
</mask>
<g mask="url(#mask0_386_1508)">
<rect x="351.51" y="188.646" width="35.3944" height="4.78303" transform="rotate(-16.0867 351.51 188.646)" fill="#FF6939"/>
<rect x="351.668" y="199.551" width="41.1341" height="4.78303" transform="rotate(-16.0867 351.668 199.551)" fill="#FF6939"/>
<rect x="354.583" y="209.662" width="41.1341" height="4.78303" transform="rotate(-16.0867 354.583 209.662)" fill="#FF6939"/>
</g>
<path fill-rule="evenodd" clip-rule="evenodd" d="M371.096 212.069C380.994 209.215 386.705 198.876 383.85 188.977C382.421 184.021 379.115 180.114 374.927 177.807C381.994 178.797 388.167 183.819 390.272 191.118C393.127 201.017 387.417 211.356 377.518 214.21C372.575 215.635 367.524 214.926 363.348 212.625C365.865 212.978 368.496 212.819 371.096 212.069Z" fill="#DC876C" fill-opacity="0.54"/>
<circle cx="406.978" cy="327.28" r="15.6953" transform="rotate(23.405 406.978 327.28)" fill="#F89809"/>
<path d="M397.916 319.849L383.997 317.269C382.897 317.066 382.343 318.546 383.306 319.114L388.612 322.243C398.554 328.106 409.183 332.718 420.257 335.972L426.978 337.947C428.035 338.258 428.744 336.88 427.876 336.201L418.229 328.641" stroke="#7594E3" stroke-width="3"/>
<path fill-rule="evenodd" clip-rule="evenodd" d="M421.382 333.514C421.382 333.514 421.382 333.514 421.382 333.514C424.825 325.559 421.168 316.319 413.213 312.876C405.258 309.432 396.018 313.09 392.574 321.045C392.574 321.045 392.574 321.045 392.574 321.045L421.382 333.514Z" fill="#F89809"/>
<path d="M406.892 314.101C406.745 313.724 406.382 313.47 405.977 313.456V313.456C402.519 313.34 399.098 314.672 396.629 317.096V317.096C396.34 317.38 396.245 317.812 396.392 318.19L396.557 318.614C396.766 319.151 397.476 319.261 397.837 318.814V318.814C399.864 316.31 403.063 315.064 406.249 315.539V315.539C406.818 315.623 407.266 315.062 407.057 314.526L406.892 314.101Z" fill="#FFD89D"/>
<circle cx="181.996" cy="186.001" r="17.9959" fill="#DE6D96"/>
<mask id="mask1_386_1508" style="mask-type:alpha" maskUnits="userSpaceOnUse" x="164" y="168" width="36" height="36">
<circle cx="181.996" cy="186.001" r="17.9959" fill="#C95F85"/>
</mask>
<g mask="url(#mask1_386_1508)">
<path d="M196.643 172.266C199.732 168.675 206.677 170.774 211.595 173.164C212.504 173.606 213.563 172.594 213.102 171.693L203.935 153.758C203.706 153.309 203.178 153.101 202.703 153.273L140.596 175.853C139.999 176.07 139.753 176.781 140.088 177.32L148.153 190.3C148.225 190.416 148.324 190.519 148.436 190.596C159.704 198.335 164.858 193.256 166.135 189.514C166.192 189.348 166.193 189.164 166.155 188.992C165.031 183.88 166.895 180.842 169.768 179.121C175.794 175.513 183.516 182.336 190.121 179.948C193.454 178.744 195.564 175.252 196.468 172.579C196.507 172.465 196.564 172.358 196.643 172.266Z" fill="#FFA4C5"/>
<path d="M214.662 182.666C219.396 182.835 222.57 176.31 224.153 171.077C224.446 170.109 225.908 170.019 226.257 170.969L233.203 189.875C233.377 190.348 233.171 190.878 232.722 191.109L173.981 221.384C173.416 221.675 172.727 221.373 172.558 220.761L168.502 206.028C168.466 205.896 168.458 205.754 168.477 205.619C170.444 192.091 177.673 191.754 181.287 193.357C181.448 193.429 181.584 193.553 181.684 193.697C187.827 202.523 196.106 196.146 199.686 191.613C199.807 191.46 199.875 191.269 199.891 191.075C200.876 179.553 209.787 180.56 214.314 182.581C214.424 182.63 214.541 182.661 214.662 182.666Z" fill="#FFA4C5"/>
</g>
<path fill-rule="evenodd" clip-rule="evenodd" d="M181.987 203.993C191.926 203.998 199.987 195.945 199.991 186.006C199.996 176.067 191.943 168.006 182.004 168.002C180.901 168.001 179.822 168.1 178.774 168.289C187.171 169.815 193.536 177.167 193.531 186.003C193.527 194.839 187.155 202.185 178.757 203.703C179.805 203.893 180.884 203.993 181.987 203.993Z" fill="#A97085" fill-opacity="0.58"/>
</svg>
