<svg width="111" height="112" viewBox="0 0 111 112" fill="none" xmlns="http://www.w3.org/2000/svg">
<circle cx="55.4869" cy="55.503" r="55.4869" fill="#DE6D96"/>
<mask id="mask0_374_436" style="mask-type:alpha" maskUnits="userSpaceOnUse" x="0" y="0" width="111" height="111">
<circle cx="55.4869" cy="55.503" r="55.4869" fill="#C95F85"/>
</mask>
<g mask="url(#mask0_374_436)">
<path d="M100.4 13.4464C111.257 0.184039 138.473 10.9454 153.341 19.3825C154.221 19.8817 155.246 18.916 154.786 18.0154L122.295 -45.5523C122.066 -46.0015 121.537 -46.2094 121.063 -46.037L-74.5754 25.0882C-75.1723 25.3052 -75.4183 26.0164 -75.0832 26.5558L-48.6354 69.1233C-48.5634 69.2391 -48.4638 69.3424 -48.3516 69.42C-12.8192 94.0124 3.1196 77.4188 6.75658 65.8024C6.80906 65.6348 6.81041 65.4522 6.77078 65.2811C0.424829 37.8752 21.6249 29.5158 39.1997 28.2987C46.2066 27.8134 52.7003 31.1129 58.9283 34.3601C82.2668 46.5286 95.9581 26.7635 100.228 13.7607C100.266 13.6459 100.323 13.5399 100.4 13.4464Z" fill="#FFA4C5"/>
<path d="M155.822 45.2003C172.931 46.2312 183.505 18.9418 187.402 2.29739C187.633 1.31256 189.038 1.2151 189.387 2.16452L214.007 69.1747C214.181 69.6483 213.975 70.1773 213.526 70.4084L28.4904 165.777C27.9259 166.067 27.2367 165.765 27.0681 165.153L13.7663 116.836C13.7301 116.705 13.7219 116.561 13.741 116.426C19.8049 73.6411 42.8093 73.2024 53.8078 78.4177C53.9665 78.4929 54.1015 78.6159 54.2003 78.7612C73.3928 106.993 99.5283 86.3973 110.41 72.3201C110.53 72.1657 110.597 71.9752 110.612 71.7807C113.397 35.2895 141.548 38.7444 155.474 45.1132C155.584 45.1635 155.701 45.193 155.822 45.2003Z" fill="#FFA4C5"/>
</g>
<path fill-rule="evenodd" clip-rule="evenodd" d="M45.5002 110.082C71.3944 105.403 91.0414 82.7537 91.0546 55.5089C91.0678 28.2642 71.443 5.59621 45.5536 0.891286C48.7848 0.307331 52.1133 0.00318619 55.513 0.00483756C86.1576 0.0197226 110.988 24.8741 110.973 55.5187C110.958 86.1632 86.1037 110.993 55.4591 110.979C52.0593 110.977 48.731 110.67 45.5002 110.082Z" fill="#A97085" fill-opacity="0.58"/>
</svg>
