<svg width="1920" height="1024" viewBox="0 0 1920 1024" fill="none" xmlns="http://www.w3.org/2000/svg">
<g clip-path="url(#clip0_396_3067)">
<rect width="1920" height="1024" fill="white"/>
<path d="M0 0H1920V4612H0V0Z" fill="#272057"/>
<mask id="mask0_396_3067" style="mask-type:alpha" maskUnits="userSpaceOnUse" x="-2" y="-2048" width="1919" height="4612">
<path d="M-2 -2048H1916V2564H-2V-2048Z" fill="#272057"/>
</mask>
<g mask="url(#mask0_396_3067)">
<path d="M1671.72 1072.16C1586.48 1125.69 1530.22 1085.72 1512.74 1059.05L1511.44 1053.7C1504.23 1024.1 1521.2 990.431 1553.84 969.58L1564.09 963.028C1587.96 947.779 1601.44 923.727 1598.62 901.412C1597.24 890.509 1599.75 878.928 1605.83 868.031L1610.42 859.825C1615.53 850.674 1626.8 844.434 1637.96 844.571L1675.98 845.04C1688.36 845.193 1700.09 847.526 1710.46 851.894L1728.27 859.402C1744.17 866.106 1764.77 864.408 1782.28 854.948C1825.84 831.419 1872.56 859.21 1856.42 899.047L1839.48 940.864C1832.2 958.853 1835.48 977.122 1848.27 989.695C1864.76 1005.91 1865.09 1031.12 1849.08 1052.53L1847.9 1054.1C1834.15 1072.49 1815.73 1082.07 1798.8 1086.62C1774.33 1093.19 1753.03 1082.77 1731.04 1076.79C1706.61 1070.15 1683.13 1070.53 1671.72 1072.16Z" fill="#7D59B8" fill-opacity="0.27"/>
<path d="M2065.55 967.908C2026.58 1020.03 1919.72 1101.99 1859.47 1081.35L1708.27 1008.97C1696.25 1003.22 1686.8 994.475 1680.89 983.641C1666.13 956.596 1675.66 921.124 1704.28 896.587L1759.27 849.438C1789.42 823.59 1826.94 805.727 1866.06 798.594L1981.11 777.614C1999.91 774.186 2018.09 766.191 2033.43 754.6C2070.36 726.706 2121.2 721.05 2152.11 744.835C2195.64 778.325 2216.8 806.642 2221.6 828.559C2226.19 849.522 2203.34 869.09 2180.77 882.898C2151.22 900.976 2121.07 916.441 2092.64 937.871C2081.48 946.28 2073.54 957.227 2065.55 967.908Z" fill="#3974E4" fill-opacity="0.29"/>
<path d="M1653.32 963.438L1638.14 963.446L1629.5 972.813L1629.49 961.419L1617.01 954.932L1632.19 954.924L1640.83 945.557L1640.84 956.951L1653.32 963.438Z" fill="#FFF7B1"/>
<path d="M1900.98 797.293L1885.81 797.301L1877.17 806.667L1877.16 795.273L1864.68 788.786L1879.86 788.779L1888.5 779.412L1888.51 790.806L1900.98 797.293Z" fill="#FFF7B1"/>
<line y1="-1.5" x2="27.5596" y2="-1.5" transform="matrix(-0.973627 -0.228145 0.383864 -0.92339 1898.13 743.739)" stroke="#FFF7B1" stroke-width="3"/>
<path d="M1888.2 732.201L1879.83 752.347" stroke="#FFF7B1" stroke-width="3"/>
<ellipse cx="8.27028" cy="10.4472" rx="8.27028" ry="10.4472" transform="matrix(-0.383864 0.92339 -0.973627 -0.228145 1605.64 890.17)" fill="#FFF7B1"/>
<ellipse cx="4.65203" cy="5.87655" rx="4.65203" ry="5.87655" transform="matrix(-0.383864 0.92339 -0.973627 -0.228145 1651.47 870.531)" fill="#FFF7B1"/>
<path d="M-57.9592 -65.6877C-151.408 -110.83 -117.36 -163.062 -88.6553 -183.536C-46.948 -199.971 -1.71295 -199.255 35.5904 -181.57L53.9131 -172.883C78.4737 -161.239 107.873 -159.665 135.911 -168.494C150.462 -173.075 165.525 -174.897 180.199 -173.852L197.006 -172.655C208.772 -171.817 218.498 -164.981 222.516 -154.725L231.859 -130.881C235.453 -121.707 235.858 -111.394 233.018 -101.342L230.547 -92.5976C226.191 -77.1809 232.24 -61.8426 245.662 -54.268C278.387 -35.8008 259.19 14.8762 219.386 15.0944L146.579 15.4936C129.107 15.5894 111.775 23.2509 99.4382 36.3309L98.4154 37.4152C82.8845 53.8823 60.0621 61.9793 38.7471 58.5845L17.4915 55.1991C1.53115 52.6572 -11.1193 48.0992 -21.0412 42.6127C-51.0268 26.0316 -39.4016 -15.8089 -49.5038 -47.9377C-51.9194 -55.6203 -55.1955 -61.8056 -57.9592 -65.6877Z" fill="#7D59B8" fill-opacity="0.27"/>
<path d="M203.657 639.378C142.593 710.573 -66.8031 458.764 -58.606 409.999L-0.407984 -41.9209C5.85362 -90.5436 53.4544 -126 101.705 -117.982C105.851 -117.293 109.914 -116.289 113.86 -114.977L264.529 -64.9069C298.084 -53.7558 327.247 -33.5764 348.862 -6.55144L410.238 70.1834C419.262 81.4651 431.158 90.1731 444.862 95.5276C492.616 114.187 511.978 169.871 488.248 217.614C479.534 235.144 470.982 252.301 462.313 269.015C415.84 358.61 508.71 523.067 408.967 529.814C382.288 531.619 334.651 537.224 262.523 571.736C234.991 584.91 223.529 616.209 203.657 639.378Z" fill="#3974E4" fill-opacity="0.29"/>
<path d="M-28.5474 376.747C-92.7306 265.407 -3.4777 126.381 53.2762 119.104L191.441 165.751C244.386 183.626 275.224 225.737 266.822 268.689L259.311 307.089C253.476 336.921 280.077 365.08 319.584 370.892C339.434 373.812 356.935 382.619 368.119 395.315L423.399 458.068C428.622 463.998 430.017 471.361 427.195 478.103L414.194 509.161C404.934 531.281 377.68 546.275 346.733 546.275C325.071 546.275 304.661 553.672 291.267 566.378L241.988 613.123C193.874 658.764 118.808 683.588 41.1362 679.545L-56.9084 674.441C-74.661 673.517 -91.3004 667.464 -103.33 657.554L-121.43 642.645C-159.73 611.096 -123.657 561.314 -67.8007 568.633C-98.9393 544.579 -108.191 519.026 -108.077 498.385C-107.946 474.954 -83.132 457.81 -64.0971 439.356C-39.8711 415.871 -30.2882 389.806 -28.5474 376.747Z" fill="#7D59B8" fill-opacity="0.27"/>
<path d="M444.204 428L436.269 408.957L410.906 403L436.269 397.042L444.204 378L452.139 397.042L477.503 403L452.139 408.957L444.204 428Z" fill="#FFF7B1"/>
<path d="M359.83 16.7251L355.298 5.85085L340.814 2.4489L355.298 -0.953045L359.83 -11.8273L364.361 -0.953045L378.845 2.4489L364.361 5.85085L359.83 16.7251Z" fill="#FFF7B1"/>
<path d="M122.241 691.552L117.71 680.678L103.226 677.276L117.71 673.874L122.241 663L126.772 673.874L141.256 677.276L126.772 680.678L122.241 691.552Z" fill="#FFF7B1"/>
<line x1="397.833" y1="217.104" x2="397.833" y2="196" stroke="#FFF7B1" stroke-width="3"/>
<path d="M411.044 206.551L382.935 206.551" stroke="#FFF7B1" stroke-width="3"/>
</g>
</g>
<defs>
<clipPath id="clip0_396_3067">
<rect width="1920" height="1024" fill="white"/>
</clipPath>
</defs>
</svg>
