<svg width="446" height="446" viewBox="0 0 446 446" fill="none" xmlns="http://www.w3.org/2000/svg">
<path d="M222.012 65.2222C222.191 64.0979 223.809 64.0979 223.988 65.2222L243.225 186.416C243.324 187.044 243.977 187.421 244.57 187.193L359.146 143.256C360.209 142.848 361.018 144.25 360.133 144.966L264.795 222.223C264.301 222.623 264.301 223.377 264.795 223.777L360.133 301.034C361.018 301.75 360.209 303.152 359.146 302.744L244.57 258.807C243.977 258.579 243.324 258.956 243.225 259.584L223.988 380.778C223.809 381.902 222.191 381.902 222.012 380.778L202.775 259.584C202.676 258.956 202.023 258.579 201.43 258.807L86.8542 302.744C85.7913 303.152 84.9821 301.75 85.8666 301.034L181.205 223.777C181.699 223.377 181.699 222.623 181.205 222.223L85.8666 144.966C84.9821 144.25 85.7913 142.848 86.8542 143.256L201.43 187.193C202.023 187.421 202.676 187.044 202.775 186.416L222.012 65.2222Z" fill="#FFE500"/>
<path d="M251.955 172.849L225.469 5.98703C225.023 3.17623 220.977 3.17627 220.531 5.98704L194.045 172.849L36.2958 112.355C33.6385 111.336 31.6156 114.84 33.8267 116.632L165.09 223L33.8267 329.368C31.6156 331.16 33.6385 334.664 36.2958 333.645L194.045 273.151L220.531 440.013C220.977 442.824 225.023 442.824 225.469 440.013L251.955 273.151L409.704 333.645C412.361 334.664 414.384 331.16 412.173 329.368L280.91 223L412.173 116.632C414.384 114.84 412.361 111.336 409.704 112.355L251.955 172.849Z" stroke="#FFEC48" stroke-width="3"/>
</svg>
