<svg xmlns="http://www.w3.org/2000/svg" width="155.5" height="39.647" viewBox="0 0 155.5 39.647"><g transform="translate(-2715.285 -809.853)"><path d="M2729.238,849.5c-5.572,0-11.695-2.91-13.954-9.486l5.069-2.108a8.919,8.919,0,0,0,8.683,6.374c3.914,0,7.578-2.359,7.578-6.374,0-2.259-1.506-4.417-4.868-5.169l-1.205-.3,1.456-5.32,1.958.452c5.771,1.305,8.481,5.57,8.481,10.037C2742.436,843.427,2737.82,849.5,2729.238,849.5Zm7.979-28.105a8.5,8.5,0,0,0-8.332-6.323c-3.463,0-6.625,2.058-6.625,5.772a5.084,5.084,0,0,0,4.116,5.019l1.506.351-1.456,5.319-1.354-.3a10.562,10.562,0,0,1-8.633-10.238c0-7.277,6.174-11.141,12.5-11.141,5.672,0,11.493,3.111,13.15,9.635Z" transform="translate(0)" fill="#fff"/><path d="M2824.055,848.316V810.675h22.835v5.27h-16.812v32.37Zm20.376-16.16h-10.339v-5.27h10.339Z" transform="translate(23.896 0.181)" fill="#fff"/><g transform="translate(2816.088 810.856)"><path d="M2801.194,848.316h-3.263v-5.269h2.509c8.332,0,12.347-6.775,12.347-13.551s-4.015-13.551-12.347-13.551h-2.509v-5.27h3.263c11.793,0,17.716,9.385,17.716,18.821C2818.911,838.881,2812.987,848.316,2801.194,848.316Z" transform="translate(-2797.932 -810.675)" fill="#fff"/></g><path d="M2757.061,815.945v-5.269h-10.34v37.641h10.34v-5.269h-4.316v-27.1Z" transform="translate(6.906 0.181)" fill="#fff"/></g></svg>