<svg width="189" height="209" viewBox="0 0 189 209" fill="none" xmlns="http://www.w3.org/2000/svg">
<rect x="116.721" y="88.4092" width="74.1699" height="19.1538" transform="rotate(42.5755 116.721 88.4092)" fill="#FFDDCF"/>
<ellipse cx="164.859" cy="145.642" rx="8.55806" ry="9.57688" transform="rotate(42.5755 164.859 145.642)" fill="#FFDDCF"/>
<rect width="74.1699" height="19.1538" transform="matrix(-0.729338 0.684153 0.684153 0.729338 74.4429 88.4102)" fill="#F9D2C2"/>
<ellipse cx="8.55806" cy="9.57688" rx="8.55806" ry="9.57688" transform="matrix(-0.729338 0.684153 0.684153 0.729338 26.5896 133.299)" fill="#F9D2C2"/>
<rect width="42.0289" height="19.1538" transform="matrix(-0.965188 0.261558 0.261558 0.965188 74.1936 162.521)" fill="#1A1B2E"/>
<ellipse cx="4.84948" cy="9.57688" rx="4.84948" ry="9.57688" transform="matrix(-0.965188 0.261558 0.261558 0.965188 38.3083 172.246)" fill="#1A1B2E"/>
<rect x="25.1104" y="175.773" width="17.0078" height="19.5461" transform="rotate(-15.8153 25.1104 175.773)" fill="#FFDDCF"/>
<path d="M38.1512 182.345C38.1512 190.335 31.674 196.812 23.684 196.812C15.694 196.812 9.2168 190.335 9.2168 182.345C9.2168 174.355 15.694 167.878 23.684 167.878C31.674 167.878 38.1512 174.355 38.1512 182.345Z" fill="#FFDDCF"/>
<rect x="114.807" y="161.419" width="42.0289" height="19.1538" transform="rotate(15.1625 114.807 161.419)" fill="#1A1B2E"/>
<ellipse cx="152.867" cy="181.655" rx="4.84948" ry="9.57688" transform="rotate(15.1625 152.867 181.655)" fill="#1A1B2E"/>
<rect width="17.0078" height="19.5461" transform="matrix(-0.962145 -0.272536 -0.272536 0.962145 163.89 174.671)" fill="#FFDDCF"/>
<path d="M150.849 181.243C150.849 189.233 157.326 195.71 165.316 195.71C173.306 195.71 179.783 189.233 179.783 181.243C179.783 173.253 173.306 166.775 165.316 166.775C157.326 166.775 150.849 173.253 150.849 181.243Z" fill="#FFDDCF"/>
<path d="M58.1191 164.227C58.1191 154.99 65.6078 147.501 74.8455 147.501H111.95C121.157 147.501 128.621 154.965 128.621 164.173C128.621 171.738 123.544 178.456 116.133 179.976C99.5419 183.378 86.8528 183.416 70.5401 180.026C63.1528 178.491 58.1191 171.772 58.1191 164.227Z" fill="#1A1B2E"/>
<path d="M67.6098 88.7694C68.2429 84.1276 72.2075 80.667 76.8923 80.667H99.7131C109.18 80.667 118.219 84.6144 124.653 91.559L133.782 101.412C134.935 102.656 135.178 104.492 134.388 105.994L126.9 120.221C126.079 121.78 124.335 122.618 122.605 122.286L120.22 121.827L121.083 123.98C123.116 129.056 124.713 134.296 125.857 139.644L130.693 162.253C131.255 164.883 129.768 167.52 127.226 168.4C126.666 168.594 126.077 168.693 125.484 168.693H60.3025C59.6692 168.693 59.0432 168.558 58.4657 168.299C56.5871 167.453 55.5281 165.435 55.9002 163.408L59.798 142.184C61.086 135.171 63.3877 128.382 66.6306 122.031L62.0591 126.439C61.5316 126.948 60.6541 126.735 60.4182 126.041L54.725 109.297C54.2735 107.968 54.5507 106.501 55.4556 105.429L65.4861 93.5465C66.6329 92.1879 67.3695 90.531 67.6098 88.7694Z" fill="#7E9AFF"/>
<circle cx="45.0782" cy="61.5135" r="13.0409" fill="#F9D2C2"/>
<circle cx="140.032" cy="61.5135" r="13.0409" fill="#F9D2C2"/>
<ellipse cx="91.944" cy="95.1343" rx="15.0785" ry="6.72419" fill="#F6DFD5"/>
<ellipse cx="93.3701" cy="62.1244" rx="47.0693" ry="35.6586" fill="#FFDDCF"/>
<path d="M72.79 53.7695L72.79 62.3276" stroke="black" stroke-width="3" stroke-linecap="round"/>
<path d="M81.3481 72.9238C81.3481 72.9238 89.0912 81.0744 99.4831 72.9238" stroke="black" stroke-width="3" stroke-linecap="round"/>
<path d="M107.022 53.7695L107.022 62.3276" stroke="black" stroke-width="3" stroke-linecap="round"/>
<path fill-rule="evenodd" clip-rule="evenodd" d="M72.9469 9.96061C73.3888 9.71959 73.8025 9.5584 74.1899 9.4695C74.7086 7.77687 75.8026 5.93876 77.8373 3.84757C82.8573 -1.31181 90.4544 -0.129005 96.9542 0.882961C99.3515 1.25619 101.599 1.60619 103.514 1.60619C119.045 1.60619 131.635 9.57624 140.333 21.639C160.565 46.8417 147.117 60.29 137.744 48.6755C133.056 48.6755 125.518 47.2204 117.277 44.8844L119.334 50.1195C116.581 49.456 113.08 46.1987 109.992 42.6467C108.991 42.3162 107.99 41.9757 106.991 41.6262C108.859 44.093 111.149 46.6621 112.79 48.3739C108.479 48.5895 100.669 43.8532 97.3023 41.4581C97.5817 42.9791 101.153 45.7734 102.903 46.9804C101.912 47.0053 98.4149 45.7305 96.7904 45.09C92.8904 43.74 90.7708 39.2431 89.7002 34.395C88.6475 33.8604 87.6331 33.3207 86.6639 32.7778C86.978 37.1877 88.3996 41.5522 89.5267 44.0662C86.4099 43.119 82.4142 37.2171 79.0946 31.1715C74.9011 40.1909 54.9253 47.5881 46.7629 47.5881C36.863 51.046 36.351 44.3337 41.6422 27.8582C46.7629 16.4677 54.1749 8.9418 63.3186 8.9418C64.0733 8.9418 64.8604 8.89739 65.6562 8.85248C68.276 8.70465 70.9894 8.55153 72.9469 9.96061Z" fill="#593939"/>
</svg>
