<svg width="175" height="282" viewBox="0 0 175 282" fill="none" xmlns="http://www.w3.org/2000/svg">
<path d="M165.962 133.848C148.725 140.464 141.515 99.3181 140.064 77.918L33.8613 83.3587C24.808 173.892 118.156 154.741 165.962 133.848Z" fill="#593939"/>
<rect x="109.597" y="104.469" width="79.2166" height="20.457" transform="rotate(42.5755 109.597 104.469)" fill="#FFDDCF"/>
<ellipse cx="161.011" cy="165.596" rx="9.14038" ry="10.2285" transform="rotate(42.5755 161.011 165.596)" fill="#FFDDCF"/>
<rect width="79.2166" height="20.457" transform="matrix(-0.729338 0.684153 0.684153 0.729338 64.4421 104.469)" fill="#F9D2C2"/>
<ellipse cx="9.14038" cy="10.2285" rx="9.14038" ry="10.2285" transform="matrix(-0.729338 0.684153 0.684153 0.729338 13.333 152.412)" fill="#F9D2C2"/>
<rect x="56.3162" y="269.586" width="18.1651" height="20.8761" transform="rotate(-90.8153 56.3162 269.586)" fill="#FFDDCF"/>
<path d="M69.2041 257.885C74.9086 259.414 78.2938 265.277 76.7653 270.982C75.2368 276.686 69.3734 280.071 63.6689 278.543C57.9645 277.014 54.5792 271.151 56.1077 265.447C57.6362 259.742 63.4997 256.357 69.2041 257.885Z" fill="#FFDDCF"/>
<rect width="63.4949" height="30.8127" transform="matrix(-0.0134304 0.99991 0.99991 0.0134304 50.7385 192.391)" fill="#1A1D63"/>
<ellipse cx="7.32634" cy="15.4064" rx="7.32634" ry="15.4064" transform="matrix(-0.0134304 0.99991 0.99991 0.0134304 49.9839 248.554)" fill="#1A1D63"/>
<rect x="92.0071" y="269.586" width="18.1651" height="20.8761" transform="rotate(-90.8153 92.0071 269.586)" fill="#FFDDCF"/>
<path d="M104.895 257.885C110.6 259.414 113.985 265.277 112.456 270.982C110.928 276.686 105.065 280.071 99.3601 278.543C93.6556 277.014 90.2703 271.151 91.7989 265.447C93.3274 259.742 99.1908 256.357 104.895 257.885Z" fill="#FFDDCF"/>
<rect width="63.4949" height="30.8127" transform="matrix(-0.0134304 0.99991 0.99991 0.0134304 86.4294 192.391)" fill="#1A1D63"/>
<ellipse cx="7.32634" cy="15.4064" rx="7.32634" ry="15.4064" transform="matrix(-0.0134304 0.99991 0.99991 0.0134304 85.675 248.554)" fill="#1A1D63"/>
<path d="M47.0076 184.139C47.0076 174.273 55.0058 166.274 64.872 166.274H104.501C114.335 166.274 122.307 174.247 122.307 184.081C122.307 192.161 116.884 199.336 108.969 200.959C91.2488 204.593 77.6964 204.633 60.2737 201.013C52.3838 199.374 47.0076 192.197 47.0076 184.139Z" fill="#1A1D63"/>
<path d="M53.8852 120.325C56.4571 106.347 68.643 96.1982 82.8557 96.1982C97.0254 96.1982 109.187 106.287 111.805 120.213L117.519 150.605L124.519 183.335C125.12 186.144 123.532 188.961 120.817 189.901C120.219 190.108 119.59 190.214 118.956 190.214H49.3963C48.6826 190.214 47.9769 190.062 47.326 189.769C45.3221 188.867 44.1324 186.772 44.3847 184.589L48.3135 150.605L53.8852 120.325Z" fill="#FF778F"/>
<circle cx="33.0793" cy="75.7417" r="13.9282" fill="#F9D2C2"/>
<circle cx="134.494" cy="75.7417" r="13.9282" fill="#F9D2C2"/>
<ellipse cx="83.302" cy="111.868" rx="16.1045" ry="8.70512" fill="#F6DFD5"/>
<ellipse cx="84.6573" cy="76.3945" rx="50.2721" ry="38.0849" fill="#FFDDCF"/>
<path d="M62.677 67.4717L62.677 76.6121" stroke="black" stroke-width="3" stroke-linecap="round"/>
<path d="M71.8174 87.9287C71.8174 87.9287 80.0873 96.6338 91.1863 87.9287" stroke="black" stroke-width="3" stroke-linecap="round"/>
<path d="M99.2383 67.4717L99.2383 76.6121" stroke="black" stroke-width="3" stroke-linecap="round"/>
<path d="M67.4152 58.5496H48.9168L44.9995 52.456C39.9505 56.2863 40.2842 69.1408 41.0822 75.0893C36.9038 75.7858 36.8747 64.353 37.3825 58.5496L44.129 38.3102L73.5088 30.4756L118.34 33.9576L131.616 53.1089C129.004 54.5017 132.123 63.41 134.009 67.69C129.657 68.0382 124.651 58.4045 122.91 52.456L123.346 58.5496H102.236L98.536 42.0099L92.4424 58.5496H78.9495L71.1149 42.0099L67.4152 58.5496Z" fill="#593939"/>
<path d="M27.5894 62.6843C29.3304 22.6407 62.9902 8.71255 79.6025 6.7539C79.6025 -0.558408 85.4059 -0.500369 88.3076 0.442689C83.4327 -0.0796179 84.2452 4.43253 85.2608 6.7539C138.144 6.7539 153.378 49.1914 144.456 65.7311C139.45 60.508 132.631 61.5236 131.833 62.2491L121.169 43.533L79.6025 36.3513L44.1291 51.3677L38.6884 62.9019C34.5099 60.6386 29.548 61.8138 27.5894 62.6843Z" fill="#593939"/>
</svg>
