<svg width="90" height="610" viewBox="0 0 90 610" fill="none" xmlns="http://www.w3.org/2000/svg">
<circle cx="44.5318" cy="44.5318" r="43.0318" stroke="#4361FF" stroke-width="3"/>
<rect x="23.2659" y="22.7598" width="37.4714" height="43.5439" rx="5" stroke="#4361FF" stroke-width="2"/>
<path d="M27.3264 37.4474C27.3264 37.6499 28.6759 39.7246 29.3506 40.7367C29.6366 39.9788 29.8634 39.5737 32.3869 36.9414" stroke="#4361FF" stroke-width="2"/>
<line x1="33.3989" y1="32.9053" x2="54.6528" y2="32.9053" stroke="#4361FF" stroke-width="2"/>
<line x1="33.3989" y1="41.002" x2="54.6528" y2="41.002" stroke="#4361FF" stroke-width="2"/>
<line x1="33.3989" y1="49.6045" x2="54.6528" y2="49.6045" stroke="#4361FF" stroke-width="2"/>
<line x1="33.3989" y1="57.7012" x2="54.6528" y2="57.7012" stroke="#4361FF" stroke-width="2"/>
<rect x="28.3264" y="30.8564" width="2.04835" height="2.04835" stroke="#4361FF" stroke-width="2"/>
<rect x="28.3264" y="38.9531" width="2.04835" height="2.04835" stroke="#4361FF" stroke-width="2"/>
<rect x="28.3264" y="47.5566" width="2.04835" height="2.04835" stroke="#4361FF" stroke-width="2"/>
<rect x="28.3264" y="55.6523" width="2.04835" height="2.04835" stroke="#4361FF" stroke-width="2"/>
<path d="M27.3264 29.3508C27.3264 29.5532 28.6759 31.628 29.3506 32.6401C29.6366 31.8821 29.8634 31.4771 32.3869 28.8447" stroke="#4361FF" stroke-width="2"/>
<path d="M67.0684 29.1039L68.5689 26.7412L70.0694 29.1039H67.0684Z" fill="#819FFF" stroke="#4361FF"/>
<rect x="66.2917" y="29.3516" width="4.55439" height="35.9291" fill="#4361FF"/>
<line x1="66.7917" y1="29.3516" x2="66.7917" y2="65.2807" stroke="#09196C"/>
<line x1="68.8159" y1="29.3516" x2="68.8159" y2="65.2807" stroke="#09196C"/>
<line x1="70.8401" y1="29.3516" x2="70.8401" y2="65.2807" stroke="#09196C"/>
<line x1="68.8159" y1="25.3027" x2="68.8159" y2="26.3148" stroke="#09196C"/>
<path fill-rule="evenodd" clip-rule="evenodd" d="M58.7489 558.583C58.69 557.991 58.4173 557.548 57.9352 557.378C56.8907 557.011 55.2591 558.065 54.2909 559.734C54.2252 559.848 54.1642 559.961 54.108 560.074C53.2776 560.197 52.3893 560.67 51.6715 561.448C50.3833 562.843 50.1144 564.708 51.0284 565.704C50.9137 566.349 51.0563 566.953 51.4774 567.342C51.5667 567.425 51.6646 567.494 51.7696 567.55L49.7893 570.375C49.4279 570.891 49.5034 571.594 49.9661 572.021C50.4444 572.463 51.1806 572.467 51.6634 572.03L53.7179 570.171C53.7767 570.515 53.9282 570.82 54.1769 571.049C54.8454 571.667 55.9994 571.541 56.947 570.814C57.7893 571.574 59.0485 571.606 60.0022 570.809C60.8727 570.082 61.2339 568.877 60.9888 567.811C61.554 567.577 62.1115 567.193 62.5924 566.672C63.9299 565.224 64.1686 563.268 63.1255 562.305C62.9469 562.14 62.7424 562.015 62.5192 561.928C63.426 560.578 63.4865 558.994 62.581 558.158C61.6568 557.305 60.0365 557.516 58.7489 558.583Z" fill="#B4C0FF"/>
<path d="M59.5417 560.819C58.0281 562.459 52.3267 569.949 50.4852 571.286" stroke="#17256D"/>
<path d="M61.4148 565.585C60.7098 565.253 57.3683 564.664 56.8536 563.928" stroke="#17256D"/>
<path d="M56.6392 568.463C56.1721 568.243 53.8757 568.028 53.5761 567.453" stroke="#17256D"/>
<path d="M53.7161 562.661C53.629 563.803 54.3595 566.3 55.3286 566.039" stroke="#17256D"/>
<path fill-rule="evenodd" clip-rule="evenodd" d="M44.6723 544.402C44.3785 543.931 43.9673 543.673 43.494 543.731C42.4687 543.855 41.5403 545.411 41.4203 547.206C41.4122 547.328 41.408 547.448 41.4075 547.566C40.7641 548.012 40.2169 548.775 39.9379 549.721C39.4372 551.42 39.983 553.09 41.1587 553.546C41.3292 554.132 41.6981 554.579 42.2109 554.73C42.3197 554.762 42.4302 554.779 42.5412 554.783L42.0529 557.962C41.9637 558.543 42.3175 559.1 42.8808 559.266C43.4632 559.437 44.0803 559.136 44.3035 558.571L45.2533 556.168C45.4446 556.432 45.6973 556.624 46.0003 556.713C46.8141 556.953 47.7269 556.372 48.2187 555.372C49.2371 555.66 50.3032 555.166 50.7715 554.106C51.199 553.139 51.0033 551.982 50.3579 551.192C50.7337 550.763 51.0409 550.211 51.2278 549.577C51.7476 547.813 51.1394 546.08 49.8694 545.706C49.6521 545.642 49.4294 545.622 49.2071 545.641C49.4069 544.137 48.8032 542.788 47.7007 542.463C46.5755 542.132 45.3082 542.978 44.6723 544.402Z" fill="#B4C0FF"/>
<path d="M46.2583 545.943C45.67 547.939 43.9977 556.558 43.0102 558.436" stroke="#17256D"/>
<path d="M49.7935 549.154C49.0667 549.168 46.0295 550.056 45.2951 549.653" stroke="#17256D"/>
<path d="M46.9897 553.535C46.5083 553.544 44.4995 554.313 44.0113 553.956" stroke="#17256D"/>
<path d="M42.1489 549.892C42.5477 550.882 44.1902 552.668 44.8927 552.049" stroke="#17256D"/>
<path fill-rule="evenodd" clip-rule="evenodd" d="M28.4988 561.261C28.5575 560.669 28.8303 560.226 29.3125 560.056C30.357 559.688 31.9886 560.743 32.9568 562.412C33.0225 562.525 33.0835 562.638 33.1398 562.751C33.97 562.874 34.8582 563.348 35.5759 564.125C36.8641 565.52 37.133 567.385 36.2191 568.381C36.3339 569.026 36.1913 569.631 35.7701 570.02C35.6809 570.102 35.583 570.171 35.4781 570.227L37.458 573.052C37.8194 573.568 37.7439 574.271 37.2813 574.698C36.803 575.14 36.0667 575.144 35.5839 574.707L33.5296 572.848C33.4709 573.192 33.3193 573.497 33.0705 573.727C32.402 574.344 31.248 574.218 30.3004 573.491C29.4581 574.251 28.1989 574.283 27.2452 573.487C26.3746 572.759 26.0135 571.555 26.2587 570.489C25.6934 570.255 25.1359 569.87 24.655 569.349C23.3175 567.901 23.0788 565.946 24.1219 564.983C24.3004 564.818 24.5048 564.693 24.7278 564.606C23.8213 563.255 23.761 561.672 24.6664 560.836C25.5906 559.982 27.2111 560.194 28.4988 561.261Z" fill="#B4C0FF"/>
<path d="M27.7061 563.496C29.2197 565.135 34.9211 572.626 36.7626 573.962" stroke="#17256D"/>
<path d="M25.833 568.263C26.538 567.93 29.8795 567.341 30.3942 566.605" stroke="#17256D"/>
<path d="M30.6086 571.141C31.0757 570.92 33.3721 570.706 33.6717 570.13" stroke="#17256D"/>
<path d="M33.5317 565.339C33.6188 566.48 32.8883 568.977 31.9192 568.716" stroke="#17256D"/>
<path fill-rule="evenodd" clip-rule="evenodd" d="M24.1985 570.3C25.1622 580.307 34.146 588.149 45.0862 588.149C56.0265 588.149 65.0103 580.307 65.974 570.3H24.1985Z" fill="#4361FF"/>
<rect x="20.6282" y="564.945" width="48.194" height="5.35489" rx="2.67744" fill="#4361FF"/>
<path fill-rule="evenodd" clip-rule="evenodd" d="M33.8962 548.906C33.6979 548.952 33.5001 549.007 33.303 549.071C29.7532 550.232 27.8168 554.052 28.9781 557.601C30.1393 561.151 33.9584 563.087 37.5082 561.926C37.7052 561.862 37.8973 561.789 38.0842 561.709L33.8962 548.906Z" fill="#7D92FF"/>
<path fill-rule="evenodd" clip-rule="evenodd" d="M34.0364 549.501C33.8719 549.537 33.7079 549.582 33.5449 549.635C30.6074 550.596 29.0819 553.991 30.1375 557.218C31.1932 560.445 34.4303 562.282 37.3678 561.321C37.5308 561.268 37.6896 561.207 37.8437 561.139L34.0364 549.501Z" fill="#B4C0FF"/>
<path fill-rule="evenodd" clip-rule="evenodd" d="M35.3596 553.545C35.3102 553.556 35.261 553.569 35.2121 553.585C34.3308 553.874 33.8732 554.892 34.1899 555.86C34.5066 556.829 35.4777 557.38 36.359 557.091C36.4079 557.075 36.4555 557.057 36.5018 557.037L35.3596 553.545Z" fill="#17256D"/>
<path fill-rule="evenodd" clip-rule="evenodd" d="M50.977 554.014C51.1448 554.061 51.3162 554.101 51.4908 554.134C54.6402 554.719 57.6678 552.64 58.253 549.491C58.8382 546.341 56.7595 543.314 53.61 542.729C53.4354 542.696 53.2611 542.672 53.0877 542.656L50.977 554.014Z" fill="#7D92FF"/>
<path fill-rule="evenodd" clip-rule="evenodd" d="M51.1152 553.51C51.254 553.551 51.3959 553.585 51.5406 553.611C54.1468 554.096 56.6908 552.167 57.2228 549.304C57.7548 546.441 56.0734 543.727 53.4672 543.243C53.3225 543.216 53.1779 543.197 53.0339 543.185L51.1152 553.51Z" fill="#B4C0FF"/>
<path fill-rule="evenodd" clip-rule="evenodd" d="M51.7815 549.922C51.8232 549.935 51.8658 549.945 51.9093 549.953C52.6911 550.098 53.4543 549.52 53.6139 548.661C53.7735 547.802 53.2691 546.988 52.4873 546.842C52.4438 546.834 52.4004 546.828 52.3571 546.825L51.7815 549.922Z" fill="#17256D"/>
<circle cx="44.5318" cy="564.722" r="43.0318" stroke="#4361FF" stroke-width="3"/>
<path d="M27.8384 147.821C27.8384 151.199 27.1694 154.232 26.1104 156.402C25.0352 158.606 23.6449 159.767 22.2659 159.767C20.8869 159.767 19.4966 158.606 18.4213 156.402C17.3624 154.232 16.6934 151.199 16.6934 147.821C16.6934 144.443 17.3624 141.41 18.4213 139.24C19.4966 137.036 20.8869 135.875 22.2659 135.875C23.6449 135.875 25.0352 137.036 26.1104 139.24C27.1694 141.41 27.8384 144.443 27.8384 147.821Z" fill="#4361FF" stroke="#4361FF"/>
<path d="M29.5735 147.821C29.5735 151.199 28.9045 154.232 27.8455 156.402C26.7703 158.606 25.38 159.767 24.001 159.767C22.622 159.767 21.2317 158.606 20.1564 156.402C19.0975 154.232 18.4285 151.199 18.4285 147.821C18.4285 144.443 19.0975 141.41 20.1564 139.24C21.2317 137.036 22.622 135.875 24.001 135.875C25.38 135.875 26.7703 137.036 27.8455 139.24C28.9045 141.41 29.5735 144.443 29.5735 147.821Z" fill="#4361FF" stroke="#4361FF"/>
<path d="M31.887 147.821C31.887 151.199 31.2179 154.232 30.159 156.402C29.0838 158.606 27.6935 159.767 26.3145 159.767C24.9355 159.767 23.5452 158.606 22.4699 156.402C21.411 154.232 20.7419 151.199 20.7419 147.821C20.7419 144.443 21.411 141.41 22.4699 139.24C23.5452 137.036 24.9355 135.875 26.3145 135.875C27.6935 135.875 29.0838 137.036 30.159 139.24C31.2179 141.41 31.887 144.443 31.887 147.821Z" fill="#4361FF" stroke="#4361FF"/>
<path d="M24.2903 147.821C24.2903 145.268 26.36 143.198 28.9131 143.198H61.8821V152.444H28.9131C26.36 152.444 24.2903 150.374 24.2903 147.821Z" fill="#B6BDD5"/>
<path d="M68.322 149.244C68.322 152.622 67.653 155.655 66.5941 157.825C65.5188 160.029 64.1285 161.19 62.7495 161.19C61.3705 161.19 59.9802 160.029 58.905 157.825C57.8461 155.655 57.177 152.622 57.177 149.244C57.177 145.866 57.8461 142.833 58.905 140.662C59.9802 138.459 61.3705 137.298 62.7495 137.298C64.1285 137.298 65.5188 138.459 66.5941 140.662C67.653 142.833 68.322 145.866 68.322 149.244Z" fill="#4361FF" stroke="#4361FF"/>
<path d="M70.0572 149.244C70.0572 152.622 69.3881 155.655 68.3292 157.825C67.2539 160.029 65.8636 161.19 64.4846 161.19C63.1056 161.19 61.7153 160.029 60.6401 157.825C59.5812 155.655 58.9121 152.622 58.9121 149.244C58.9121 145.866 59.5812 142.833 60.6401 140.662C61.7153 138.459 63.1056 137.298 64.4846 137.298C65.8636 137.298 67.2539 138.459 68.3292 140.662C69.3881 142.833 70.0572 145.866 70.0572 149.244Z" fill="#4361FF" stroke="#4361FF"/>
<path d="M72.3704 149.244C72.3704 152.622 71.7013 155.655 70.6424 157.825C69.5672 160.029 68.1769 161.19 66.7979 161.19C65.4188 161.19 64.0286 160.029 62.9533 157.825C61.8944 155.655 61.2253 152.622 61.2253 149.244C61.2253 145.866 61.8944 142.833 62.9533 140.662C64.0286 138.459 65.4188 137.298 66.7979 137.298C68.1769 137.298 69.5672 138.459 70.6424 140.662C71.7013 142.833 72.3704 145.866 72.3704 149.244Z" fill="#4361FF" stroke="#4361FF"/>
<circle cx="44.5318" cy="148.532" r="43.0318" stroke="#4361FF" stroke-width="3"/>
<circle cx="47.9999" cy="443.213" r="6.84488" fill="#4361FF"/>
<circle cx="48.1872" cy="468.036" r="17.1828" fill="#4361FF"/>
<path d="M35.863 460.795C28.2711 457.919 26.3823 455.257 26.3455 449.057" stroke="#4361FF" stroke-width="12" stroke-linecap="round"/>
<path d="M62.2111 458.573C61.7289 466.677 59.7506 469.274 53.8436 471.157" stroke="#374EC7" stroke-width="12" stroke-linecap="round"/>
<path d="M29.6221 442.079C29.6221 444.331 28.2019 444.979 26.45 444.979C24.6981 444.979 23.2779 444.331 23.2779 442.079C23.2779 439.826 24.6981 438 26.45 438C28.2019 438 29.6221 439.826 29.6221 442.079Z" fill="#1E2960"/>
<path d="M47.7543 468.184C49.8771 468.937 50.6107 470.704 50.025 472.355C49.4394 474.006 47.7562 474.916 45.6333 474.163C43.5105 473.41 42.2643 471.461 42.85 469.81C43.4357 468.159 45.6314 467.431 47.7543 468.184Z" fill="#1E2960"/>
<path d="M28.9637 442.771C28.5686 442.273 28.6894 441.563 29.0558 441.044L29.75 440.059C29.9518 439.772 30.3474 439.704 30.6336 439.906C30.9199 440.108 30.9886 440.505 30.7489 440.76C30.2163 441.328 29.6883 441.681 29.5031 442.61C29.3979 443.138 29.1756 443.038 28.9637 442.771Z" fill="#1E2960"/>
<path d="M48.5863 469.473C48.4406 469.6 48.2232 469.596 48.0817 469.465L46.6957 468.182C46.4387 467.944 46.4233 467.542 46.6612 467.285C46.8991 467.029 47.303 467.014 47.506 467.299C47.8627 467.8 48.0876 468.346 48.5153 468.716C48.7365 468.907 48.8072 469.282 48.5863 469.473Z" fill="#1E2960"/>
<circle cx="44.5318" cy="460.659" r="43.0318" stroke="#4361FF" stroke-width="3"/>
<path d="M51.1675 352.622C53.336 322.278 74.6651 331.936 71.8669 352.622" stroke="#4361FF" stroke-width="7" stroke-linecap="round"/>
<path d="M75.4004 364.439C75.4004 364.618 75.3991 364.795 75.3963 364.97C75.1429 381.108 45.0378 380.58 45.0378 364.439C45.4271 350.767 52.135 349.005 60.0894 349.005C68.0438 349.005 75.4004 349.451 75.4004 364.439Z" fill="#4361FF"/>
<mask id="mask0_416_1201" style="mask-type:alpha" maskUnits="userSpaceOnUse" x="45" y="346" width="31" height="31">
<path d="M75.5646 363.449C75.5646 363.633 75.5633 363.816 75.5607 363.996C75.3222 380.709 45.0378 380.164 45.0378 363.449C45.4292 348.861 52.1733 346.98 60.1708 346.98C68.1682 346.98 75.5646 347.456 75.5646 363.449Z" fill="#FF5F69"/>
</mask>
<g mask="url(#mask0_416_1201)">
<path d="M43.5199 359.18C43.5199 359.18 55.7523 355.779 62.2434 355.884C68.7346 355.989 76.7631 359.717 76.7631 359.717" stroke="#09186C" stroke-width="17" stroke-linecap="round"/>
</g>
<path d="M46.6093 350.605C46.1173 349.298 49.4797 348.951 51.2224 348.941L51.5131 348.76C51.9591 348.267 53.1184 347.243 54.1874 347.094C55.2565 346.944 55.7439 348.814 55.854 349.768C55.2487 350.662 53.0696 350.481 52.0557 350.279L49.3485 351.966L48.3931 352.561C47.4152 353.17 46.809 351.53 46.6093 350.605Z" stroke="#09186C" stroke-width="5"/>
<path d="M76.6784 352.39C77.4106 351.2 74.1759 350.219 72.467 349.877L72.2161 349.644C71.8723 349.075 70.9294 347.849 69.9085 347.498C68.8876 347.147 68.0526 348.89 67.7628 349.806C68.1866 350.798 70.3603 351.036 71.3941 351.031L73.7301 353.203L74.5546 353.97C75.3984 354.754 76.3061 353.26 76.6784 352.39Z" stroke="#09186C" stroke-width="5"/>
<rect x="12.145" y="352.547" width="29.3505" height="14.6753" rx="7.33763" fill="#4361FF"/>
<path d="M43.259 367.954C43.259 367.954 36.8175 366.496 34.917 365.424C33.0165 364.352 37.1865 359.798 37.1865 359.798C39.5995 363.568 38.8443 365.843 43.259 367.954Z" fill="#4361FF"/>
<circle cx="44.5318" cy="356.595" r="43.0318" stroke="#4361FF" stroke-width="3"/>
<path fill-rule="evenodd" clip-rule="evenodd" d="M25.6875 242.411C20.1647 242.411 15.6875 246.888 15.6875 252.411V257.748C15.6875 263.271 20.1647 267.748 25.6875 267.748H49.0642L58.2219 274.672L58.2219 266.57H57.5391C60.6855 264.885 62.8258 261.567 62.8258 257.748V252.411C62.8258 246.888 58.3486 242.411 52.8258 242.411H25.6875Z" fill="#4361FF"/>
<path fill-rule="evenodd" clip-rule="evenodd" d="M63.8824 230.772C69.4053 230.772 73.8824 235.25 73.8824 240.772V242.532C73.8824 248.055 69.4053 252.532 63.8824 252.532H45.2175L37.3528 258.478L37.3528 251.52H39.0102C35.6873 249.895 33.3989 246.481 33.3989 242.532V240.772C33.3989 235.25 37.8761 230.772 43.3989 230.772H63.8824Z" fill="#B4C0FF"/>
<circle cx="44.5318" cy="252.532" r="43.0318" stroke="#4361FF" stroke-width="3"/>
</svg>
