<svg width="92" height="612" viewBox="0 0 92 612" fill="none" xmlns="http://www.w3.org/2000/svg">
<circle cx="46.712" cy="44.712" r="43.212" stroke="#FF5F69" stroke-width="3"/>
<rect x="25.356" y="22.8477" width="37.6311" height="43.7282" rx="5" stroke="#FF5F69" stroke-width="2"/>
<path d="M29.437 37.5989C29.437 37.8021 30.7919 39.8853 31.4694 40.9015C31.7565 40.1405 31.9843 39.7338 34.5179 37.0908" stroke="#FF5F69" stroke-width="2"/>
<line x1="35.5342" y1="33.042" x2="56.874" y2="33.042" stroke="#FF5F69" stroke-width="2"/>
<line x1="35.5342" y1="41.1719" x2="56.874" y2="41.1719" stroke="#FF5F69" stroke-width="2"/>
<line x1="35.5342" y1="49.8096" x2="56.874" y2="49.8096" stroke="#FF5F69" stroke-width="2"/>
<line x1="35.5342" y1="57.9385" x2="56.874" y2="57.9385" stroke="#FF5F69" stroke-width="2"/>
<rect x="30.437" y="30.9775" width="2.06472" height="2.06472" stroke="#FF5F69" stroke-width="2"/>
<rect x="30.437" y="39.1074" width="2.06472" height="2.06472" stroke="#FF5F69" stroke-width="2"/>
<rect x="30.437" y="47.7441" width="2.06472" height="2.06472" stroke="#FF5F69" stroke-width="2"/>
<rect x="30.437" y="55.874" width="2.06472" height="2.06472" stroke="#FF5F69" stroke-width="2"/>
<path d="M29.437 29.469C29.437 29.6723 30.7919 31.7554 31.4694 32.7716C31.7565 32.0106 31.9843 31.6039 34.5179 28.9609" stroke="#FF5F69" stroke-width="2"/>
<path d="M69.336 29.2228L70.8463 26.8448L72.3565 29.2228H69.336Z" fill="#FBC6D8" stroke="#FF5F69"/>
<rect x="68.5598" y="29.4688" width="4.57282" height="36.0744" fill="#FF5F69"/>
<line x1="69.0598" y1="29.4688" x2="69.0598" y2="65.5432" stroke="#CB424B"/>
<line x1="71.0923" y1="29.4688" x2="71.0923" y2="65.5432" stroke="#CB424B"/>
<line x1="73.1248" y1="29.4688" x2="73.1248" y2="65.5432" stroke="#CB424B"/>
<line x1="71.0923" y1="25.4043" x2="71.0923" y2="26.4205" stroke="#CB424A"/>
<path fill-rule="evenodd" clip-rule="evenodd" d="M60.9867 560.244C60.9277 559.649 60.6539 559.204 60.1698 559.034C59.1211 558.665 57.4829 559.724 56.5108 561.399C56.4449 561.513 56.3838 561.626 56.3274 561.739C55.4936 561.863 54.6015 562.338 53.8808 563.119C52.5873 564.52 52.3174 566.392 53.2351 567.393C53.1198 568.04 53.2629 568.647 53.6859 569.038C53.7755 569.12 53.8738 569.19 53.9792 569.246L51.9913 572.082C51.6284 572.6 51.7042 573.306 52.1687 573.735C52.6489 574.179 53.3882 574.182 53.8729 573.744L55.9354 571.878C55.9944 572.223 56.1466 572.529 56.3964 572.76C57.0676 573.38 58.2264 573.253 59.1778 572.523C60.0236 573.286 61.2878 573.318 62.2452 572.518C63.1192 571.788 63.4818 570.579 63.2359 569.509C63.8035 569.274 64.3631 568.888 64.8459 568.365C66.1888 566.911 66.4285 564.948 65.3812 563.981C65.202 563.815 64.9967 563.69 64.7727 563.602C65.683 562.246 65.7437 560.656 64.8346 559.817C63.9066 558.96 62.2796 559.173 60.9867 560.244Z" fill="#FFA6AB"/>
<path d="M61.7827 562.488C60.263 564.134 54.5385 571.655 52.6896 572.997" stroke="#9A4248"/>
<path d="M63.6631 567.273C62.9553 566.94 59.6002 566.348 59.0835 565.609" stroke="#9A4248"/>
<path d="M58.8682 570.164C58.3992 569.943 56.0936 569.727 55.7927 569.15" stroke="#9A4248"/>
<path d="M55.9336 564.338C55.8462 565.484 56.5796 567.991 57.5527 567.729" stroke="#9A4248"/>
<path fill-rule="evenodd" clip-rule="evenodd" d="M46.8533 546.005C46.5584 545.532 46.1455 545.273 45.6703 545.331C44.6409 545.455 43.7087 547.018 43.5883 548.82C43.5801 548.943 43.5759 549.063 43.5755 549.182C42.9293 549.629 42.3798 550.395 42.0997 551.346C41.5969 553.052 42.145 554.729 43.3255 555.186C43.4968 555.775 43.8672 556.223 44.3819 556.374C44.491 556.406 44.6019 556.424 44.7133 556.428L44.223 559.62C44.1335 560.203 44.4887 560.762 45.0542 560.929C45.639 561.101 46.2586 560.799 46.4827 560.232L47.4364 557.819C47.6285 558.084 47.8823 558.277 48.1866 558.367C49.0037 558.607 49.9201 558.023 50.4139 557.02C51.4364 557.309 52.5067 556.813 52.9769 555.749C53.4062 554.777 53.2096 553.616 52.5613 552.823C52.9389 552.392 53.2475 551.838 53.4352 551.201C53.9571 549.43 53.3465 547.69 52.0713 547.314C51.8531 547.249 51.6297 547.229 51.4064 547.249C51.607 545.739 51.0008 544.385 49.894 544.059C48.7642 543.726 47.4918 544.575 46.8533 546.005Z" fill="#FFA6AB"/>
<path d="M48.4456 547.553C47.8549 549.557 46.1758 558.21 45.1844 560.096" stroke="#9A4248"/>
<path d="M51.9949 550.776C51.2652 550.79 48.2157 551.682 47.4783 551.277" stroke="#9A4248"/>
<path d="M49.1802 555.175C48.6968 555.184 46.6799 555.956 46.1897 555.597" stroke="#9A4248"/>
<path d="M44.3196 551.517C44.72 552.511 46.3691 554.304 47.0744 553.683" stroke="#9A4248"/>
<path fill-rule="evenodd" clip-rule="evenodd" d="M30.6137 562.932C30.6726 562.338 30.9465 561.893 31.4306 561.722C32.4794 561.353 34.1176 562.412 35.0896 564.088C35.1555 564.201 35.2166 564.314 35.2729 564.427C36.1066 564.551 36.9986 565.026 37.7193 565.807C39.0127 567.208 39.2827 569.08 38.3651 570.08C38.4805 570.728 38.3374 571.335 37.9144 571.726C37.8248 571.809 37.7266 571.878 37.6213 571.935L39.6093 574.771C39.9722 575.289 39.8964 575.995 39.4319 576.424C38.9516 576.867 38.2124 576.871 37.7277 576.432L35.6648 574.566C35.6058 574.911 35.4537 575.217 35.2039 575.448C34.5328 576.068 33.3742 575.942 32.4228 575.211C31.5771 575.975 30.3126 576.007 29.355 575.207C28.4809 574.477 28.1183 573.268 28.3645 572.197C27.7969 571.962 27.2373 571.576 26.7545 571.053C25.4116 569.599 25.1719 567.636 26.2192 566.669C26.3984 566.503 26.6037 566.378 26.8276 566.291C25.9175 564.934 25.857 563.345 26.766 562.505C27.6939 561.648 29.3208 561.861 30.6137 562.932Z" fill="#FFA6AB"/>
<path d="M29.8181 565.176C31.3378 566.822 37.0623 574.342 38.9112 575.684" stroke="#9A4248"/>
<path d="M27.9375 569.961C28.6453 569.627 32.0004 569.036 32.5171 568.297" stroke="#9A4248"/>
<path d="M32.7327 572.852C33.2016 572.63 35.5073 572.415 35.8081 571.837" stroke="#9A4248"/>
<path d="M35.6672 567.026C35.7546 568.172 35.0212 570.679 34.0481 570.418" stroke="#9A4248"/>
<path fill-rule="evenodd" clip-rule="evenodd" d="M26.2964 572.009C27.2638 582.056 36.284 589.93 47.2685 589.93C58.2531 589.93 67.2733 582.056 68.2407 572.009H26.2964Z" fill="#FF5F69"/>
<rect x="22.7119" y="566.632" width="48.3887" height="5.37652" rx="2.68826" fill="#FF5F69"/>
<path fill-rule="evenodd" clip-rule="evenodd" d="M36.0332 550.528C35.8342 550.574 35.6356 550.629 35.4379 550.694C31.8737 551.86 29.9295 555.694 31.0955 559.258C32.2614 562.822 36.0959 564.766 39.66 563.601C39.8578 563.536 40.0506 563.463 40.2381 563.382L36.0332 550.528Z" fill="#E1787F"/>
<path fill-rule="evenodd" clip-rule="evenodd" d="M36.1736 551.125C36.0086 551.162 35.8442 551.206 35.6806 551.26C32.7313 552.225 31.1996 555.633 32.2595 558.874C33.3194 562.114 36.5696 563.958 39.5189 562.994C39.6825 562.94 39.8417 562.879 39.9963 562.811L36.1736 551.125Z" fill="#FFA6AB"/>
<path fill-rule="evenodd" clip-rule="evenodd" d="M37.5024 555.185C37.4529 555.196 37.4034 555.21 37.3543 555.226C36.4695 555.515 36.01 556.538 36.3279 557.51C36.6459 558.482 37.621 559.035 38.5058 558.746C38.5549 558.73 38.6028 558.712 38.6492 558.691L37.5024 555.185Z" fill="#9A4248"/>
<path fill-rule="evenodd" clip-rule="evenodd" d="M53.1831 555.656C53.3516 555.703 53.5238 555.743 53.6992 555.776C56.8614 556.364 59.9011 554.276 60.4887 551.114C61.0763 547.952 58.9892 544.912 55.827 544.325C55.6516 544.292 55.4765 544.268 55.3022 544.251L53.1831 555.656Z" fill="#E1787F"/>
<path fill-rule="evenodd" clip-rule="evenodd" d="M53.322 555.149C53.4614 555.19 53.6039 555.223 53.7493 555.25C56.366 555.737 58.9203 553.8 59.4545 550.926C59.9886 548.051 58.3004 545.327 55.6837 544.84C55.5383 544.813 55.3931 544.794 55.2484 544.781L53.322 555.149Z" fill="#FFA6AB"/>
<path fill-rule="evenodd" clip-rule="evenodd" d="M53.9912 551.547C54.0329 551.559 54.0756 551.57 54.1191 551.578C54.9041 551.724 55.6704 551.143 55.8307 550.28C55.9909 549.418 55.4845 548.6 54.6994 548.455C54.6559 548.447 54.6124 548.441 54.5691 548.437L53.9912 551.547Z" fill="#9A4248"/>
<circle cx="46.712" cy="566.407" r="43.212" stroke="#FF5F69" stroke-width="3"/>
<path d="M29.953 147.998C29.953 151.39 29.2812 154.436 28.2178 156.615C27.1381 158.828 25.7417 159.995 24.3559 159.995C22.9701 159.995 21.5737 158.828 20.494 156.615C19.4306 154.436 18.7588 151.39 18.7588 147.998C18.7588 144.607 19.4306 141.561 20.494 139.381C21.5737 137.168 22.9701 136.002 24.3559 136.002C25.7417 136.002 27.1381 137.168 28.2178 139.381C29.2812 141.561 29.953 144.607 29.953 147.998Z" fill="#FF5F69" stroke="#FF5F69"/>
<path d="M31.6952 147.998C31.6952 151.39 31.0233 154.436 29.96 156.615C28.8803 158.828 27.4839 159.995 26.0981 159.995C24.7123 159.995 23.3158 158.828 22.2361 156.615C21.1728 154.436 20.501 151.39 20.501 147.998C20.501 144.607 21.1728 141.561 22.2361 139.381C23.3158 137.168 24.7123 136.002 26.0981 136.002C27.4839 136.002 28.8803 137.168 29.96 139.381C31.0233 141.561 31.6952 144.607 31.6952 147.998Z" fill="#FF5F69" stroke="#FF5F69"/>
<path d="M34.0179 147.998C34.0179 151.39 33.3461 154.436 32.2827 156.615C31.203 158.828 29.8066 159.995 28.4208 159.995C27.035 159.995 25.6386 158.828 24.5589 156.615C23.4955 154.436 22.8237 151.39 22.8237 147.998C22.8237 144.607 23.4955 141.561 24.5589 139.381C25.6386 137.168 27.035 136.002 28.4208 136.002C29.8066 136.002 31.203 137.168 32.2827 139.381C33.3461 141.561 34.0179 144.607 34.0179 147.998Z" fill="#FF5F69" stroke="#FF5F69"/>
<path d="M26.3882 147.998C26.3882 145.435 28.4663 143.356 31.0297 143.356H64.1321V152.639H31.0297C28.4662 152.639 26.3882 150.561 26.3882 147.998Z" fill="#FFA6AB"/>
<path d="M70.6004 149.426C70.6004 152.818 69.9286 155.864 68.8653 158.043C67.7856 160.256 66.3891 161.422 65.0033 161.422C63.6175 161.422 62.2211 160.256 61.1414 158.043C60.0781 155.864 59.4062 152.818 59.4062 149.426C59.4062 146.034 60.0781 142.988 61.1414 140.809C62.2211 138.596 63.6175 137.43 65.0033 137.43C66.3891 137.43 67.7856 138.596 68.8653 140.809C69.9286 142.988 70.6004 146.034 70.6004 149.426Z" fill="#FF5F69" stroke="#FF5F69"/>
<path d="M72.3421 149.426C72.3421 152.818 71.6703 155.864 70.607 158.043C69.5273 160.256 68.1308 161.422 66.745 161.422C65.3592 161.422 63.9628 160.256 62.8831 158.043C61.8198 155.864 61.1479 152.818 61.1479 149.426C61.1479 146.034 61.8198 142.988 62.8831 140.809C63.9628 138.596 65.3592 137.43 66.745 137.43C68.1308 137.43 69.5273 138.596 70.607 140.809C71.6703 142.988 72.3421 146.034 72.3421 149.426Z" fill="#FF5F69" stroke="#FF5F69"/>
<path d="M74.6649 149.426C74.6649 152.818 73.9931 155.864 72.9297 158.043C71.85 160.256 70.4536 161.422 69.0678 161.422C67.682 161.422 66.2856 160.256 65.2059 158.043C64.1425 155.864 63.4707 152.818 63.4707 149.426C63.4707 146.034 64.1425 142.988 65.2059 140.809C66.2856 138.596 67.682 137.43 69.0678 137.43C70.4536 137.43 71.85 138.596 72.9297 140.809C73.9931 142.988 74.6649 146.034 74.6649 149.426Z" fill="#FF5F69" stroke="#FF5F69"/>
<circle cx="46.712" cy="148.712" r="43.212" stroke="#FF5F69" stroke-width="3"/>
<circle cx="50.1944" cy="444.468" r="6.87257" fill="#FF5F69"/>
<circle cx="50.3822" cy="469.392" r="17.2523" fill="#FF5F69"/>
<path d="M38.0081 462.121C30.3855 459.234 28.4891 456.561 28.4521 450.336" stroke="#FF5F69" stroke-width="12" stroke-linecap="round"/>
<path d="M64.4625 459.891C63.9784 468.028 61.9921 470.635 56.0612 472.525" stroke="#F35862" stroke-width="12" stroke-linecap="round"/>
<path d="M31.7423 443.328C31.7423 445.59 30.3163 446.24 28.5573 446.24C26.7983 446.24 25.3724 445.59 25.3724 443.328C25.3724 441.067 26.7983 439.233 28.5573 439.233C30.3163 439.233 31.7423 441.067 31.7423 443.328Z" fill="#9A4248"/>
<path d="M49.9473 469.54C52.0788 470.296 52.8154 472.071 52.2273 473.729C51.6393 475.386 49.9492 476.3 47.8178 475.544C45.6864 474.788 44.4352 472.831 45.0233 471.173C45.6113 469.515 47.8159 468.784 49.9473 469.54Z" fill="#9A4248"/>
<path d="M31.0809 444.024C30.6842 443.524 30.8054 442.812 31.1733 442.29L31.8704 441.301C32.073 441.013 32.4702 440.945 32.7575 441.147C33.0449 441.35 33.1139 441.749 32.8733 442.005C32.3385 442.575 31.8084 442.93 31.6224 443.863C31.5168 444.392 31.2936 444.292 31.0809 444.024Z" fill="#9A4248"/>
<path d="M50.783 470.834C50.6367 470.961 50.4185 470.958 50.2764 470.826L48.8848 469.537C48.6268 469.299 48.6113 468.896 48.8502 468.638C49.089 468.38 49.4945 468.365 49.6984 468.651C50.0565 469.154 50.2823 469.703 50.7118 470.074C50.9338 470.266 51.0048 470.642 50.783 470.834Z" fill="#9A4248"/>
<circle cx="46.712" cy="461.983" r="43.212" stroke="#FF5F69" stroke-width="3"/>
<path d="M53.3743 353.57C55.5516 323.104 76.9669 332.8 74.1574 353.57" stroke="#FF5F69" stroke-width="7" stroke-linecap="round"/>
<path d="M77.7057 365.435C77.7057 365.615 77.7043 365.793 77.7015 365.968C77.4471 382.172 47.2202 381.641 47.2202 365.435C47.6111 351.708 54.346 349.938 62.3327 349.938C70.3193 349.938 77.7057 350.386 77.7057 365.435Z" fill="#FF5F69"/>
<mask id="mask0_416_1202" style="mask-type:alpha" maskUnits="userSpaceOnUse" x="47" y="347" width="31" height="31">
<path d="M77.8705 364.441C77.8705 364.626 77.8692 364.81 77.8666 364.99C77.6271 381.771 47.2202 381.224 47.2202 364.441C47.6132 349.794 54.3846 347.906 62.4144 347.906C70.4441 347.906 77.8705 348.384 77.8705 364.441Z" fill="#FF5F69"/>
</mask>
<g mask="url(#mask0_416_1202)">
<path d="M45.6961 360.156C45.6961 360.156 57.978 356.741 64.4955 356.846C71.0129 356.951 79.0739 360.694 79.0739 360.694" stroke="#CB424A" stroke-width="17" stroke-linecap="round"/>
</g>
<path d="M48.7981 351.546C48.3041 350.233 51.6801 349.885 53.4299 349.875L53.7217 349.694C54.1695 349.198 55.3335 348.17 56.4069 348.02C57.4802 347.87 57.9696 349.748 58.0802 350.705C57.4724 351.603 55.2845 351.421 54.2665 351.218L51.5484 352.912L50.5891 353.51C49.6073 354.122 48.9986 352.475 48.7981 351.546Z" stroke="#CB424A" stroke-width="5"/>
<path d="M78.9886 353.338C79.7239 352.143 76.4761 351.158 74.7602 350.815L74.5084 350.581C74.1632 350.009 73.2165 348.778 72.1914 348.426C71.1664 348.074 70.328 349.824 70.037 350.743C70.4626 351.74 72.645 351.979 73.683 351.973L76.0285 354.154L76.8563 354.924C77.7035 355.712 78.6148 354.211 78.9886 353.338Z" stroke="#CB424A" stroke-width="5"/>
<rect x="14.1943" y="353.495" width="29.4693" height="14.7346" rx="7.36731" fill="#FF5F69"/>
<path d="M45.4341 368.965C45.4341 368.965 38.9665 367.501 37.0583 366.425C35.1502 365.348 39.337 360.775 39.337 360.775C41.7597 364.561 41.0015 366.845 45.4341 368.965Z" fill="#FF5F69"/>
<circle cx="46.712" cy="357.56" r="43.212" stroke="#FF5F69" stroke-width="3"/>
<path fill-rule="evenodd" clip-rule="evenodd" d="M25.7507 242.975C20.2279 242.975 15.7507 247.452 15.7507 252.975V258.414C15.7507 263.937 20.2279 268.414 25.7507 268.414H49.2628L58.4572 275.365L58.4571 267.231H57.8024C60.9437 265.545 63.0797 262.229 63.0797 258.414V252.975C63.0797 247.452 58.6026 242.975 53.0797 242.975H25.7507Z" fill="#FF5F69"/>
<path fill-rule="evenodd" clip-rule="evenodd" d="M64.1812 231.288C69.704 231.288 74.1812 235.765 74.1812 241.288V243.136C74.1812 248.659 69.704 253.136 64.1812 253.136H45.4003L37.504 259.106L37.504 252.12H39.1366C35.8184 250.493 33.5339 247.081 33.5339 243.136V241.288C33.5339 235.765 38.0111 231.288 43.5339 231.288H64.1812Z" fill="#FFA6AB"/>
<circle cx="44.712" cy="253.136" r="43.212" stroke="#FF5F69" stroke-width="3"/>
</svg>
