<svg width="257" height="257" viewBox="0 0 257 257" fill="none" xmlns="http://www.w3.org/2000/svg">
<rect x="0.5" y="0.5" width="256" height="256" rx="51.5" fill="#FF5F69" stroke="#FF5F69"/>
<rect x="14.5" y="15.5" width="227" height="227" rx="50.5" stroke="white" stroke-width="3"/>
<path d="M42.24 132.965C41.3733 132.965 40.4633 132.835 39.51 132.575C38.5567 132.315 37.9067 131.752 37.56 130.885C37.3433 130.278 37.2567 129.542 37.3 128.675C37.3867 127.808 37.69 127.158 38.21 126.725C38.5133 126.422 38.8817 126.248 39.315 126.205C39.7483 126.162 40.16 126.14 40.55 126.14C40.8533 126.14 41.135 126.162 41.395 126.205C41.6983 126.205 42.0017 126.205 42.305 126.205C42.4783 126.205 42.6083 126.205 42.695 126.205C42.825 126.205 42.89 126.097 42.89 125.88C42.9767 125.403 42.9983 124.948 42.955 124.515C42.9117 124.038 42.89 123.562 42.89 123.085V118.34C42.89 117.863 42.89 117.387 42.89 116.91C42.9333 116.39 42.955 115.892 42.955 115.415C42.955 115.372 42.955 115.263 42.955 115.09C42.955 114.873 42.955 114.678 42.955 114.505C42.955 114.288 42.955 114.093 42.955 113.92C42.955 113.747 42.955 113.66 42.955 113.66C42.6083 113.66 42.2617 113.66 41.915 113.66C41.6117 113.617 41.2867 113.573 40.94 113.53C40.1167 113.443 39.445 113.227 38.925 112.88C38.405 112.49 38.0583 111.862 37.885 110.995C37.7983 110.562 37.755 110.128 37.755 109.695C37.755 109.218 37.8633 108.763 38.08 108.33C38.4267 107.68 38.99 107.247 39.77 107.03C40.3333 106.813 40.8967 106.748 41.46 106.835C42.0233 106.878 42.5867 106.878 43.15 106.835C43.8867 106.792 44.58 106.77 45.23 106.77C45.9233 106.727 46.6383 106.705 47.375 106.705C48.1983 106.662 49 106.64 49.78 106.64C50.6033 106.64 51.4483 106.64 52.315 106.64H63.17C63.7767 106.64 64.3617 106.683 64.925 106.77C65.5317 106.813 66.1167 106.943 66.68 107.16C67.6333 107.463 68.2833 108.113 68.63 109.11C68.9333 109.76 69.02 110.432 68.89 111.125C68.76 111.775 68.3917 112.295 67.785 112.685C67.005 113.205 66.1383 113.443 65.185 113.4C64.275 113.357 63.3867 113.378 62.52 113.465C62.5633 114.028 62.585 114.873 62.585 116C62.6283 117.127 62.6717 118.318 62.715 119.575C62.7583 120.832 62.78 122.045 62.78 123.215C62.8233 124.385 62.845 125.317 62.845 126.01C63.2783 126.01 63.755 126.01 64.275 126.01C64.795 125.967 65.2933 125.967 65.77 126.01C66.29 126.01 66.7667 126.075 67.2 126.205C67.6767 126.292 68.11 126.487 68.5 126.79C69.1067 127.267 69.41 128.003 69.41 129C69.41 129.997 69.1717 130.82 68.695 131.47C68.305 131.947 67.85 132.293 67.33 132.51C66.8533 132.683 66.3333 132.813 65.77 132.9C65.25 132.987 64.7083 133.03 64.145 133.03C63.5817 132.987 63.04 132.965 62.52 132.965H42.24ZM72.725 142.975C74.3283 144.102 75.91 145.228 77.47 146.355C79.03 147.482 80.5683 148.652 82.085 149.865C82.605 150.298 83.2117 150.753 83.905 151.23C84.5983 151.663 85.01 152.248 85.14 152.985C85.27 153.592 85.1833 154.22 84.88 154.87C84.62 155.52 84.2517 156.04 83.775 156.43C83.0383 157.037 82.3233 157.297 81.63 157.21C80.9367 157.123 80.2 156.907 79.42 156.56C77.8167 155.823 76.2783 155 74.805 154.09C73.3317 153.18 71.8583 152.227 70.385 151.23C69.6483 150.753 68.9333 150.255 68.24 149.735C67.5467 149.172 66.8533 148.652 66.16 148.175C65.6833 147.828 65.185 147.438 64.665 147.005C64.145 146.572 63.5383 146.398 62.845 146.485C62.2383 146.528 61.7617 146.658 61.415 146.875C61.0683 147.092 60.6783 147.373 60.245 147.72C59.7683 148.067 59.2483 148.457 58.685 148.89C58.165 149.323 57.71 149.713 57.32 150.06C56.1933 151.013 54.9583 151.988 53.615 152.985C52.315 153.938 51.0367 154.74 49.78 155.39C49.3033 155.65 48.7617 155.91 48.155 156.17C47.5483 156.43 46.9417 156.625 46.335 156.755C45.7283 156.928 45.1 156.993 44.45 156.95C43.8433 156.95 43.28 156.82 42.76 156.56C42.0667 156.213 41.5683 155.693 41.265 155C40.9617 154.307 40.9183 153.592 41.135 152.855C41.3517 152.118 41.8283 151.468 42.565 150.905C43.345 150.342 43.995 149.843 44.515 149.41C46.1617 148.153 47.9383 146.853 49.845 145.51C51.7517 144.123 53.55 142.823 55.24 141.61C55.9767 141.047 56.7133 140.57 57.45 140.18C58.1867 139.747 58.9233 139.227 59.66 138.62C60.57 137.927 61.3717 137.45 62.065 137.19C62.7583 136.887 63.4083 136.778 64.015 136.865C64.665 136.908 65.315 137.147 65.965 137.58C66.6583 137.97 67.4167 138.512 68.24 139.205L72.725 142.975ZM84.36 131.6C84.36 131.6 84.3383 131.752 84.295 132.055C84.2517 132.358 84.165 132.705 84.035 133.095C83.905 133.485 83.71 133.897 83.45 134.33C83.19 134.72 82.8433 135.045 82.41 135.305C81.8033 135.652 81.1967 135.825 80.59 135.825C79.8533 135.825 79.1383 135.587 78.445 135.11C77.9683 134.763 77.6 134.308 77.34 133.745C76.9933 133.095 76.755 132.38 76.625 131.6C76.5383 130.82 76.4733 130.018 76.43 129.195C76.43 128.372 76.4517 127.57 76.495 126.79C76.5383 125.967 76.56 125.187 76.56 124.45C76.6033 122.587 76.625 120.528 76.625 118.275C76.625 115.978 76.625 113.92 76.625 112.1V111.255C76.5817 110.778 76.56 110.28 76.56 109.76C76.6033 109.197 76.69 108.677 76.82 108.2C76.9933 107.55 77.3833 106.857 77.99 106.12C78.3367 105.687 78.8133 105.383 79.42 105.21C80.07 104.993 80.7633 104.928 81.5 105.015C82.8 105.232 83.6667 105.795 84.1 106.705C84.36 107.268 84.4683 107.962 84.425 108.785C84.425 109.608 84.4033 110.107 84.36 110.28V131.6ZM55.695 125.425C55.7383 125.165 55.7383 124.905 55.695 124.645C55.695 124.342 55.7167 124.06 55.76 123.8V118.47C55.76 117.863 55.76 117.278 55.76 116.715C55.76 116.108 55.7383 115.502 55.695 114.895C55.695 114.592 55.6517 114.332 55.565 114.115C55.5217 113.898 55.3483 113.725 55.045 113.595C54.785 113.508 54.5033 113.465 54.2 113.465C53.8967 113.465 53.5933 113.465 53.29 113.465C52.9 113.465 52.51 113.465 52.12 113.465C51.73 113.465 51.3617 113.487 51.015 113.53C50.8417 113.573 50.69 113.595 50.56 113.595C50.43 113.552 50.3 113.573 50.17 113.66C49.8233 113.833 49.6283 114.093 49.585 114.44C49.5417 114.787 49.5633 115.112 49.65 115.415C49.6933 115.762 49.6933 116.13 49.65 116.52C49.65 116.867 49.65 117.213 49.65 117.56V124.385C49.65 124.645 49.6283 124.927 49.585 125.23C49.585 125.49 49.6933 125.728 49.91 125.945C50.1267 126.162 50.3867 126.227 50.69 126.14C51.21 126.14 51.73 126.162 52.25 126.205C52.77 126.205 53.29 126.162 53.81 126.075C54.0267 126.075 54.2217 126.097 54.395 126.14C54.6117 126.14 54.8283 126.118 55.045 126.075C55.305 126.032 55.4783 125.988 55.565 125.945C55.6517 125.858 55.695 125.685 55.695 125.425ZM134.015 124.645C134.752 124.472 135.488 124.515 136.225 124.775C137.005 125.035 137.72 125.468 138.37 126.075C138.673 126.378 138.89 126.747 139.02 127.18C139.193 127.613 139.28 128.068 139.28 128.545C139.28 129.065 139.193 129.628 139.02 130.235C138.89 130.798 138.695 131.232 138.435 131.535C138.088 131.925 137.633 132.228 137.07 132.445C136.507 132.662 135.965 132.813 135.445 132.9C134.925 132.943 134.47 132.965 134.08 132.965C133.733 132.965 133.538 132.965 133.495 132.965L120.755 133.03C120.235 133.073 119.693 133.117 119.13 133.16C118.61 133.16 118.09 133.138 117.57 133.095C117.05 133.008 116.552 132.878 116.075 132.705C115.642 132.488 115.23 132.207 114.84 131.86C114.363 131.383 113.995 130.928 113.735 130.495C113.475 130.018 113.345 129.477 113.345 128.87C113.345 128.133 113.54 127.418 113.93 126.725C114.363 125.988 114.948 125.49 115.685 125.23C116.595 124.84 117.527 124.667 118.48 124.71C119.477 124.71 120.473 124.688 121.47 124.645H134.015ZM176.176 111.905C175.526 111.862 174.854 111.84 174.161 111.84C173.468 111.84 172.796 111.775 172.146 111.645C171.539 111.515 170.954 111.298 170.391 110.995C169.871 110.648 169.438 110.128 169.091 109.435C168.571 108.438 168.549 107.528 169.026 106.705C169.546 105.838 170.304 105.232 171.301 104.885C172.298 104.538 173.403 104.365 174.616 104.365C175.829 104.365 176.978 104.365 178.061 104.365C179.838 104.365 181.961 104.365 184.431 104.365C186.901 104.365 189.414 104.387 191.971 104.43C194.571 104.43 197.106 104.43 199.576 104.43C202.046 104.43 204.169 104.43 205.946 104.43C206.813 104.43 207.766 104.495 208.806 104.625C209.889 104.712 210.756 105.102 211.406 105.795C212.013 106.488 212.316 107.377 212.316 108.46C212.316 109.5 211.926 110.323 211.146 110.93C210.973 111.103 210.713 111.255 210.366 111.385C209.543 111.732 208.633 111.862 207.636 111.775C206.683 111.688 205.773 111.732 204.906 111.905C204.906 111.948 204.906 112.187 204.906 112.62C204.949 113.053 204.993 113.508 205.036 113.985C205.079 114.592 205.101 115.263 205.101 116C205.101 115.957 205.296 115.957 205.686 116C206.119 116 206.574 116.022 207.051 116.065C207.571 116.108 208.048 116.173 208.481 116.26C208.914 116.303 209.174 116.325 209.261 116.325C210.344 116.498 211.146 116.758 211.666 117.105C212.229 117.408 212.446 118.21 212.316 119.51C212.229 120.593 211.991 121.395 211.601 121.915C211.254 122.392 210.799 122.738 210.236 122.955C209.673 123.128 209.001 123.215 208.221 123.215C207.484 123.172 206.683 123.15 205.816 123.15C204.689 123.193 203.563 123.215 202.436 123.215C201.353 123.172 200.248 123.15 199.121 123.15C198.254 123.15 197.063 123.15 195.546 123.15C194.029 123.15 192.448 123.15 190.801 123.15C189.154 123.15 187.551 123.172 185.991 123.215C184.474 123.215 183.304 123.215 182.481 123.215C181.311 123.215 180.033 123.215 178.646 123.215C177.303 123.215 176.046 123.193 174.876 123.15C174.313 123.15 173.684 123.107 172.991 123.02C172.341 122.933 171.713 122.76 171.106 122.5C170.499 122.24 169.979 121.893 169.546 121.46C169.113 120.983 168.853 120.377 168.766 119.64C168.636 118.643 168.831 117.907 169.351 117.43C169.914 116.953 170.586 116.628 171.366 116.455C172.189 116.282 173.056 116.217 173.966 116.26C174.876 116.26 175.656 116.217 176.306 116.13L176.176 111.905ZM209.456 151.75C210.149 151.837 210.756 152.01 211.276 152.27C211.796 152.53 212.164 153.007 212.381 153.7C212.901 155.26 212.338 156.365 210.691 157.015C210.171 157.232 209.651 157.362 209.131 157.405C208.611 157.448 208.113 157.47 207.636 157.47H177.411C176.544 157.47 175.634 157.448 174.681 157.405C173.771 157.405 172.839 157.383 171.886 157.34C170.976 157.297 170.218 156.972 169.611 156.365C169.004 155.758 168.658 154.957 168.571 153.96L168.376 149.41C168.333 148.933 168.333 148.37 168.376 147.72C168.419 147.07 168.636 146.528 169.026 146.095C169.633 145.445 170.434 145.033 171.431 144.86C172.471 144.687 173.468 144.6 174.421 144.6C175.028 144.6 176.024 144.6 177.411 144.6C178.841 144.6 180.769 144.622 183.196 144.665C185.623 144.665 188.613 144.665 192.166 144.665C195.763 144.665 200.031 144.665 204.971 144.665V142.325H172.991C172.558 142.325 172.168 142.325 171.821 142.325C171.474 142.325 171.128 142.282 170.781 142.195C170.391 142.108 170.044 142.022 169.741 141.935C169.438 141.848 169.178 141.632 168.961 141.285C168.354 140.375 168.203 139.443 168.506 138.49C168.636 138.143 168.831 137.883 169.091 137.71C169.351 137.493 169.654 137.32 170.001 137.19C170.348 137.06 170.673 136.973 170.976 136.93C171.323 136.887 171.626 136.843 171.886 136.8C172.536 136.67 173.208 136.605 173.901 136.605C174.551 136.605 175.244 136.605 175.981 136.605C176.718 136.605 177.606 136.605 178.646 136.605C179.729 136.605 181.008 136.627 182.481 136.67C183.954 136.67 185.753 136.67 187.876 136.67C190.043 136.67 192.556 136.67 195.416 136.67C198.319 136.67 201.721 136.67 205.621 136.67C207.831 136.67 209.521 137.017 210.691 137.71C211.861 138.36 212.446 139.443 212.446 140.96V145.575C212.446 146.182 212.294 146.788 211.991 147.395C211.731 147.958 211.254 148.435 210.561 148.825C209.998 149.172 209.434 149.367 208.871 149.41C208.308 149.41 207.744 149.41 207.181 149.41H176.371V151.75H209.456ZM171.171 126.075C171.518 126.032 171.908 126.01 172.341 126.01C172.774 125.967 173.229 125.945 173.706 125.945H175.331H189.631C191.928 125.902 194.181 125.88 196.391 125.88C198.254 125.88 200.204 125.88 202.241 125.88C204.278 125.88 206.033 125.902 207.506 125.945H207.831C208.698 125.988 209.564 126.01 210.431 126.01C211.298 126.01 212.164 126.183 213.031 126.53C213.638 126.747 214.114 127.115 214.461 127.635C214.851 128.155 215.046 128.74 215.046 129.39C215.046 130.473 214.613 131.383 213.746 132.12C213.053 132.727 212.208 133.073 211.211 133.16C210.214 133.247 209.283 133.247 208.416 133.16H171.106C171.063 133.16 170.868 133.16 170.521 133.16C170.174 133.16 169.763 133.117 169.286 133.03C168.853 132.943 168.376 132.813 167.856 132.64C167.379 132.467 166.989 132.207 166.686 131.86C166.166 131.34 165.906 130.603 165.906 129.65C165.906 128.74 166.188 128.003 166.751 127.44C167.314 126.877 167.899 126.552 168.506 126.465C169.113 126.335 169.741 126.227 170.391 126.14C170.521 126.14 170.651 126.14 170.781 126.14C170.911 126.097 171.041 126.075 171.171 126.075ZM196.976 111.905H184.496C184.323 112.078 184.214 112.317 184.171 112.62V116C184.474 116 185.254 116 186.511 116C187.811 116 189.176 116 190.606 116C192.079 116 193.444 116 194.701 116C196.001 116 196.803 116 197.106 116L196.976 111.905Z" fill="white"/>
</svg>
